<?xml version="1.0" encoding="UTF-8"?>
<svg id="Layer_2" data-name="Layer 2" xmlns="http://www.w3.org/2000/svg" viewBox="0 0 216.6 150.27">
  <defs>
    <style>
      .cls-1 {
        fill: #ec2027;
        stroke: #ed1c24;
        stroke-miterlimit: 10;
        stroke-width: 4px;
      }
    </style>
  </defs>
  <g id="Layer_1-2" data-name="Layer 1">
    <g>
      <path class="cls-1" d="M117.88,4.62c4,3.77,4.22,13.6,7.51,17.93,6.41-6.28-4.78-7.74-.62-11.06,7.55-6.02,16.75,7.01,13,11.06-2.88,3.11-5.52-5.93-7.8-3.9-7.6,12.52,2.45,22.34,1.3,35.22l26.03-30.71c15.01-13.92,32.91-15.07,51.3-6.83,6.71,3,8.47,21.03,1.82,20.44-10.04-.9-4.86-21.41-17.05-10.15-15.46,14.29-15.67,40.47-27.64,54.56-5.89,6.92-16.47,10.37-22.78,16.36-8.75,8.3-12.27,24.28-26.04,26.82,5.58,5.79-4.4,11.11-1.32,19.55-2.03-1.71-8.7.37-9.12.01-.76-.65-2.58-16.16-4.58-19.57-.58-.99-9.75-5.83-11.94-8.28-3.82-4.29-6.18-11.15-10.86-15.9-4.79-4.86-10.73-7.25-15.71-11.7-18.58-16.58-16.8-49.57-37.17-63.3-10.43-7.03-9.72,7.35-18.39,7.84-10.24.58-5.62-17.76,3.34-20.37,3.74-1.09,5.8.99,8.4.68,17.84-2.1,21.48-3.88,38.21,6.37,13.02,7.98,21.68,20.76,30.4,32.87,2.99-12.43,5.68-22.06-1.31-33.93-15.27,12.96-13-6.86.94-7.4,4.6-.18,5.68,3.28,5.6,7.41-5.32-4.09-1.28,7.54,1.3,7.82-.68-5.94,5.49-24.33,12.1-24.47,1.7-.03,9.97,1.57,11.08,2.62ZM115.59,121.75c-2.05-.13-4.49-1.53-5.06-3.56-.22-.79,1.13-14.51,1.47-16.35,2.67-14.5,15.26-24.82,16.68-42.03.7-8.52-7.39-46.89-13.04-52.33-5.39-5.19-12.48-.43-15.47,5.53-2.87,5.71-9.76,37.89-9.03,43.79,2.45,19.73,17.99,37.98,17.51,58.51-.29,12.48-9.48-.74-11.4-7.21-3.59-12.06-1.49-25.07-4.45-37.3-4.44-18.36-25.51-43.18-42.46-51.49-2.46-1.2-10.24-4.7-12.45-4.71-2.37-.02-1.64,2.46-2.78,2.72-3.96.91-10.06-1.32-12.16,3.92,26.38,10.17,21.48,45.33,40.59,63.16,4.59,4.29,11.82,7.19,16.04,11.36,4.49,4.44,6.98,12.86,10.33,16.42,2.64,2.8,7.49,2.48,8.44,3.3.71.61.35,3.4,2.14,5.02,1.49,1.34,4.58,1.25,6.09,3.1,2.46,3.02-.94,6.08,7.71,4.66-3.32,4.05-4.63,7.67-3.91,13.03,4.27,1.03,2.14-3.84,2.88-6.88.45-1.86,2.4-3.71,2.3-5.53-.15-2.85-4.27-3.17.03-7.14ZM193.86,13.42c-9.84.21-18.54.87-27.26,5.99-6.11,3.59-29.69,30.69-33.3,37.16-9.43,16.91-4.83,32.1-7.58,48.53-.9,5.37-4.74,9.1-6.21,14,10.78-2.66,13.79-16.06,21.53-23.47,5.94-5.68,16.27-9.37,21.54-15.36,9.92-11.25,12.02-30.59,19.02-43.25,2.9-5.24,11.5-15,17.49-15.8-1.42-3.49-6.51-3.24-5.24-7.82ZM25.55,14.74c-5.36-.12-9.13,2.58-12.41,6.5-5.05-.05,2.17-4.09,1.97-5.2-5.18.02-8.42,3.12-9.73,7.84-1.18,4.25.04,8.62,4.98,5l15.2-14.14ZM209.44,19.97c-.41-.28-6.43,2.66-8.39-2.63-2.19,1.82,1.93,4.02,3.08,6.06.76,1.36,4.05,12.04,6.7,9.59,2.19-2.02.3-11.87-1.39-13.01ZM123.42,104.11c.94-6.01-.68-13.95,0-20.23l-7.54,13.99c-1.68,6.76-5.08,14.71-.95,21.23,3.33-3.14,7.81-10.67,8.49-15ZM106.45,116.5c.07-7.04-1.59-16.11-3.96-22.77-.82-2.32-3.13-7.06-5.15-8.54-.42,10.51.29,24.33,9.11,31.31Z"/>
      <path class="cls-1" d="M88.18,102.15c-11.48-13.62-15.59-33.21-25.01-48.7-5.14-8.46-15.11-20.54-22.6-26.98-2.48-2.13-7.49-2.45-7.17-6.52,2.79-2.82,25.69,23.05,27.96,26.18,11.88,16.44,17.81,37.88,26.82,56.02Z"/>
      <path class="cls-1" d="M110.36,96.93c-2.28.31-1.23-2.96-1.29-4.55-.54-13.05-.97-26.08-1.32-39.15-.18-6.77.05-11.79.06-18.22,0-2.62-1.86-24.2.6-24.21.74,28.75,2.5,57.32,1.94,86.13Z"/>
      <path class="cls-1" d="M188.66,21.26c-10.91,8.56-20.36,18.47-27.7,30.36-7.67,12.43-11.95,27.38-19.01,39.71-.96,1.68-2.19,3.73-4.17,4.3,6.63-15.27,12.99-31.14,21.87-45.31,6.9-11,16.71-24.31,29-29.05Z"/>
    </g>
  </g>
</svg>