<?xml version="1.0" encoding="UTF-8"?>
<svg id="Layer_2" data-name="Layer 2" xmlns="http://www.w3.org/2000/svg" viewBox="0 0 157.18 86.84">
  <defs>
    <style>
      .cls-1 {
        fill: #ec2027;
        stroke: #ed1c24;
        stroke-miterlimit: 10;
        stroke-width: 4px;
      }
    </style>
  </defs>
  <g id="Layer_1-2" data-name="Layer 1">
    <path class="cls-1" d="M153.51,6.29c3.92,4.58.15,16.95-3.58,21.23-7.87,9.03-19.42,16.1-30.6,20.28-2.34.88-7.89,1.07-8.34,1.46s-.47,3-1.48,4.34c-4.23,5.59-8.52,4.12-12.48,7.14-5.77,4.4-6.81,23.02-9.31,23.57-11.41,2.5-7.78-9.2-10.22-15.72l-3.25.02c-.35,4.51,5.4,15.59-1.31,15.65-.23-2.86-1.2-5.52-1.36-8.42-.08-1.42,1.68-18-1.24-15.06-.88,4.19-1.09,8.67-2.24,12.81-2.14,7.67-4.33-1.48-6.35-3.58-4.92-5.13-13.08-6.92-14.84-15.17-.38-1.77.27-6.77-.07-7.1-.24-.23-4.45-.03-6.51-.65C30.61,44.16,6.84,29.3,3.49,19.96-3.47.56,15.75,10.63,23.87,9.87c7.33-.68,17.33-4.99,27.46-5.27,7.35-.2,16.6,3.08,20.82,2.65,4.53-.46,10.95-4.99,17.15-5.25,5.45-.23,23.26,3.08,29.64,4.27,2.93.55,6.79,3.31,8.39,3.44,2.98.25,3.94-6.73,9.03-7.29,2.44-.27,15.71,2.17,17.15,3.86ZM96.39,43.8c.16-.14.34-2.2,1.3-3.22,9.22-9.79,23.34-14.48,28.15-28.11-11.51-4.67-34.24-9.41-46.02-5.49s-19.88,12.26-15.13,24.86c.84,2.23,9.06,12.43,10.83,13.95.9.77,2.29,1.35,2.62-.02-1.78-3.92-8.43-12.42-4.55-16.31,1.16,5.13,2.97,10.27,6.54,14.34l.66-4.58c3.42-4.97,3.2,11.32,6.5,7.21.63-.78,2.56-13.65,3.27-15.68l.67,9.15,3.89-2.61c.43.55-3.01,10.19,1.29,6.51ZM130.34,39.88l14.21-11.22c5.88-6.41,13.71-20.07.46-22.36-1.09-.19-10.22-.06-10.75.26-1.35.82-10.9,16.23-14.33,19.66-6.6,6.61-15.19,9.32-20.9,16.94,1.07,5.95,5.04-1.18,6.83-2.29,3.68-2.29,10.01-3.21,14.04-4.89-1.81,5.32-9.22,3.31-11.74,7.8,7.25-1.59,15.54-1.41,21.55-6.49,2.29-1.93,3.02-5.01,3.26-5.23.8-.71,3.49-.26,2.57,1.93-.45,1.07-5.96,5.16-5.21,5.88ZM57.24,35.99c.32.25,1.72,4.98,4.56,6.62,1.7.98,3.42-.16,4.54.54.37.23,5.16,8.01,5.25,2.62.03-1.64-8.87-7.96-10.1-14.66-1.92-10.39.49-11.29,3.84-19.07,1.92-4.46-7.15-4.92-10.02-4.88-4.78.07-18.38,1.9-23.42,2.78-22.94,3.99,6.04,27.92,14.31,32.54l.64-3.9c5.53,3.49,2.63-4.86,9.11,1.3.22-.25-2.89-7.13,1.29-3.9ZM35.08,38.58c-4.35-4.7-14.23-13.01-15.44-19.26-.44-2.26,1.4-4.75-.13-6.17-1.92-1.8-11.54-3.75-13.2-1.45-3.4,4.7,1.54,9.14,4.58,12.62s16,13.85,19.6,14.44c1.84.3,2.67.33,4.58-.18ZM96.42,47.73c-4.44-1.82-7.44.79-11.2,1.2-4.61.5-14.19-1.97-14.42,4.69-.16,4.54,8.95,7.31,11.56,11.43,2.54,4.01,2.73,9.45,3.63,13.99l10.43-31.3ZM67.39,50.64c-2.14-2.58-13.91-4.57-16.77-1.09-5.83,7.13,11.15,15.82,15.76,19.05-1.34-5.34,4.96-13.2,1-17.96ZM106.85,47.73c-9.15-.87-9.9,2.27-10.42,10.43,4.4-4.19,12.04-2.73,10.42-10.43Z"/>
  </g>
</svg>