<?xml version="1.0" encoding="UTF-8"?>
<svg id="Layer_2" data-name="Layer 2" xmlns="http://www.w3.org/2000/svg" viewBox="0 0 164.29 152.89">
  <defs>
    <style>
      .cls-1 {
        fill: #ed1c24;
        stroke: #ed1c24;
        stroke-miterlimit: 10;
        stroke-width: 4px;
      }
    </style>
  </defs>
  <g id="Layer_1-2" data-name="Layer 1">
    <g>
      <path class="cls-1" d="M116.23,45.51c-.28,2.64-.74.93-1.4,1.59-.27.27.02,1.16-.14,1.32-.38.4-2.52-.25-2.9.15-.16.17.13,1.04-.15,1.31-.25.24-1.03-.02-1.28.22-.3.29.13,1.31-.38,1.42-.86.19-3.79-.35-4.17.04-.16.17.12,1.03-.16,1.3-.9.86-3.37,2.35-4.27,3.22-.28.27,0,1.14-.16,1.3-.36.38-2.72-.15-2.95.08s.3,2.59-.08,2.95c-.17.16-1.03-.12-1.3.16-.13.14-1.59,2.63-1.72,2.77-.29.31-1.31-.13-1.42.39-.1.47-.09,2.95,0,3.44.11.57,1.27.09,1.47.3.3.3-.08,2.28.05,2.96,4.04.73,2.64-1.15,3-1.5,1.28-1.28,1.49,1.3,1.6,1.39,1.05.92.72.66,1.51,1.49.29.31,1.31-.13,1.42.39.1.48.1,3.46,0,3.94-.11.51-1.13.08-1.42.38-.24.25.02,1.03-.21,1.29-.3.34-1.14,0-1.39.1-.07.03-.07,1.46,0,1.49.26.11,1.09-.24,1.39.11.92,1.05.66.72,1.49,1.51.31.29-.13,1.31.39,1.42.97.21,10.39.2,11.42,0,.6-.12-.05-1.45.55-1.56,1.06-.21,5.31.35,5.68-.02.18-.18-.12-1.21.06-1.38.36-.36,2.58.25,2.93-.11.18-.18-.12-1.21.06-1.38.36-.36,2.58.25,2.93-.11.18-.18-.12-1.21.06-1.38.36-.36,2.57.25,2.93-.11.21-.21-.27-1.36.3-1.47,2.27-.45,6.15.51,8.43.07.6-.12-.05-1.45.55-1.56,1.49-.29,3.95.36,5.44.07.6-.12-.05-1.45.55-1.56,1.1-.22,2.84.29,3.94.07.57-.11.1-1.27.3-1.47.37-.36,2.54.27,2.92-.13.16-.17-.13-1.04.15-1.31.25-.24,1.03.02,1.28-.22.28-.27,0-1.14.15-1.31.35-.38,2.74.14,2.95-.08s-.29-2.1.08-2.45c.16-.16,1.04.13,1.31-.15.24-.25-.02-1.03.22-1.28.27-.28,1.14,0,1.31-.16.22-.2.21-5.69,0-5.89-.17-.16-1.03.12-1.3-.16-.65-.68-.82-.84-1.5-1.5-.28-.27,0-1.14-.16-1.31-.39-.41-2.52.25-2.9-.16-.16-.16.13-1.04-.16-1.31-.69-.66-.83-.79-1.5-1.5-.29-.31-1.31.13-1.42-.39-.72-3.34.75-9.49.07-12.91-.11-.57-1.27-.09-1.47-.3-.34-.34.16-2.74-.05-2.96s-2.63.28-2.96-.05c-.21-.21.27-1.36-.3-1.47-.89-.18-3.81.34-4.17-.04-.16-.17.12-1.06-.13-1.33-.1-.11-2.68-.27-1.41-1.58.1-.11,2.85-.06,2.97.06.21.21-.27,1.36.3,1.47,1.48.29,3.99-.38,5.44-.07.51.11.08,1.13.39,1.42,1.12,1.06,1.93,1.88,3,2.99.27.28,1.13,0,1.3.16.46.43-.24,4.64.05,5.66.18.65,1.37-.05,1.53.52.55,1.99-1.38.82-1.53,1.52-.1.45-.1,3.48,0,3.94.11.51,1.13.08,1.42.39,1.03,1.08,1.92,1.96,2.98,3.01.41.41,2.54,4.05,2.76,4.23.37.31,1.29-.09,1.4.4.15.71.22,8.36-.09,8.67-.19.18-1.23-.12-1.39.06-.14.15-.16,2.63-1.19,3.82-.21.24-.98.03-1.22.28-1.07,1.1-1.92,1.93-3.01,2.97-.31.29.13,1.31-.39,1.42-1.07.23-2.84-.29-3.94-.07-.57.11-.1,1.27-.3,1.47-.36.36-2.57-.25-2.93.11-.21.21.27,1.36-.3,1.47-.88.18-3.84-.33-4.18.02-.21.21.26,1.36-.3,1.47-2.27.45-6.15-.51-8.43-.07-.6.12.05,1.45-.55,1.56-1.1.22-2.84-.29-3.94-.07-.6.12.05,1.45-.55,1.56-1.1.22-2.84-.29-3.94-.07-.57.11-.1,1.27-.3,1.47-.36.36-2.57-.25-2.93.11-.21.21.27,1.36-.3,1.47-1.1.22-2.84-.29-3.94-.07-.6.12.05,1.45-.55,1.56-.81.16-4-.26-4.22-.04-.19.2.2,2.8,0,3-.16.16-4.31.1-4.46-.06-.18-.18.12-1.21-.06-1.38-.36-.36-2.57.25-2.93-.11-.21-.21.27-1.36-.3-1.47-.52-.1-4.03-.04-4.17.11-.16.17.12,1.03-.16,1.3-.78.75-.66.59-1.49,1.5-.44.48-1.88-.66-1.39,1.6,3.83-.66,2.54.86,3.09,1.4.27.26,1.15-.02,1.33.14.43.4-.26,4.02.13,4.41.18.18,1.21-.11,1.38.06.36.36-.27,2.54.13,2.92.17.16,1.04-.12,1.31.15.24.25-.02,1.04.21,1.29.1.11,2.65.29,1.4,1.6-.1.11-2.85.06-2.97-.05-.18-.18.12-1.21-.06-1.38-.36-.36-2.57.25-2.93-.11-.21-.21.27-1.36-.3-1.47-.88-.18-3.84.33-4.19-.02-.18-.18.12-1.21-.06-1.38-.36-.36-2.54.27-2.92-.13-.16-.17.12-1.04-.15-1.31-.25-.24-1.01.02-1.29-.21-.44-.36.5-1.82-1.1-1.39-.14.78.19,4.3,0,4.49-.2.19-2.8-.2-3,0-.16.16-.1,4.3.06,4.46.18.18,1.21-.12,1.38.06.36.36-.25,2.58.11,2.93.18.18,1.22-.12,1.39.06.26.27-.1,1.86.07,2.61.21.93,2.23,1.86,2.34,1.99.63.65.9.89,1.52,1.48.28.27,0,1.14.16,1.31.39.41,2.52-.25,2.9.16.16.16-.13,1.03.16,1.31,1.61,1.54,2.95,2.88,4.49,4.49.27.28,1.14,0,1.31.16.4.38-.23,2.55.13,2.92.18.18,1.21-.12,1.39.06.36.36-.27,2.54.13,2.92.17.16,1.04-.12,1.31.15.24.25-.02,1.03.22,1.28.27.28,1.14,0,1.31.15.35.33-.09,1.99.04,2.68.11.56,1.28.09,1.48.29.34.35-.25,2.06.13,2.43.16.15,1.04-.13,1.31.15,1.06,1.1,1.89,1.94,3,2.99.28.27,0,1.14.16,1.31.38.4,2.55-.23,2.92.13.21.21-.27,1.36.3,1.47,2.6.51,3.03-1.46,2.72,2.96,3.97.69,2.6-1.02,3.03-1.44.36-.36,2.57.25,2.93-.11.21-.21-.27-1.36.3-1.47,3.75-.72,2.48,1.28,2.72,1.53,1.29,1.3,1.48-1.31,1.58-1.41.3-.28,1.34.16,1.44-.36.14-.68-.3-2.37.02-2.69.21-.21,1.36.27,1.47-.3.2-1.01-.36-4.78.04-5.16.17-.16,1.03.12,1.3-.16,1.06-1.1,1.89-1.94,3-2.99.28-.27,0-1.14.16-1.3.38-.4,2.53.23,2.92-.13.25-.23-.27-1.28.28-1.45,1.96-.6,1,1.31,1.25,1.5.06.05,1.44.05,1.49,0,.12-.12-.18-1.25.03-1.44.33-.31,2.01.12,2.69-.02.52-.11.08-1.12.36-1.44s1.41-.02,1.41-.09v-7.48h-1.49s0,2.99,0,2.99h-1.49c-.17-.86.26-4.14-.06-4.46-.18-.18-1.21.12-1.38-.06-.36-.36.25-2.57-.11-2.93-.21-.21-1.36.27-1.47-.3-.16-.81.26-4,.04-4.22-.2-.19-2.81.2-3,0s.2-2.81,0-3c-.22-.22-2.59.3-2.95-.08-.16-.17.12-1.03-.16-1.3-.14-.13-2.63-1.59-2.77-1.72-.31-.29.13-1.31-.39-1.42-1.07-.23-2.84.29-3.94.07-.6-.12.05-1.45-.55-1.56-.89-.18-3.81.34-4.17-.04-.16-.17.12-1.03-.16-1.3-.14-.13-2.63-1.59-2.77-1.72-.56-.53.67-2.05-3.11-1.39v-1.49c1.27.18,3.07-.26,4.22-.04.57.11.1,1.27.3,1.47.36.36,2.58-.25,2.93.11.18.18-.12,1.2.06,1.38.34.35,3.31-.15,4.19.02.57.11.1,1.27.3,1.47.36.36,2.58-.25,2.93.11.18.18-.12,1.21.06,1.39.36.36,2.54-.27,2.92.13.16.17-.13,1.03.16,1.31,2.12,2.03,3.96,3.87,5.99,5.99.27.28,1.14,0,1.31.16.41.38-.25,2.51.16,2.9.16.16,1.03-.13,1.31.16,1.49,1.56,3.22,4.2,4.72,5.76.29.31,1.31-.13,1.42.39.19.86.18,9.02,0,9.92-.11.57-1.27.09-1.47.3-.34.34.16,2.74-.05,2.96s-2.63-.28-2.97.05c-.18.18.12,1.21-.06,1.38-.36.36-2.57-.25-2.93.11-.21.21.27,1.36-.3,1.47-1.1.22-2.87-.3-3.94-.07-.5.11-.1,1.03-.4,1.4-.2.23-2.67,1.08-2.77,1.19-.43.45.13,3.22-.06,4.15-.11.57-1.27.1-1.47.3-.36.37.27,2.53-.13,2.92-.17.16-1.03-.13-1.31.16-1.06,1.11-1.89,1.94-3,2.99-.28.27,0,1.13-.16,1.3-.35.37-9.29.28-10.15.11-.57-.11-.1-1.27-.3-1.47-.37-.36-2.54.27-2.92-.13-.16-.17.13-1.04-.15-1.31-.25-.24-1.03.02-1.28-.22-.28-.27,0-1.14-.15-1.31-.36-.38-2.72.15-2.95-.08s.3-2.59-.08-2.95c-.17-.16-1.03.12-1.3-.16-.69-.72-2.54-3.63-3.25-4.23-.4-.33-2.65-1.09-2.76-1.2-.44-.47.24-2.5-.17-2.89-.16-.16-1.04.13-1.31-.15-.24-.25.02-1.03-.22-1.28-.27-.28-1.14,0-1.31-.15-.4-.38.23-2.56-.13-2.92-.18-.18-1.21.12-1.39-.06-.36-.36.25-2.57-.11-2.93-.21-.21-1.36.27-1.47-.3-.12-.62.22-2.54.04-2.72-.22-.22-2.59.3-2.95-.08-.16-.17.12-1.03-.16-1.3-.14-.13-2.63-1.59-2.77-1.72-.28-.27,0-1.15-.15-1.31-.37-.38-2.04.23-2.41-.15-.15-.16.13-1.04-.15-1.31-1.1-1.06-1.94-1.89-3-2.99-.27-.28-1.13,0-1.3-.16-.36-.34.09-3.57-.08-4.44-4.87-.95-2.23,2.13-3.05,2.96-.21.21-1.36-.27-1.47.3-.22,1.1.29,2.84.07,3.94-.11.57-1.27.1-1.47.3-.36.36.25,2.58-.11,2.93-.18.18-1.21-.12-1.39.06-.36.36.25,2.58-.11,2.93-.18.18-1.21-.12-1.39.06-.36.36.27,2.54-.13,2.92-.17.16-1.03-.13-1.31.16-.13.14-1.59,2.63-1.72,2.77-.27.28-1.14,0-1.31.16-.4.38.23,2.55-.13,2.92-.21.21-1.37-.26-1.48.3-.13.68.29,2.38-.02,2.69-.18.18-1.2-.12-1.38.06-.38.38.27,3.55-.11,3.93-.18.18-1.21-.12-1.38.06-.36.36.25,2.57-.11,2.93-.21.21-1.36-.27-1.47.3-.18.89.35,3.8-.05,4.17-.17.16-1.03-.12-1.3.16-1.54,1.61-2.88,2.95-4.49,4.49-.28.27,0,1.14-.16,1.31-.38.4-2.55-.23-2.92.13-.21.21.26,1.37-.3,1.48-.68.13-2.38-.29-2.69.02-.18.18.12,1.2-.06,1.38-.3.31-7.91.24-8.67.09-.57-.11-.1-1.27-.3-1.47-.32-.32-2.01.12-2.69-.02-.52-.11-.08-1.15-.37-1.44-.27-.26-1.16.02-1.33-.14-.35-.33.09-1.99-.04-2.68-.11-.56-1.27-.09-1.48-.3-.36-.37.27-2.54-.13-2.92-.17-.16-1.03.13-1.31-.16-1.06-1.11-1.89-1.94-3-2.99-.28-.27,0-1.13-.16-1.3-.39-.42-4.6.17-5.66-.04-.57-.11-.1-1.27-.3-1.47-.32-.32-2.01.12-2.69-.02-.5-.11-.08-1.12-.39-1.42-.23-.22-.94,0-1.24-.26-.09-.08-1.16-1.96-1.18-2.08-.25-1.82-.24-8.19,0-10.03.12-.93.94-.65,1.03-1.05.16-.74-.21-2.35.06-2.63.17-.17,1.21.12,1.39-.06.36-.36-.27-2.54.13-2.92.17-.16,1.03.13,1.31-.16,1.06-1.11,1.89-1.93,3-2.99.28-.27,0-1.14.16-1.31.39-.41,2.52.25,2.9-.16.16-.17-.13-1.04.15-1.31.25-.24,1.03.02,1.28-.22.28-.27,0-1.14.15-1.31.38-.41,2.52.25,2.9-.16.16-.16-.13-1.03.16-1.31,2.12-2.03,3.96-3.87,5.99-5.99.27-.28,1.14,0,1.31-.16.41-.38-.25-2.51.16-2.9.16-.16,1.03.13,1.31-.16,1.49-1.55,3.23-4.21,4.72-5.76.53-.55,2.06.66,1.39-3.1-.22-.23-3.41.2-4.22.04-.57-.11-.09-1.26-.3-1.47-.35-.35-3.3.15-4.19-.02-.6-.12.05-1.45-.55-1.56-1.49-.29-3.95.36-5.44.07-.6-.12.05-1.45-.55-1.56-.67-.13-4.77-.13-5.44,0-.6.12.05,1.45-.55,1.56-.85.17-7.1.17-7.93,0-.57-.11-.09-1.26-.3-1.47-.35-.35-3.3.15-4.19-.02-.57-.11-.09-1.26-.3-1.47-.35-.35-3.3.15-4.18-.02-.57-.11-.1-1.27-.3-1.47-.36-.36-2.58.25-2.93-.11-.18-.18.12-1.21-.06-1.39-.36-.36-2.54.27-2.92-.13-.16-.17.13-1.04-.15-1.31-.25-.24-1.03.02-1.28-.22-.28-.27,0-1.14-.15-1.31-.36-.38-2.72.15-2.95-.08s.3-2.59-.08-2.95c-.17-.16-1.04.12-1.31-.15-.37-.38.42-1.92-1.6-1.39v-6.98c.39-.09,2.8.94,2.91,1.05.42.43-.18,4.17.08,4.43.22.22,4.28-.22,4.49,0,.19.2-.2,2.8,0,3,.22.22,2.59-.3,2.95.08.16.17-.12,1.04.15,1.31.25.24,1.03-.02,1.28.22.28.27,0,1.14.15,1.31.38.4,2.56-.23,2.92.13.18.18-.12,1.2.06,1.38.34.35,3.3-.15,4.19.02.6.12-.05,1.45.55,1.56.82.16,3.35-.32,3.69.02.21.21-.26,1.36.3,1.47,3.85.77,10.55-.82,14.42-.07.6.12-.05,1.45.55,1.56,2.28.45,6.15-.51,8.43-.07.6.12-.05,1.45.55,1.56.91.18,3.78-.34,4.18.03.2.18-.04,1.44.03,1.44h7.48c.2-1.26-.28-3.09-.04-4.21.11-.51,1.13-.08,1.42-.38.24-.25-.02-1,.21-1.29.35-.46,1.88.58,1.4-1.35-1.96.08-1.18-1.2-1.61-1.64-.27-.27-1.14,0-1.31-.15-.15-.14-.21-3.71-.11-4.17.11-.52,1.15-.08,1.44-.37s-.15-1.33.37-1.44c.81-.17,3.99.27,4.22.04.18-.19-.16-2.1-.04-2.72s2.17.72,1.56-2.49c-.11-.56-1.27-.1-1.47-.3-.36-.36.27-2.54-.13-2.92-.17-.16-1.04.12-1.31-.15-.24-.25.02-1.03-.22-1.28-.27-.28-1.14,0-1.31-.15-.38-.36.15-2.72-.08-2.95-.18-.18-2.1.16-2.72.04-.57-.11-.09-1.27-.3-1.47-.36-.36-2.58.25-2.93-.11-.18-.18.12-1.21-.06-1.39-.36-.36-2.54.27-2.92-.13-.16-.17.12-1.04-.15-1.31-.38-.37-1.92.42-1.39-1.6h-7.48c.67-3.82-.86-2.54-1.4-3.09-.26-.27.02-1.16-.14-1.33-.38-.4-2.52.25-2.9-.15-.16-.17.13-1.04-.15-1.31-.25-.24-1.03.02-1.28-.22-.28-.27,0-1.14-.15-1.31-.38-.4-2.56.23-2.92-.13-.18-.18.12-1.2-.06-1.38-.34-.35-3.31.15-4.19-.02-.57-.11-.1-1.27-.3-1.47-.37-.36-2.54.27-2.92-.13-.16-.17.13-1.04-.15-1.31-.25-.24-1.03.02-1.28-.22-.55-.53.68-2.05-3.1-1.39v-1.49c1.67.26,4.22-.36,5.71-.04.51.11.08,1.13.38,1.42.25.24,1.03-.02,1.28.22.28.27,0,1.14.15,1.31.38.4,2.56-.23,2.92.13.18.18-.12,1.21.06,1.39.36.36,2.57-.25,2.93.11.21.21-.26,1.37.3,1.47.68.13,2.38-.29,2.69.02.18.18-.12,1.21.06,1.39.36.36,2.54-.27,2.92.13.16.17-.13,1.04.15,1.31.25.24,1.03-.02,1.28.22.28.27,0,1.14.15,1.31.38.4,2.55-.23,2.92.13.21.21-.26,1.37.3,1.48.68.13,2.38-.29,2.69.02.18.18-.12,1.2.06,1.38.34.35,3.3-.15,4.19.02.6.12-.05,1.45.55,1.56,1.55.3,4.01-.29,5.72-.03-.19-1.28.26-3.06.03-4.22-.12-.6-1.45.05-1.57-.55-.19-.95.29-5.47.03-5.71-2.32-.56-1.19,1.22-1.5,1.5-1.5,1.39-2.02-2.37-1.44-2.96.21-.21,1.36.27,1.47-.3.22-1.1.22-10.31,0-11.42-.12-.6-1.45.05-1.56-.55.46-2.24-.53-17.03.11-17.63.17-.16,1.03.12,1.3-.16,1.54-1.61,2.88-2.95,4.49-4.49.28-.27,0-1.13.16-1.3.43-.46,4.65.24,5.67-.05.7-.2-.52-2.15,1.77-1.53.12.62-.16,2.83,0,3,.25.26,4.73-.23,5.72-.04.6.12-.05,1.45.55,1.56.77.15,6.17.15,6.94,0,.57-.11.1-1.27.3-1.47.36-.36,2.57.25,2.93-.11.21-.21-.27-1.36.3-1.47,1.39-.27,4.01.25,2.71,1.52-.12.11-1.11-.2-1.4.1s.16,1.34-.36,1.44c-.68.14-2.34-.32-2.68.04-.16.17.13,1.04-.15,1.31-.25.24-1.03-.02-1.28.22-.3.29.13,1.31-.38,1.42-.68.15-6.22.14-6.93,0-.57-.11-.09-1.26-.3-1.47-.35-.35-3.3.15-4.19-.02-.57-.11-.09-1.26-.3-1.47-.59-.58-4.35-.06-2.96,1.44.28.3,2.06-.83,1.5,1.5h-8.98c-.15,0,.23,2.67-.06,2.96-.21.21-1.36-.27-1.47.3-.3,1.48.36,3.95.07,5.44-.11.54-2.27-.72-1.56,2.99.11.6,1.45-.05,1.56.55.68,3.47-.75,9.44-.07,12.92.12.6,1.45-.05,1.56.55.17.88-.33,3.84.02,4.18.21.21,1.36-.26,1.47.3.37,1.88-.44,5.05-.07,6.93.12.6,1.45-.05,1.56.55.52,2.66-.62,7.34-.07,9.92.11.51,1.13.08,1.42.39.13.14,1.59,2.63,1.72,2.77.27.28,1.14,0,1.31.16.36.34-.1,1.99.04,2.67.11.52,1.14.08,1.44.36.11.1.29,2.71,1.58,1.41.15-.15-.77-2.5,2.72-1.53.7.2-.52,2.15,1.77,1.53.22-.21-.22-4.49,0-4.49h7.48v4.49c1.25-.2,3.1.27,4.21.03.51-.11.08-1.12.39-1.42.23-.22.95,0,1.24-.26,1.19-1.02,1.04-4.14,1.21-4.31.16-.15,1.04.13,1.31-.15.24-.25-.02-1.03.22-1.28.27-.28,1.14,0,1.31-.15.4-.38-.23-2.55.13-2.92.21-.21,1.36.27,1.47-.3.84-4.24-.91-11.67-.07-15.91.11-.57,1.26-.09,1.47-.3.35-.35-.15-3.3.02-4.18.11-.57,1.27-.1,1.47-.3.36-.36-.25-2.57.11-2.93.21-.21,1.36.27,1.47-.3.22-1.08.22-10.34,0-11.42-.11-.57-1.26-.09-1.47-.3-.35-.35.15-3.3-.02-4.18-.11-.57-1.27-.1-1.47-.3-.36-.36.25-2.58-.11-2.93-.18-.18-1.2.12-1.38-.06-.42-.42.26-4.67-.02-5.68-.18-.62-1.36-.1-1.53-.27-1.42-1.42,2.32-2.07,2.94-1.42.16.17-.12,1.03.16,1.3,1.1,1.06,1.94,1.89,3,2.99.27.28,1.13,0,1.3.16.9.84-1.46,6.48,1.61,6.21v18.9c-2.97-.13-.79,3.84-1.59,4.73-.18.2-1.44-.04-1.44.03v13.46c2.29.62,1.06-1.33,1.77-1.53.84-.24,3.81.36,4.19-.02.18-.18-.12-1.21.06-1.38.36-.36,2.58.25,2.93-.11.18-.18-.12-1.21.06-1.38.36-.36,2.58.25,2.93-.11.9-.91-1.71-1.3,3.02-1.44.28-2.63.74-.93,1.38-1.61.24-.25-.01-1.03.22-1.28.29-.3,1.31.13,1.42-.38.13-.62-.23-2.53-.04-2.72.22-.22,2.59.3,2.95-.08.16-.17-.12-1.04.15-1.31.25-.24,1.03.02,1.28-.22.28-.27,0-1.14.15-1.31.38-.4,2.55.23,2.92-.13.21-.21-.26-1.37.3-1.48.68-.13,2.38.29,2.69-.02.18-.18-.12-1.2.06-1.38.31-.31,3.6.1,4.46-.05v1.49c-3.97-.69-2.6,1.02-3.03,1.44-.37.36-2.54-.27-2.92.13-.16.17.13,1.04-.15,1.31-.25.24-1.03-.02-1.28.22-.28.27,0,1.14-.15,1.31-.36.38-2.73-.15-2.95.08-.19.19.17,2.1.04,2.72-.11.52-1.15.08-1.44.37-.26.27.02,1.16-.14,1.33-.38.4-2.55-.23-2.92.13-.91.9,1.7,1.3-3.02,1.44ZM77.83,67.45h-5.99s0,5.99,0,5.99c3.77.67,2.55-.85,3.11-1.39.65-.63.87-.85,1.5-1.5.53-.55,2.06.66,1.39-3.1ZM89.8,67.45c-3.82-.67-2.54.85-3.09,1.4-.4.4-2.16-.72-1.44,2.81.11.52,1.15.08,1.44.37s-.15,1.33.37,1.44c1.12.24,2.96-.23,4.22-.03-.12-.68.23-2.67-.06-2.96-.42-.42-2.14.93-1.44-3.03ZM67.32,73.49c-.11-.11-2.86-.16-2.97-.05-1.27,1.32,1.31,1.48,1.41,1.58.28.3-.16,1.34.36,1.44.68.14,2.38-.3,2.69.02.18.18-.12,1.21.06,1.39.36.36,2.58-.25,2.93.11.18.18-.12,1.2.06,1.38.82.83,3.92-1.82,2.96,3.05h1.49c.26-.25-.25-3.45-.03-4.22.17-.62,1.36-.1,1.53-.27,1.22-1.23-1.31-1.92-2.72-1.53-.16.05-.51,2.8-1.77,1.53-.12-.12.18-1.25-.03-1.44-.38-.35-2.58.25-2.94-.11-.18-.18.12-1.21-.06-1.38-.36-.36-2.58.25-2.93-.11-.18-.18.12-1.2-.06-1.38ZM89.79,86.9v-7.48c0-.07.99.23,1.38-.12.11-.1,1.38-2.62,1.12-2.87-.61.1-2.18-.22-2.46.06-.42.41.93,2.15-3.03,1.44.12.85-.18,1.96-.03,2.72.1.5,2.32-.64,1.57,2.99-.11.52-1.13.08-1.42.38-.44.45.35,1.7-1.61,1.64-.57,2.31,3.23.88,4.5,1.25ZM68.81,80.97c-.29-.29-2.28.06-2.97-.06.27,1.67-.35,4.2-.03,5.71.11.52,1.15.08,1.44.37s-.15,1.33.37,1.44c1.12.24,2.96-.23,4.22-.03-.16-.95.21-5.78,0-5.99s-2.63.28-2.96-.05c-.18-.18.12-1.2-.06-1.38ZM62.81,89.97c-.15-.16-2.27-.2-2.67-.11-.51.11-.08,1.13-.39,1.42-.14.13-2.63,1.59-2.77,1.72-.28.27,0,1.14-.16,1.3-.36.38-2.72-.15-2.95.08-.19.19.2,2.81,0,3-.22.22-2.6-.3-2.95.07-.16.17.12,1.06-.14,1.33-.29.29-1.33-.15-1.44.37-.14.68.32,2.34-.04,2.67-.16.16-1.03-.13-1.31.16-2.03,2.12-3.87,3.96-5.99,5.99-.28.27,0,1.14-.16,1.31-.39.41-2.52-.25-2.9.16-.16.17.13,1.04-.15,1.31-.25.24-1.03-.02-1.28.22-.3.29.13,1.32-.38,1.42-.68.14-2.33-.32-2.67.04-.16.16.13,1.03-.16,1.31-1.11,1.06-1.93,1.89-3,2.99-.27.28-1.14,0-1.31.16-.4.38.23,2.55-.13,2.92-.18.18-1.21-.12-1.39.06-.36.36.25,2.57-.11,2.93-.21.21-1.36-.27-1.47.3-.09.46-.12,4.07.03,4.22.2.19,2.81-.2,3,0,.7.7-1.85,4.01,2.99,3v1.49c-.17.18-6.42-.48-4.49,1,1.27.2,3.06-.26,4.21-.03.57.11.09,1.26.3,1.47.35.35,3.3-.15,4.18.02.57.11.1,1.27.3,1.47.37.36,2.54-.27,2.92.13.16.17-.13,1.03.16,1.31,1.11,1.06,1.94,1.89,3,2.99.27.28,1.14,0,1.3.16.38.36-.15,2.72.08,2.95s2.59-.3,2.95.08c.16.17-.12,1.04.15,1.31.25.24,1.03-.02,1.28.22.3.29-.13,1.31.38,1.42,3.63.75,2.49-1.47,2.99-1.57,1.07-.21,5.28.37,5.66-.04.16-.17-.12-1.03.16-1.3,1.61-1.54,2.95-2.88,4.49-4.49.27-.28,1.14,0,1.31-.16.4-.38-.23-2.55.13-2.92.18-.18,1.21.12,1.39-.06.36-.36-.25-2.57.11-2.93.21-.21,1.36.27,1.47-.3.16-.82-.32-3.35.02-3.69.21-.21,1.36.26,1.47-.3.18-.89-.33-3.82.02-4.19.2-.21,1.32.09,1.44-.03.05-.05.05-1.44,0-1.49-.28-.3-2.06.82-1.5-1.5.79-.14,4.31.19,4.49,0,.22-.23-.3-2.59.08-2.95.17-.16,1.03.12,1.3-.16.13-.14,1.59-2.63,1.72-2.77.27-.28,1.14,0,1.31-.16.4-.38-.23-2.55.13-2.92.21-.21,1.36.27,1.47-.3.18-.88-.33-3.83.02-4.18.21-.21,1.36.26,1.47-.3.36-1.8-.51-5.37-.07-6.94.2-.7,2.15.52,1.53-1.77-.25-.26-3.45.25-4.22.03-.62-.17-.1-1.36-.27-1.53-1.3-1.29-1.48,1.31-1.58,1.41-.28.25-1.16-.03-1.34.13-.37.35.15,2.73-.07,2.95-.26.27-4.73-.25-5.71-.04-.52.11-.08,1.15-.37,1.44s-1.33-.15-1.44.37c-.53,2.55,1.5,3.04-2.96,2.72.12-.68-.23-2.67.06-2.96.21-.21,1.36.27,1.47-.3.37-1.87-.44-5.06-.07-6.93.11-.57,1.26-.09,1.47-.3.29-.29-.06-2.28.06-2.96-3.78.68-2.55-.85-3.1-1.38-.25-.24-1.03.02-1.28-.22-.28-.27,0-1.14-.16-1.31Z"/>
      <path class="cls-1" d="M7.99,44.01h1.49c.14.69-.24,2.66.06,2.96.21.21,1.36-.27,1.47.3.18.92.19,9.04,0,9.92-.11.52-1.15.08-1.44.37s.15,1.33-.37,1.44c-2.56.53-3.04-1.5-2.72,2.96-2.28.48-1.11-.94-1.58-1.42-.42-.43-1.89.62-1.42-1.33.09-.51,1.09,0,1.4-.36.9-1.04,2.28-3.31,3.21-4.27.27-.28,1.13,0,1.3-.16.18-.17.19-2.72.02-2.91-.18-.2-1.43.04-1.43-.03v-7.48Z"/>
    </g>
  </g>
</svg>