<?xml version="1.0" encoding="UTF-8"?>
<svg id="Layer_2" data-name="Layer 2" xmlns="http://www.w3.org/2000/svg" viewBox="0 0 246.52 200.65">
  <defs>
    <style>
      .cls-1 {
        fill: #ed1c24;
        stroke: #ed1c24;
        stroke-miterlimit: 10;
        stroke-width: 4px;
      }
    </style>
  </defs>
  <g id="Layer_1-2" data-name="Layer 1">
    <g>
      <path class="cls-1" d="M122.5,198.65v-3c-.24-.25-4.76.22-5.72.04-.6-.12.05-1.45-.55-1.56-.89-.18-3.81.34-4.17-.05-.16-.17.12-1.03-.16-1.3-1.1-1.06-1.94-1.89-3-3-.27-.28-1.14,0-1.31-.16-.41-.38.24-2.49-.14-2.91-.18-.2-1.44.04-1.44-.03v-7.48c-1.7-.25-4.17.34-5.72.03-.57-.11-.1-1.27-.3-1.47-.32-.32-2.02.12-2.69-.02-.52-.11-.08-1.15-.37-1.44-.27-.26-1.16.02-1.33-.14-.4-.38.25-2.52-.15-2.9-.17-.16-1.04.13-1.31-.16-.13-.14-1.59-2.63-1.72-2.77-.27-.28-1.15,0-1.31-.15-.17-.17-.06-3.35-1.2-4.32-.33-.28-1.13-.02-1.29-.17-.41-.39.23-2.55-.14-2.92-.42-.42-2.14.94-1.44-3.03-2.24-.67-1.08,1.35-1.76,1.53-.64.17-2.36-.31-2.7.02-.18.18.12,1.2-.06,1.38-.33.33-2.75-.16-2.97.05-.19.19.2,2.8,0,3-.25.26-4.73-.23-5.72-.04-.6.12.05,1.45-.55,1.57-1.03.2-5.31-.35-5.68.02-.21.21.27,1.36-.3,1.47-1.1.22-10.32.22-11.43,0-.6-.12.05-1.45-.55-1.56-.88-.17-3.84.33-4.19-.02-.18-.18.12-1.21-.06-1.38-.31-.32-2.02.12-2.69-.02-.52-.11-.08-1.15-.37-1.44-.27-.26-1.16.02-1.33-.14-.4-.38.23-2.55-.13-2.92-.21-.21-1.37.27-1.48-.3-.12-.62.22-2.54.04-2.72-.19-.19-2.81.2-3,0s.17-2.1.04-2.72c-.11-.51-1.13-.08-1.42-.38-.24-.25.02-1.03-.22-1.28-.27-.28-1.14,0-1.31-.15-.38-.36.15-2.73-.08-2.95-.19-.19-2.81.2-3,0s.2-2.81,0-3c-.18-.18-2.1.16-2.72.04-.57-.11-.09-1.27-.3-1.48-.37-.36-2.54.27-2.92-.13-.16-.17.13-1.06-.14-1.33-.29-.29-1.33.15-1.44-.37-.14-.68.31-2.34-.04-2.68-.17-.16-1.06.13-1.33-.14-.29-.29.15-1.33-.37-1.44-1.51-.32-9.2.45-9.66-.04-.16-.17.12-1.06-.14-1.33-.29-.29-1.34.15-1.44-.37-.14-.71.33-2.25-.05-2.66-.1-.11-2.36-.87-2.76-1.2-.15-.12-1.62-2.59-1.75-2.74-.09-.11-2.67-.32-1.39-1.6.17-.17,1.35.35,1.53-.27.1-.35.17-5.51-.03-5.72-.26-.26-4.07.32-4.45-.08-.16-.17.12-1.03-.16-1.3-.69-.66-.83-.79-1.5-1.5-.29-.31-1.31.13-1.42-.39-.19-.88.34-3.82-.02-4.18-.21-.21-1.36.26-1.47-.3-.26-1.32-.26-13.09,0-14.42.12-.6,1.45.05,1.57-.55.29-1.49-.36-3.95-.07-5.44.12-.6,1.45.05,1.57-.55.29-1.49-.36-3.95-.07-5.44.12-.6,1.45.05,1.57-.55.29-1.49-.36-3.95-.07-5.44.11-.57,1.27-.1,1.48-.3.36-.37-.27-2.54.13-2.92.17-.16,1.04.13,1.31-.15.24-.25-.02-1.03.22-1.28.27-.28,1.14,0,1.31-.15.4-.38-.23-2.55.13-2.92.21-.21,1.37.26,1.48-.3.13-.68-.29-2.38.02-2.69.18-.18,1.2.12,1.38-.06.35-.34-.15-3.31.02-4.19.11-.57,1.26-.09,1.47-.3.39-.39-.29-3.51.14-3.91.17-.16,1.04.12,1.31-.16.24-.25-.02-1.03.22-1.28.27-.28,1.14,0,1.31-.15.41-.38-.25-2.52.16-2.9.17-.16,1.04.13,1.31-.16.55-.58.91-.95,1.48-1.52,1.27-1.27,3-4.45,4.24-5.75.29-.31,1.31.12,1.42-.39.75-3.63-1.47-2.49-1.57-2.99-.69-3.58,1.01-2.39,1.44-2.81.29-.29-.15-1.33.37-1.44.68-.14,2.37.3,2.69-.02.21-.21-.27-1.36.3-1.47.89-.18,3.81.35,4.17-.05.16-.17-.12-1.03.16-1.3,1.55-1.49,4.22-3.23,5.77-4.72.28-.27,0-1.14.16-1.3.36-.38,2.73.15,2.95-.08.19-.19-.2-2.81,0-3,.22-.22,2.63.28,2.97-.05.18-.18-.12-1.21.06-1.38.36-.36,2.58.25,2.93-.11.18-.18-.12-1.21.06-1.39.36-.36,2.58.25,2.93-.11.18-.18-.12-1.21.06-1.39.36-.36,2.57.25,2.93-.11.21-.21-.27-1.36.3-1.47,1.49-.3,3.95.36,5.44.07.6-.12-.05-1.45.55-1.56.88-.17,3.84.33,4.19-.02.21-.21-.26-1.36.3-1.47.99-.2,8.94-.19,9.93,0,.6.12-.05,1.45.55,1.57,2.28.45,6.15-.51,8.44-.07.6.12-.05,1.45.55,1.57.47.09,4.08.12,4.22-.03s-.14-1.93.02-2.63c.23-.97,2.23-1.87,2.34-1.99.18-.18,1.61-2.61,1.74-2.75.27-.28,1.14,0,1.31-.16.41-.39-.25-2.52.16-2.9.17-.16,1.04.13,1.31-.16,3.49-3.64,6.85-6.99,10.48-10.48.56-.53-.67-2.05,3.11-1.39.56-2.32-1.22-1.19-1.5-1.5-1.25-1.35,1.36-1.79,2.72-1.53.6.11-.05,1.45.55,1.57,4.27.83,11.67-.91,15.92-.07.57.11.1,1.27.3,1.48.37.36,2.54-.27,2.92.13.16.17-.13,1.03.16,1.31.14.13,2.64,1.59,2.77,1.72.28.27,0,1.14.16,1.3.36.38,2.73-.15,2.95.08.18.18-.16,2.1-.04,2.72.11.57,1.27.09,1.48.3.36.36-.25,2.58.11,2.93.18.18,1.21-.12,1.39.06.36.36-.27,2.54.13,2.92.17.16,1.04-.13,1.31.15.24.25-.02,1.03.22,1.28.29.3,1.31-.13,1.42.38.23,1.07-.29,2.84-.07,3.94.11.57,1.27.09,1.47.3.3.3-.09,2.28.06,2.97,2.29.62,1.06-1.33,1.77-1.53.84-.24,3.81.36,4.19-.02.18-.18-.12-1.21.06-1.38.36-.36,2.58.25,2.93-.11.18-.18-.12-1.21.06-1.39.36-.36,2.57.25,2.93-.11.21-.21-.27-1.36.3-1.47,1.48-.29,15.44-.29,16.92,0,.57.11.1,1.27.3,1.47.36.36,2.58-.25,2.93.11.18.18-.12,1.21.06,1.39.36.36,2.58-.25,2.93.11.18.18-.12,1.21.06,1.39.36.36,2.54-.27,2.92.13.16.17-.13,1.04.15,1.31.25.24,1.04-.02,1.28.22.28.27,0,1.14.15,1.31.38.41,2.52-.25,2.9.15.16.17-.13,1.04.15,1.31.25.24,1.04-.02,1.28.22.28.27,0,1.14.15,1.31.38.4,2.56-.23,2.92.13.18.18-.12,1.2.06,1.38.34.35,3.31-.15,4.19.02.57.11.09,1.26.3,1.47.35.35,3.3-.15,4.19.02.57.11.09,1.27.3,1.47.34.34,2.74-.17,2.97.05.26.25-.32,4.07.08,4.44.17.16,1.03-.12,1.3.16,1.06,1.1,1.89,1.94,3,3,.28.27,0,1.14.16,1.31.39.41,2.52-.25,2.9.16.16.16-.13,1.04.16,1.31.14.13,2.64,1.59,2.77,1.72.28.27,0,1.14.16,1.3.36.38,2.73-.15,2.95.08.18.18-.16,2.1-.04,2.72.11.57,1.27.09,1.48.3.36.36-.25,2.56.11,2.94.19.21,1.32-.09,1.44.03.05.05.05,1.44,0,1.49-.13.14-1.36-.14-1.5,0-1.24,1.33,1.3,1.49,1.39,1.6.91,1.04.66.72,1.49,1.51.31.29-.13,1.31.38,1.42.62.13,2.54-.22,2.72-.04.14.14-.14,1.93.02,2.63.22.95,2.22,1.88,2.34,1.99,1.22,1.22,2.09,1.65,2.99,2.5.26.25.03,1.02.26,1.24.3.28,1.14,0,1.3.16.41.39-.25,2.52.16,2.9.17.16,1.04-.13,1.31.15.24.25-.02,1.03.22,1.28.29.3,1.32-.13,1.42.38.14.68-.32,2.33.04,2.67.17.16,1.04-.13,1.31.16.13.14,1.59,2.63,1.72,2.77.27.28,1.13,0,1.3.16.39.36-.13,3.28.05,4.17.12.6,1.45-.05,1.57.55.22,1.1-.29,2.84-.07,3.94.12.6,1.45-.05,1.57.55.29,1.49-.36,3.95-.07,5.44.12.6,1.45-.05,1.57.55.28,1.44.28,14.49,0,15.92-.11.57-1.27.1-1.48.3-.36.36.25,2.58-.11,2.93-.18.18-1.2-.12-1.38.06-.35.34.15,3.31-.02,4.19-.11.57-1.27.09-1.47.3-.34.34.16,2.75-.05,2.96-.19.19-2.1-.17-2.72-.04-.52.11-.08,1.15-.37,1.44-.27.26-1.16-.02-1.33.14-.35.33.09,1.99-.04,2.68-.11.56-1.27.09-1.48.3-.31.31.11,2.02-.02,2.69-.11.56-1.27.09-1.48.3-.36.37.27,2.53-.13,2.92-.16.16-1.03-.12-1.3.16-.22.23,0,.95-.26,1.24-.99,1.15-4.12,1.07-4.3,1.23-.11.1-.93,2.57-1.18,2.78-.37.31-1.3-.09-1.4.4-.14.69.32,2.33-.04,2.67-.16.16-1.04-.13-1.31.16-1.06,1.11-1.89,1.94-3,3-.28.27,0,1.13-.16,1.3-.43.46-5.47-.3-5.89.16-.16.17.12,1.03-.16,1.3-.14.13-2.63,1.59-2.77,1.72-.28.27,0,1.14-.16,1.31-.39.41-2.52-.25-2.9.16-.16.16.13,1.03-.16,1.31-2.22,2.12-5.05,4.09-7.26,6.21-.28.27,0,1.14-.16,1.3-.36.38-2.73-.15-2.95.08-.19.19.2,2.81,0,3-.22.22-2.59-.3-2.95.08-.16.17.12,1.04-.15,1.31-.25.24-1.03-.02-1.28.22-.3.29.13,1.31-.38,1.42-1.07.23-2.84-.29-3.94-.07-.6.12.05,1.45-.55,1.56-1.44.28-14.49.28-15.92,0-.57-.11-.09-1.26-.3-1.47-.35-.35-3.3.15-4.19-.02-.6-.12.05-1.45-.55-1.56-1.1-.22-2.87.3-3.94.07-.51-.11-.08-1.13-.38-1.42-.25-.24-1.04.02-1.29-.21-.48-.43.66-1.89-1.6-1.4-.24.23.21,3.41.03,4.21-.11.5-1.05.09-1.4.4-1.14.99-1.03,4.16-1.2,4.32-.16.15-1.04-.13-1.31.15-.13.14-1.59,2.63-1.72,2.77-.27.28-1.14,0-1.31.16-.38.36.15,2.72-.08,2.95s-2.63-.28-2.97.05c-.21.21.27,1.36-.3,1.47-.88.18-3.84-.33-4.19.02-.21.21.26,1.36-.3,1.47-.81.16-4-.26-4.22-.04s.28,2.63-.05,2.97c-.18.18-1.21-.12-1.38.06-.36.36.25,2.57-.11,2.93-.21.21-1.36-.27-1.48.3-.18.89.35,3.8-.05,4.17-.17.16-1.03-.12-1.3.16-1.07,1.11-1.88,1.93-3,3-.31.29.13,1.31-.39,1.42-1.33.29-8.38-.37-8.71-.04v4.49s-1.49,0-1.49,0ZM123.97,6.65c-.15-.15-3.68-.19-4.19-.09-.6.12.05,1.45-.55,1.57-1.88.37-5.11-.46-6.94-.07-.51.11-.08,1.13-.39,1.42-.14.13-2.63,1.59-2.77,1.72-.28.27,0,1.14-.16,1.3-.36.38-2.73-.15-2.95.08-.19.19.2,2.81,0,3s-2.1-.17-2.72-.04c-.52.11-.08,1.15-.37,1.44-.27.26-1.16-.02-1.33.14-.4.38.25,2.52-.15,2.9-.17.16-1.04-.13-1.31.16-.13.14-1.59,2.63-1.72,2.77-.27.28-1.14,0-1.31.16-.41.39.25,2.52-.16,2.9-.17.16-1.04-.13-1.31.16-.87.91-2.33,3.31-3.24,4.25-.12.12-2.12,1.02-2.34,1.99-.16.7.12,2.49-.02,2.63-.18.19-2.81-.19-3,0s.2,2.81,0,3c-.22.22-2.59-.3-2.95.08-.16.17.12,1.03-.16,1.3-1.61,1.54-2.95,2.88-4.49,4.49-.27.28-1.14,0-1.31.16-.4.38.23,2.55-.13,2.92-.21.21-1.36-.27-1.48.3-.14.69-.15,6.92.11,7.16.17.16,1.04-.12,1.31.16.24.25-.02,1.03.22,1.28.27.28,1.14,0,1.31.15.41.38-.25,2.52.16,2.9.17.16,1.04-.13,1.31.16,2.13,2.22,4.09,5.03,6.21,7.26.29.31,1.31-.12,1.42.39.2.95-.26,2.47-.07,3.44.12.6,1.45-.05,1.57.55.19.98-.21,2.43-.07,3.5.12.92.93.65,1.03,1.06.22.96-.28,3.75.09,4.1.17.16,1.04-.12,1.31.16.66.68.82.84,1.5,1.5.28.27,0,1.14.16,1.31.39.41,2.52-.25,2.9.16.16.16-.13,1.03.16,1.31.9.87,3.37,2.35,4.27,3.22.28.27,0,1.14.16,1.31.38.4,2.56-.23,2.92.13.18.18-.12,1.21.06,1.39.36.36,2.57-.25,2.93.11.21.21-.26,1.37.3,1.48.68.13,2.38-.29,2.69.02.18.18-.12,1.21.06,1.39.36.36,2.54-.27,2.92.13.16.17-.13,1.04.15,1.31.25.24,1.03-.02,1.28.22.3.29-.13,1.31.38,1.42,2.55.53,3.04-1.51,2.72,2.96,2.26.49,1.12-.96,1.6-1.4.25-.23,1.04.03,1.29-.21.3-.29-.13-1.32.38-1.42.62-.13,2.54.23,2.72.04s-.17-2.1-.04-2.72c.11-.52,1.15-.08,1.44-.37.26-.27-.02-1.15.14-1.33.41-.44,3.99.28,4.4-.16.16-.17-.12-1.03.16-1.3.9-.87,3.37-2.35,4.27-3.22.28-.27,0-1.14.16-1.31.39-.41,2.52.25,2.9-.16.16-.16-.13-1.04.16-1.31,1.11-1.06,1.94-1.89,3-3,.27-.28,1.14,0,1.31-.16.4-.38-.23-2.56.13-2.92.18-.18,1.21.12,1.39-.06.36-.36-.25-2.57.11-2.93.21-.21,1.36.27,1.48-.3.21-1.06-.36-5.31.02-5.68.18-.18,1.22.12,1.39-.06.34-.34-.23-2.1.1-2.44.2-.2,1.37.27,1.48-.3.13-.69-.31-2.34.04-2.68.17-.16,1.04.12,1.31-.15.24-.25-.02-1.03.22-1.28.27-.28,1.14,0,1.31-.15.41-.38-.25-2.52.15-2.9.17-.16,1.04.13,1.31-.15.24-.25-.02-1.03.22-1.28.27-.28,1.14,0,1.31-.15.4-.38-.23-2.56.13-2.92.18-.18,1.21.12,1.39-.06.36-.36-.25-2.57.11-2.93.21-.21,1.36.27,1.48-.3.1-.52.04-4.03-.11-4.17-.17-.16-1.03.12-1.31-.16-4.13-4.31-8.07-8.94-12.2-13.25-.27-.28-1.13,0-1.3-.16-.4-.37.14-3.3-.04-4.17-.11-.51-1.13-.08-1.42-.38-.24-.25.02-1.03-.22-1.28-.27-.28-1.14,0-1.31-.15-.4-.38.23-2.55-.13-2.92-.21-.21-1.36.27-1.48-.3-.18-.88.33-3.84-.02-4.19-.18-.18-1.21.12-1.38-.06-.36-.36.27-2.54-.13-2.92-.17-.16-1.04.13-1.31-.15-.24-.25.02-1.03-.22-1.28-.27-.28-1.14,0-1.31-.15-.38-.36.15-2.72-.08-2.95s-2.59.3-2.95-.08c-.16-.17.12-1.03-.16-1.3-.14-.13-2.63-1.59-2.77-1.72-.28-.27,0-1.14-.16-1.31-.38-.4-2.56.23-2.92-.13-.18-.18.12-1.2-.06-1.38ZM192.37,64.96c.37-.37,0-9,0-10.48,0-.08,1.37.3,1.53-.27.21-.78-.29-3.97-.04-4.22.2-.19,2.81.2,3,0,.22-.22-.28-2.63.05-2.96.21-.21,1.36.27,1.47-.3.1-.52.04-4.03-.11-4.17-.17-.16-1.04.12-1.31-.16-.65-.68-.82-.84-1.5-1.5-.28-.27,0-1.14-.16-1.31-.39-.41-2.52.25-2.9-.16-.16-.17.13-1.04-.15-1.31-.25-.24-1.04.02-1.28-.22-.28-.27,0-1.14-.15-1.31-.33-.35-1.99.09-2.68-.04-.56-.11-.09-1.27-.3-1.48-.37-.36-2.54.27-2.92-.13-.16-.17.13-1.03-.16-1.31-.14-.13-2.64-1.59-2.77-1.72-.28-.27,0-1.14-.16-1.31-.39-.41-2.52.25-2.9-.16-.16-.17.13-1.04-.15-1.31-.25-.24-1.03.02-1.28-.22-.28-.27,0-1.14-.16-1.31-.36-.39-3.28.13-4.17-.04-.57-.11-.09-1.26-.3-1.47-.35-.35-3.3.15-4.19-.02-.54-.11.72-2.27-2.99-1.56-.6.11.05,1.45-.55,1.56-1.89.37-5.05-.44-6.94-.07-.6.12.05,1.45-.55,1.56-.82.16-3.35-.32-3.69.02-.21.21.26,1.36-.3,1.47-.81.16-4-.26-4.22-.04-.21.21-.14,5.74.08,5.94.17.16,1.03-.12,1.3.16,1.49,1.55,3.21,4.18,4.74,5.74.24.24,1.01.03,1.22.28,1.23,1.41,1.03,4.15,1.19,4.32.19.2,1.37-.27,1.48.3.22,1.11.23,11.87,0,12.92-.11.5-1.03.1-1.4.4s-2.31,3.8-2.74,4.25c-.27.28-1.14,0-1.31.16-.4.38.23,2.55-.13,2.92-.18.18-1.22-.12-1.39.06-.33.34.23,2.1-.1,2.44-.17.17-1.21-.12-1.39.06-.31.31.11,2.02-.02,2.69-.11.56-1.26.09-1.47.3-.35.35.15,3.3-.02,4.19-.11.57-1.26.09-1.47.3-.35.35.15,3.3-.02,4.19-.1.5-2.32-.64-1.57,2.99.11.51,1.13.08,1.42.39.7.73.76.8,1.5,1.5.31.29-.13,1.31.39,1.42,1.45.31,3.95-.36,5.44-.07.6.12-.05,1.45.55,1.57,1.76.34,4.69-.42,6.44-.07.57.11.1,1.27.3,1.47.34.34,2.05-.15,2.7.02.6.16.11,1.37.27,1.53,1.28,1.27,1.49-1.3,1.6-1.39,1.03-.9,3.31-2.28,4.28-3.21.28-.27,0-1.14.16-1.31.38-.4,2.55.23,2.92-.13.21-.21-.26-1.37.3-1.48.69-.13,2.34.31,2.68-.04.16-.17-.13-1.03.16-1.31,1.11-1.06,1.94-1.89,3-3,.27-.28,1.14,0,1.31-.16.4-.38-.23-2.55.13-2.92.21-.21,1.36.27,1.48-.3.18-.89-.35-3.8.05-4.17.17-.16,1.03.12,1.3-.16.15-.16,1.59-2.6,1.76-2.74.4-.33,2.65-1.09,2.76-1.2.41-.44-.14-2.71.09-2.94.19-.19,2.81.19,3,0ZM48.14,79.42c.39.35-.29,9.06,0,10.48.69-.13,2.67.24,2.96-.06.21-.21-.27-1.36.3-1.47.86-.17,7.57-.17,8.44,0,.57.11.1,1.27.3,1.48.37.36,2.54-.27,2.92.13.16.17-.13,1.04.15,1.31.25.24,1.04-.02,1.28.22.28.27,0,1.14.15,1.31.38.4,2.56-.23,2.92.13.18.18-.12,1.2.06,1.38.2.2,5.09.21,5.68.09s-.05-1.45.55-1.56c1.1-.22,2.84.29,3.94.07.6-.12-.05-1.45.55-1.56.89-.18,3.81.34,4.17-.05.16-.17-.12-1.03.16-1.3,1.51-1.45,4.29-3.24,5.75-4.73.45-.45-.3-1.7,1.63-1.62.48-1.98-1.14-.94-1.45-1.27-.35-.38.25-2.58-.11-2.94-.18-.18-1.21.12-1.39-.06-.36-.36.25-2.58-.11-2.93-.18-.18-1.2.12-1.38-.06-.35-.34.15-3.31-.02-4.19-.11-.57-1.26-.09-1.47-.3-.39-.39.29-3.51-.14-3.91-.17-.16-1.03.12-1.3-.16-.87-.9-2.35-3.37-3.22-4.27-.27-.28-1.14,0-1.31-.16-.41-.39.25-2.52-.16-2.9-.17-.16-1.04.13-1.31-.15-.24-.25.02-1.03-.22-1.28-.27-.28-1.14,0-1.31-.15-.4-.38.23-2.56-.13-2.92-.18-.18-1.21.12-1.39-.06-.36-.36.25-2.57-.11-2.93-.21-.21-1.36.27-1.48-.3-.15-.76-.15-6.18,0-6.94.11-.57,1.27-.1,1.48-.3.36-.37-.27-2.54.13-2.92.17-.16,1.04.13,1.31-.16,1.54-1.61,2.88-2.95,4.49-4.49.28-.27,0-1.14.16-1.3.36-.38,2.73.15,2.95-.08s-.28-2.63.05-2.96c.42-.42,2.14.93,1.44-3.03-.69-.13-2.66.25-2.97-.05-.21-.21.27-1.36-.3-1.47-1.32-.26-13.09-.26-14.42,0-.6.12.05,1.45-.55,1.57-1.06.21-5.31-.35-5.68.02-.18.18.12,1.21-.06,1.38-.36.36-2.57-.25-2.93.11-.21.21.27,1.36-.3,1.47-1.1.22-2.87-.3-3.94-.07-.51.11-.08,1.13-.38,1.42-.25.24-1.04-.02-1.28.22-.28.27,0,1.14-.15,1.31-.38.41-2.52-.25-2.9.16-.16.16.13,1.03-.16,1.31-.9.87-3.37,2.35-4.27,3.22-.28.27,0,1.14-.16,1.31-.39.41-2.52-.25-2.9.16-.16.16.13,1.04-.16,1.31-1.11,1.06-1.94,1.89-3,3-.27.28-1.14,0-1.3.16-.19.18-.18,2.76-.02,2.91.18.18,1.21-.11,1.38.06.36.36-.25,2.57.11,2.93.21.21,1.36-.27,1.48.3.22,1.08.22,10.34,0,11.43-.11.57-1.26.09-1.47.3-.13.13-.19,3.23-.09,3.68.11.52,1.15.08,1.44.37.26.27-.02,1.16.14,1.33.34.35,1.99-.1,2.68.04.52.1.08,1.15.37,1.44.27.26,1.16-.02,1.33.14.4.38-.25,2.52.15,2.9.17.16,1.04-.13,1.31.15.24.25-.02,1.03.22,1.28.27.28,1.14,0,1.31.15.41.38-.24,2.49.14,2.91.2.22,1.32-.08,1.44.03ZM202.85,55.98c.4.44,10.4-.33,11.98,0,.49-2.26-.96-1.11-1.39-1.6-1.24-1.38-1.71-1.78-2.99-3-.28-.27,0-1.14-.16-1.31-.39-.41-2.52.25-2.9-.15-.16-.17.12-1.04-.15-1.31-.25-.24-1.03.02-1.29-.21-.46-.4.59-1.87-1.35-1.4.08,1.93-1.17,1.18-1.62,1.62-.14.13-1.6,2.62-1.73,2.76-.53.55-2.07-.65-1.39,3.11,4.09-.7,2.62,1.08,3,1.49ZM31.67,54.48c-2.25-.49-1.12.96-1.6,1.39-1.7,1.54-2.92,2.82-4.52,4.46-.24.25-1.02.03-1.22.28-1.16,1.4-1.05,4.14-1.22,4.3-.16.15-1.04-.13-1.31.15-.24.25.02,1.03-.22,1.28-.29.3-1.32-.13-1.42.39-.07.34-.04,2.14.04,2.22.86.87,1.69-.97,1.83-.99.61-.12,2.04.11,2.16,0,.18-.17-.2-2.81,0-3,.22-.22,3.41.2,4.22.04.57-.11.1-1.27.3-1.47.32-.32,2.02.12,2.69-.02.52-.11.08-1.15.37-1.44.27-.26,1.15.02,1.33-.14.15-.14.21-3.66.11-4.17-.11-.57-1.27-.09-1.47-.3-.3-.3.09-2.28-.06-2.97ZM202.82,62.02c-.16-.16-4.31-.22-4.46-.06-.22.22.28,2.63-.05,2.96-.21.21-1.36-.27-1.47.3-.15.75.25,3.51.04,3.72-.2.19-2.81-.2-3,0-.2.2.2,2.14.04,2.73-.19.7-2.15-.52-1.53,1.76,3.78-.67,2.55.85,3.11,1.39.14.13,2.63,1.59,2.77,1.72.28.27,0,1.14.16,1.31.39.41,2.52-.25,2.9.16.16.16-.13,1.03.16,1.31,1.61,1.54,2.95,2.88,4.49,4.49.27.28,1.14,0,1.31.16.4.38-.23,2.55.13,2.92.21.21,1.37-.26,1.48.3.13.69-.31,2.34.04,2.68.17.16,1.04-.13,1.31.16.13.14,1.59,2.63,1.72,2.77.27.28,1.14,0,1.31.16.38.36-.15,2.72.08,2.95.19.19,2.81-.2,3,0,.22.22-.3,2.59.08,2.95.17.16,1.04-.12,1.31.15.24.25-.02,1.03.22,1.28.27.28,1.14,0,1.31.15.4.38-.23,2.55.13,2.92.21.21,1.37-.26,1.48.3.13.69-.31,2.34.04,2.68.17.16,1.04-.13,1.31.15.24.25-.02,1.03.22,1.28.27.28,1.14,0,1.31.15.41.39-.26,2.5.16,2.9.15.15.94-.11,1.29.17.12.1,1.14,2.64,1.26,2.74.37.31,1.3-.09,1.4.4.14.68-.32,2.34.04,2.67.17.16,1.06-.13,1.33.14.29.29-.15,1.33.37,1.44.46.1,4.03.04,4.17-.11.16-.17-.12-1.04.16-1.3.69-.66.83-.79,1.5-1.5.29-.31,1.31.13,1.42-.39.19-.86.18-9.02,0-9.93-.11-.57-1.27-.1-1.48-.3-.36-.36.25-2.58-.11-2.93-.18-.18-1.2.12-1.38-.06-.38-.37.19-4.62-.02-5.68-.11-.57-1.27-.1-1.48-.3-.36-.36.25-2.58-.11-2.93-.18-.18-1.21.12-1.39-.06-.36-.36.25-2.58-.11-2.93-.18-.18-1.21.12-1.39-.06-.36-.36.27-2.54-.13-2.92-.17-.16-1.04.12-1.31-.15-.24-.25.02-1.04-.22-1.28-.27-.28-1.16,0-1.31-.15-.17-.17-.06-3.33-1.2-4.32-.36-.31-1.3.1-1.41-.4-.14-.69.32-2.33-.04-2.67-.16-.16-1.04.13-1.31-.16-1.54-1.61-2.88-2.95-4.49-4.49-.28-.27,0-1.14-.16-1.3-.36-.38-2.73.15-2.95-.08s.32-2.5-.09-2.94c-.1-.11-2.36-.87-2.76-1.2-.1-.08-1.26-1.21-1.53-1.46-.28-.27,0-1.14-.16-1.3-.38-.4-2.55.23-2.92-.13-.21-.21.27-1.36-.3-1.47-.88-.18-3.84.33-4.19-.02-.18-.18.12-1.2-.06-1.38ZM239.78,104.87v-8.98c0-.07-1.25.17-1.44-.03-.41-.45.28-4.03-.12-4.42-.18-.18-1.21.12-1.38-.06-.31-.31.11-2.02-.02-2.69-.11-.56-1.27-.09-1.48-.3-.36-.36.25-2.58-.11-2.93-.18-.18-1.21.12-1.39-.06-.36-.36.27-2.54-.13-2.92-.17-.16-1.04.13-1.31-.15-.24-.25.02-1.03-.22-1.28-.27-.28-1.14,0-1.31-.15-.41-.38.25-2.52-.15-2.9-.17-.16-1.04.13-1.31-.15-.24-.25.02-1.03-.22-1.28-.27-.28-1.14,0-1.31-.15-.41-.39.26-2.5-.16-2.9-.15-.15-.94.11-1.29-.18-.12-.1-1.03-2.42-1.28-2.72-.94-1.12-4.6-3.17-5.73-4.25-.28-.27,0-1.14-.16-1.3-.38-.4-2.55.23-2.92-.13-.54-.53,1.31-1.66-2.29-1.44-1.14.07-.73.24-.74,1.25.13.51,1.07,0,1.4.35.14.15,1.58,2.64,1.71,2.78.27.28,1.15,0,1.31.15.38.37-.23,2.04.15,2.41.14.13,2.48,1.35,2.79,1.67,1.01,1.01,3.76,3.66,4.47,4.51.25.3,1.16,2.62,1.28,2.72.35.29,1.13.03,1.29.18.41.39-.23,2.55.14,2.92.21.21,1.37-.26,1.48.3.13.68-.29,2.38.02,2.69.21.21,1.37-.26,1.48.3.13.68-.29,2.38.02,2.69.18.18,1.21-.12,1.39.06.36.36-.25,2.58.11,2.93.18.18,1.21-.12,1.39.06.36.36-.25,2.58.11,2.93.18.18,1.21-.12,1.39.06.36.36-.25,2.58.11,2.93.18.18,1.21-.12,1.39.06.36.36-.25,2.58.11,2.93.18.18,1.2-.12,1.38.06.32.32-.11,3.6.06,4.46h1.5ZM33.17,68.95c-2.26-.49-1.12.96-1.6,1.39-2.24,2.02-3.92,3.82-6,5.98-.27.28-1.15,0-1.31.15-.31.3.09,1.86-.08,2.61-.08.37-.9.3-.98.68-.18.79.16,1.7.03,2.38-.09.51-1.13.07-1.43.38-.24.25.02,1.03-.22,1.28-.27.28-1.14,0-1.31.16-.43.4.26,4.02-.14,4.41-.18.18-1.21-.12-1.38.06-.36.36.25,2.57-.11,2.93-.21.21-1.36-.27-1.48.3-.18.88.33,3.84-.02,4.19-.21.21-1.36-.26-1.47.3-.77,3.85.82,10.55.07,14.42-.12.6-1.45-.05-1.57.55-.17.88-.17,7.56,0,8.43.11.57,1.26.09,1.47.3.36.36-.17,3.3.02,4.18.11.52,1.15.08,1.44.37.4.4-.72,2.16,2.81,1.44.52-.11.08-1.15.37-1.44s1.33.15,1.44-.37c.23-1.08-.29-2.84-.07-3.94.12-.6,1.45.05,1.57-.55.27-1.37-.27-3.51-.07-5,.12-.92.93-.65,1.03-1.06.27-1.17-.26-2.81-.02-3.87.11-.51,1.13-.08,1.42-.38.24-.25-.02-1.03.22-1.28.27-.28,1.14,0,1.31-.16.4-.37-.14-3.31.04-4.17.11-.51,1.13-.08,1.42-.38.24-.25-.02-1.03.22-1.28.27-.28,1.14,0,1.31-.15.4-.38-.23-2.55.13-2.92.21-.21,1.37.26,1.48-.3.13-.69-.31-2.34.04-2.68.17-.16,1.04.13,1.31-.15.24-.25-.02-1.03.22-1.28.27-.28,1.14,0,1.31-.15.41-.38-.25-2.52.16-2.9.17-.16,1.04.13,1.31-.16.66-.69.81-.84,1.5-1.5.28-.27,0-1.14.16-1.31.39-.41,2.52.25,2.9-.16.16-.17-.13-1.04.16-1.31.69-.66.83-.79,1.5-1.5.29-.31,1.31.13,1.42-.39s.1-3.42,0-3.94c-.11-.57-1.27-.1-1.48-.3-.36-.37.27-2.54-.13-2.92-.17-.16-1.04.13-1.31-.16-.66-.68-.82-.85-1.5-1.5-.28-.27,0-1.14-.16-1.3-.36-.38-2.73.15-2.95-.08-.19-.19.2-2.81,0-3-.7-.7-4.01,1.85-3-2.99ZM24.19,71.94c-3.38-.59-2.09.89-2.61,1.38-2.11,2.03-3.96,3.87-5.99,5.99-.27.28-1.14,0-1.31.16-.4.38.23,2.55-.13,2.92-.21.21-1.36-.27-1.48.3-.18.88.33,3.84-.02,4.19-.18.18-1.21-.12-1.38.06-.36.36.25,2.57-.11,2.93-.21.21-1.36-.27-1.48.3-.3,1.49.36,3.95.07,5.44-.12.6-1.45-.05-1.57.55-.29,1.49.36,3.95.07,5.44-.12.6-1.45-.05-1.57.55-.26,1.33-.26,13.1,0,14.42.11.57,1.27.09,1.47.3.3.3-.09,2.28.06,2.97,2.27.49,1.11-.97,1.58-1.41.3-.28,1.33.17,1.44-.36.71-3.38-.75-9.47-.07-12.92.12-.6,1.45.05,1.57-.55.37-1.89-.44-5.06-.07-6.94.11-.57,1.26-.09,1.47-.3.35-.35-.15-3.3.02-4.19.11-.57,1.27-.1,1.48-.3.36-.36-.25-2.58.11-2.93.18-.18,1.2.12,1.38-.06.35-.34-.15-3.31.02-4.19.11-.57,1.27-.1,1.48-.3.36-.36-.25-2.58.11-2.93.18-.18,1.21.12,1.39-.06.36-.36-.27-2.54.13-2.92.17-.16,1.04.12,1.31-.15.24-.25-.02-1.03.22-1.28.29-.31,1.33.13,1.43-.38.13-.68-.21-1.59-.03-2.38.04-.19,1.91-1.29.99-3.33ZM162.43,92.89c-.3-.3-7.29,0-8.48,0-.15,0,.71-2.18-1.5-1.5v4.49c2.28.62,1.06-1.33,1.77-1.53.3-.09,3.59-.1,3.72.03.22.22-.28,2.63.05,2.97.18.18,1.21-.12,1.38.06.36.36-.27,2.54.13,2.92.17.16,1.04-.13,1.31.15.24.25-.02,1.03.22,1.28.27.28,1.14,0,1.31.15.38.36-.15,2.73.08,2.95.19.19,2.81-.2,3,0,.22.22-.3,2.6.07,2.95.17.16,1.06-.12,1.33.14.29.29-.15,1.33.37,1.44.69.14,2.34-.32,2.68.04.16.17-.13,1.04.16,1.31.69.66.84.81,1.5,1.5.27.28,1.14,0,1.31.16.41.39-.25,2.52.16,2.9.17.16,1.04-.13,1.31.16.66.69.81.84,1.5,1.5.28.27,0,1.14.16,1.31.33.35,1.99-.09,2.68.04.56.11.09,1.27.3,1.48.37.36,2.54-.27,2.92.13.16.17-.13,1.03.16,1.31,1.11,1.06,1.94,1.89,3,3,.27.28,1.14,0,1.31.16.41.39-.25,2.52.16,2.9.17.16,1.04-.13,1.31.16.13.14,1.59,2.63,1.72,2.77.27.28,1.14,0,1.31.16.41.39-.25,2.51.16,2.9.16.15,1.01-.12,1.3.16.23.22,0,.99.26,1.24s2.46,1.05,2.71,1.29.03,1.02.26,1.24c.3.28,1.14,0,1.3.16.4.38-.23,2.55.13,2.92.21.21,1.37-.26,1.48.3.13.68-.31,2.35.04,2.68.17.16,1.06-.13,1.33.14.29.29-.15,1.33.37,1.44.68.14,2.37-.3,2.69.02.21.21-.27,1.37.3,1.47,3.68.71,2.45-1.17,2.75-1.47s2.02.12,2.69-.02c.52-.11.08-1.15.37-1.44.27-.26,1.15.02,1.33-.14.26-.25.25-6.48.11-7.16-.11-.57-1.26-.09-1.47-.3-.37-.37.17-4.18-.02-5.18-.12-.6-1.45.05-1.57-.55-.22-1.1.29-2.84.07-3.94-.11-.57-1.27-.1-1.48-.3-.36-.36.25-2.58-.11-2.93-.18-.18-1.21.12-1.39-.06-.36-.36.25-2.58-.11-2.93-.18-.18-1.2.12-1.38-.06-.35-.34.15-3.31-.02-4.19-.11-.57-1.27-.1-1.48-.3-.36-.36.25-2.58-.11-2.93-.18-.18-1.2.12-1.38-.06-.11-.11-.16-2.86-.05-2.97,1.32-1.27,1.48,1.31,1.58,1.41.3.28,1.34-.16,1.44.36.14.68-.32,2.34.04,2.68.17.16,1.04-.13,1.31.15.24.25-.02,1.03.22,1.28.27.28,1.14,0,1.31.16.43.4-.26,4.02.14,4.41.18.18,1.21-.12,1.38.06.36.36-.25,2.58.11,2.93.18.18,1.21-.12,1.39.06.36.36-.25,2.58.11,2.93.18.18,1.21-.12,1.39.06.36.36-.25,2.58.11,2.93.18.18,1.2-.12,1.38.06.38.37-.18,4.62.02,5.68.12.6,1.45-.05,1.57.55.27,1.36-.34,3.58-.07,4.94.11.57,1.27.09,1.47.3.34.34-.17,2.74.05,2.96.16.16,4.34.16,4.5,0,.22-.22-.28-2.63.05-2.96.21-.21,1.36.27,1.47-.3.23-1.15.23-11.27,0-12.42-.11-.57-1.26-.09-1.47-.3-.35-.35.15-3.3-.02-4.19-.11-.57-1.27-.1-1.48-.3-.36-.36.25-2.57-.11-2.93-.21-.21-1.36.27-1.48-.3-.3-1.49.36-3.95.07-5.44-.12-.6-1.45.05-1.57-.55-.17-.88.33-3.84-.02-4.19-.18-.18-1.21.12-1.38-.06-.31-.31.11-2.02-.02-2.69-.11-.56-1.27-.09-1.48-.3-.36-.36.25-2.58-.11-2.93-.18-.18-1.21.12-1.39-.06-.36-.36.27-2.54-.13-2.92-.17-.16-1.04.13-1.31-.15-.24-.25.02-1.03-.22-1.28-.27-.28-1.14,0-1.31-.15-.41-.38.25-2.52-.16-2.9-.17-.16-1.04.13-1.31-.16-3-3.13-5.86-5.98-8.99-8.98-.28-.27,0-1.14-.16-1.3-.36-.38-2.73.15-2.95-.08s.3-2.59-.08-2.95c-.17-.16-1.04.12-1.31-.16-.66-.69-.79-.83-1.5-1.5-.55-.53.65-2.07-3.11-1.39.68,3.78-.85,2.55-1.38,3.1-.24.25.02,1.03-.22,1.28-.29.3-1.31-.13-1.42.38-.1.47-.1,5.07,0,5.44.18.65,1.39-.05,1.53.52.48,1.94-1.03.9-1.42,1.33-.3.33.02,1.3-.08,1.41-1.27,1.33-1.48-1.31-1.58-1.41-.28-.25-1.17.03-1.34-.13-.37-.35.15-2.73-.07-2.95-.2-.2-5.21-.14-5.71-.03s-.08,1.13-.39,1.42c-.74.7-.8.76-1.5,1.5-.29.31-1.31-.13-1.42.39-.23,1.07.29,2.84.07,3.94-.11.57-1.27.09-1.47.3-.41.41.4,2.86-.34,2.97-.58.09-4.06.14-4.21,0-.19-.2.2-2.8,0-3-.21-.22-4.28.22-4.5,0-.19-.19.19-2.81,0-3ZM198.31,79.5c-.31-.33-2.25.04-2.95-.08-.68,3.77.86,2.55,1.39,3.11.63.65.84.87,1.5,1.5.28.27,0,1.14.16,1.31.38.4,2.53-.23,2.92.13.21.19-.09,1.32.03,1.44,1.41,1.42,2.08-2.32,1.42-2.94-.17-.16-1.03.12-1.3-.16-1.06-1.1-1.89-1.94-3-3-.28-.27,0-1.14-.16-1.3ZM146.46,100.38c.28-.25-.2-6.41,0-7.48-4.84.67-2.34-1.29-2.96-4.21-.11-.53-1.14-.08-1.44-.36-.11-.1-.29-2.71-1.58-1.41-.12.12.18,1.25-.03,1.44-.39.36-2.54-.27-2.92.13-.16.17.13,1.03-.16,1.31-.14.13-2.64,1.59-2.77,1.72-.28.27,0,1.14-.16,1.31-.39.41-2.52-.25-2.9.16-.16.16.13,1.03-.16,1.31-2.12,2.03-3.96,3.87-5.99,5.99-.27.28-1.14,0-1.31.16-.4.38.23,2.55-.13,2.92-.21.21-1.36-.27-1.48.3-.18.89.34,3.81-.04,4.17-.17.16-1.06-.12-1.33.14-.55.54.73,2.07-3.09,1.4.69-3.77-.86-2.55-1.38-3.1-.24-.25.02-1.03-.22-1.28-.27-.28-1.14,0-1.31-.15-.35-.33.09-1.99-.04-2.68-.11-.56-1.27-.09-1.48-.3-.36-.37.27-2.54-.13-2.92-.17-.16-1.04.13-1.31-.16-1.06-1.11-1.89-1.93-3-3-.28-.27,0-1.14-.16-1.31-.38-.4-2.56.23-2.92-.13-.18-.18.12-1.21-.06-1.39-.36-.36-2.58.25-2.93-.11-.18-.18.12-1.21-.06-1.39-.36-.36-2.57.25-2.93-.11-.21-.21.27-1.36-.3-1.47-3.58-.69-2.39,1.01-2.82,1.44-.29.29-1.33-.15-1.44.37-.19.9-.18,8.98,0,9.93.12.6,1.45-.05,1.57.55.29,1.49-.36,3.95-.07,5.44.12.6,1.45-.05,1.57.55.21,1.06-.35,5.31.02,5.68.18.18,1.21-.12,1.38.06.36.36-.25,2.58.11,2.93.18.18,1.21-.12,1.39.06.36.36-.25,2.58.11,2.93.18.18,1.21-.12,1.39.06.36.36-.25,2.58.11,2.93.18.18,1.21-.12,1.39.06.31.31-.11,2.02.02,2.69.11.56,1.27.09,1.48.3.36.36-.25,2.58.11,2.93.18.18,1.21-.12,1.39.06.36.36-.27,2.54.13,2.92.17.16,1.04-.12,1.31.15.24.25-.02,1.03.22,1.28.27.28,1.15,0,1.31.15.33.32-.08,1.58.04,2.17.1.54,1.15.08,1.44.37.26.27-.02,1.16.14,1.33.38.4,2.56-.23,2.92.13.18.18-.12,1.21.06,1.39.36.36,2.57-.25,2.93.11.21.21-.27,1.36.3,1.47.65.13,4.79.13,5.44,0,.57-.11.1-1.27.3-1.47.36-.36,2.58.25,2.93-.11.18-.18-.12-1.21.06-1.39.36-.36,2.54.27,2.92-.13.16-.17-.13-1.06.14-1.33.29-.29,1.34.16,1.44-.37.11-.6-.3-1.85.04-2.17.16-.15,1.04.13,1.31-.15.24-.25-.02-1.03.22-1.28.27-.28,1.14,0,1.31-.15.4-.38-.23-2.56.13-2.92.18-.18,1.21.12,1.39-.06.36-.36-.25-2.58.11-2.93.18-.18,1.21.12,1.39-.06.36-.36-.25-2.57.11-2.93.21-.21,1.36.27,1.48-.3.18-.88-.33-3.84.02-4.19.21-.21,1.36.26,1.47-.3.3-1.49-.36-3.95-.07-5.44.12-.6,1.45.05,1.57-.55.21-1.06-.35-5.31.02-5.68.18-.18,1.21.12,1.38-.06.31-.31-.11-2.02.02-2.69.11-.56,1.27-.09,1.48-.3.36-.36-.25-2.52.12-2.93.2-.23,1.32.08,1.44-.03ZM33.17,115.34c.15-4.73.52-2.11,1.44-3.02.31-.31-.11-2.02.02-2.69.11-.56,1.27-.09,1.48-.3.36-.36-.25-2.58.11-2.93.18-.18,1.21.12,1.39-.06.36-.36-.27-2.54.13-2.92.17-.16,1.04.13,1.31-.15.24-.25-.02-1.03.22-1.28.27-.28,1.14,0,1.31-.15.41-.38-.25-2.52.16-2.9.17-.16,1.04.13,1.31-.16,1.52-1.59,3.23-4.13,4.71-5.77.29-.32,1.26,0,1.38-.12,1.3-1.27-1.31-1.79-2.71-1.52-.57.11-.1,1.27-.3,1.48-.37.36-2.54-.27-2.92.13-.16.17.13,1.03-.16,1.31-1.11,1.06-1.94,1.89-3,3-.27.28-1.14,0-1.31.16-.41.39.25,2.52-.16,2.9-.17.16-1.04-.13-1.31.16-.87.9-2.35,3.36-3.22,4.27-.27.28-1.14,0-1.31.16-.4.38.23,2.55-.13,2.92-.21.21-1.37-.26-1.48.3-.13.68.29,2.38-.02,2.69-.21.21-1.37-.26-1.48.3-.13.69.31,2.34-.04,2.68-.17.16-1.04-.13-1.31.15-.24.25.02,1.03-.22,1.28-.27.28-1.14,0-1.31.16-.39.36.13,3.28-.04,4.17-.12.6-1.45-.05-1.57.55-.27,1.37.27,3.51.07,5-.12.93-.93.65-1.03,1.06-.16.69.14,2.5,0,2.65-.22.23-3.41-.21-4.22-.04-.53.11-.08,1.14-.36,1.44-.1.11-2.71.29-1.41,1.58.12.12,1.26-.18,1.45.03.36.39-.29,2.47.14,2.91.11.11.79,0,1.2.25.27.17.11.74.93.85,1.45.19,3.26-.21,4.77-.04v-8.48c0-.07,1.26.17,1.44-.03.37-.41-.25-2.57.12-2.93.21-.21,1.37.26,1.48-.3.13-.68-.29-2.38.02-2.69.18-.18,1.21.12,1.39-.06.36-.36-.25-2.57.11-2.93.21-.21,1.37.27,1.48-.3.46-2.36-1.26-2.48,1.46-2.72-.03.86.16,4.24-.06,4.46-.18.18-1.21-.12-1.38.06-.36.36.25,2.57-.11,2.93-.21.21-1.36-.27-1.48.3-.25,1.26-.25,12.66,0,13.92.11.57,1.27.09,1.47.3.83.83-1.81,3.92,3.05,2.97.22-.22-.2-3.41-.04-4.22.11-.57,1.26-.09,1.47-.3.34-.34-.14-2.87.02-3.69.11-.57,1.27-.09,1.47-.3.33-.34-.16-2.75.05-2.96.11-.1,2.38.02,3,0-.02,1.24.23,3.19.03,4.22-.12.6-1.45-.05-1.57.55-.18.93-.3,10.77.11,11.15.17.16,1.06-.12,1.33.14.29.29-.15,1.33.37,1.44,3.51.72,2.42-1.03,2.83-1.42.25-.24,1.03.02,1.28-.22.28-.27,0-1.14.15-1.31.38-.41,2.52.25,2.9-.16.16-.16-.13-1.03.16-1.31,2.12-2.03,3.96-3.87,5.99-5.99.27-.28,1.15,0,1.31-.15.38-.37-.23-2.04.15-2.41.16-.15,1.04.13,1.31-.15.24-.25-.02-1.03.22-1.28.27-.28,1.14,0,1.31-.15.4-.38-.23-2.55.13-2.92.21-.21,1.36.27,1.48-.3.18-.89-.35-3.8.05-4.17.17-.16,1.04.12,1.31-.16.63-.65.85-.87,1.5-1.5.28-.27,0-1.14.16-1.3.36-.38,2.73.15,2.95-.08s-.28-2.57.05-2.97c.28-.33,1.91.72,1.45-1.27-.13-.57-1.33-.06-1.5-.25-1.25-1.35,1.31-1.48,1.41-1.58.28-.3-.16-1.34.36-1.44.69-.14,2.34.32,2.68-.04.16-.16-.13-1.03.16-1.31,2.77-2.65,5.99-5.05,8.76-7.71.28-.27,0-1.14.16-1.31.39-.41,2.52.25,2.9-.16.16-.17-.13-1.04.15-1.31.25-.24,1.03.02,1.28-.22.3-.29-.13-1.31.38-1.42.81-.17,3.98.27,4.22.04.26-.26-.25-3.45-.04-4.22.17-.62,1.36-.1,1.53-.27,1.28-1.29-1.33-1.8-2.72-1.53-.57.11-.1,1.27-.3,1.47-.36.36-2.56-.25-2.94.11-.21.19.09,1.32-.03,1.44-.05.05-1.44.05-1.49,0-.14-.13.14-1.36,0-1.5-.05-.05-1.44-.05-1.49,0-.12.12.18,1.25-.03,1.44-.38.35-2.58-.25-2.94.11-.3.3.93,2.18-2.75,1.47-.5-.1.64-2.32-2.99-1.57-.51.11-.08,1.13-.38,1.42-.25.24-1.03-.02-1.28.22-.3.29.13,1.31-.38,1.42-.47.1-3.49.1-3.94,0-.69-.15.46-2.1-1.52-1.53-.55.16-.03,1.22-.28,1.45-.39.36-2.54-.27-2.92.13-.16.17.13,1.03-.16,1.31-2.12,2.03-3.96,3.87-5.99,5.99-.27.28-1.14,0-1.31.16-.41.39.25,2.52-.16,2.9-.17.16-1.04-.13-1.31.16-.87.9-2.35,3.36-3.22,4.27-.27.28-1.14,0-1.31.16-.41.39.25,2.52-.16,2.9-.17.16-1.04-.13-1.31.15-.24.25.02,1.03-.22,1.28-.27.28-1.14,0-1.31.15-.4.38.23,2.55-.13,2.92-.21.21-1.37-.26-1.48.3-.13.68.29,2.38-.02,2.69-.18.18-1.21-.12-1.38.06-.34.34.18,2.7-.06,2.97-.06.07-1.12-.01-1.5,0,.03-1.61-.3-4.38-.03-5.71.11-.57,1.27-.1,1.48-.3.36-.37-.27-2.54.13-2.92.17-.16,1.04.13,1.31-.15.24-.25-.02-1.03.22-1.28.27-.28,1.14,0,1.31-.15.35-.33-.09-1.99.04-2.68.11-.56,1.27-.09,1.48-.3.36-.37-.27-2.54.13-2.92.17-.16,1.04.13,1.31-.16.87-.9,2.35-3.36,3.22-4.27.27-.28,1.14,0,1.31-.16.41-.39-.25-2.52.16-2.9.17-.16,1.04.13,1.31-.16,2.17-2.27,4.14-4.9,6.21-7.27.09-.11,2.71-.35,1.39-1.6-.11-.1-1.12.23-1.41-.09s.17-1.33-.36-1.44c-.88-.19-3.83.34-4.18-.02-.21-.21.26-1.36-.3-1.47-.52-.1-4.03-.04-4.17.11-.16.17.12,1.03-.16,1.3-2.62,2.52-4.97,4.86-7.49,7.49-.27.28-1.14,0-1.31.16-.41.39.25,2.52-.16,2.9-.17.16-1.04-.13-1.31.15-.24.25.02,1.03-.22,1.28-.27.28-1.14,0-1.31.15-.4.38.23,2.56-.13,2.92-.18.18-1.21-.12-1.39.06-.36.36.27,2.54-.13,2.92-.17.16-1.04-.13-1.31.16-.65.68-.81.84-1.5,1.5-.75.72,1.02,1.15-1.61,1.38ZM223.81,125.82c.28.25-.2,6.41,0,7.48,2.13.37,1.18-.56,1.55-1.07.3-.42.87-.53.93-.78.17-.74-.2-2.34.07-2.61.17-.17,1.21.12,1.39-.06.36-.36-.25-2.57.11-2.93.42-.42,2.14.93,1.44-3.03h-3c-.56-2.32,1.22-1.19,1.5-1.5,1.21-1.3-1.24-1.5-1.38-1.61-.12-.1-1.12-2.64-1.25-2.75-.35-.29-1.13-.03-1.29-.17-.41-.4.25-2.51-.16-2.9-.17-.16-1.04.13-1.31-.15-.24-.25.02-1.03-.22-1.28-.29-.3-1.32.13-1.42-.38-.14-.68.32-2.34-.04-2.67-.17-.16-1.04.13-1.31-.15-.24-.25.02-1.03-.22-1.28-.27-.28-1.14,0-1.31-.16-.45-.42.3-5.47-.16-5.89-.17-.16-1.03.12-1.3-.16-1.19-1.24-1.68-1.79-3-2.99-.32-.29,0-1.26-.12-1.38-1.27-1.3-1.79,1.31-1.52,2.7.11.57,1.27.1,1.48.3.36.36-.25,2.58.11,2.93.18.18,1.21-.12,1.39.06.36.36-.25,2.58.11,2.93.18.18,1.21-.12,1.39.06.36.36-.25,2.58.11,2.93.18.18,1.2-.12,1.38.06.35.34-.15,3.3.02,4.19.12.6,1.45-.05,1.57.55.22,1.1-.29,2.84-.07,3.94.11.57,1.27.1,1.48.3.36.36-.25,2.58.11,2.93.18.18,1.2-.12,1.38.06.4.39-.29,3.97.12,4.42.21.23,1.31-.08,1.44.03ZM140.47,173.21h7.49c.07,0-.24-1.1.11-1.39,1.61-1.35,1.72-1.65,3-2.99.27-.28,1.13,0,1.3-.16.43-.4-.26-4.02.14-4.41.18-.18,1.21.12,1.38-.06.36-.36-.25-2.57.11-2.93.21-.21,1.36.27,1.48-.3.3-1.49-.36-3.95-.07-5.44.12-.6,1.45.05,1.57-.55.42-2.15-.37-5.66-.07-7.99.12-.95.96-.48,1.08-1.43.49-3.86.49-16.66,0-20.52-.12-.95-.96-.48-1.08-1.43-.35-2.75.58-6.97.07-9.49-.11-.57-1.26-.09-1.47-.3-.39-.39.28-4.04-.11-4.43-.18-.18-1.21.12-1.38-.06-.36-.36.25-2.57-.11-2.93-.21-.21-1.36.27-1.48-.3-.18-.88.33-3.84-.02-4.19-.18-.18-1.2.12-1.38-.06-.66-.66,1.14-3.39-1.3-2.97-.68.12.09,2.57-.31,2.97-.21.21-1.37-.26-1.47.3-.13.68.29,2.38-.02,2.69-.21.21-1.37-.26-1.48.3-.13.68.29,2.38-.02,2.69-.21.21-1.36-.27-1.48.3-.3,1.49.36,3.95.07,5.44-.12.6-1.45-.05-1.57.55-.21,1.08.36,5.28-.02,5.68-.2.21-1.32-.09-1.44.03-1.27,1.26,1.48,1.6,1.53,1.77.24.84-.36,3.8.02,4.19.21.21,1.36-.26,1.47.3.5,2.53-.57,6.89-.07,9.43.12.6,1.45-.05,1.57.55.21,1.09.22,11.94,0,12.92-.16.69-2.09-.47-1.53,1.52.16.58,1.36-.13,1.53.52.1.36.09,3.49,0,3.95-.12.6-1.45-.05-1.57.55-.37,1.89.44,5.06.07,6.94-.11.57-1.26.09-1.47.3-.35.35.15,3.3-.02,4.19-.11.57-1.27.1-1.48.3-.36.36.25,2.58-.11,2.93-.43.42-2.13-.95-1.44,3.02ZM156.88,101.96c-.39-.36-2.21.03-2.94-.09-.7,3.95,1.02,2.6,1.44,3.02.36.36-.25,2.58.11,2.93.18.18,1.2-.12,1.38.06.33.32-.15,3.17.07,4.12.09.4.91.14,1.03,1.06.14,1.08-.27,2.53-.07,3.5.12.6,1.45-.05,1.57.55.29,1.49-.36,3.95-.07,5.44.12.6,1.45-.05,1.57.55.73,3.71-.84,10.32-.07,13.92.11.51,1.13.08,1.42.39.13.14,1.59,2.63,1.72,2.77.27.28,1.14,0,1.31.16.41.38-.25,2.52.15,2.9.17.16,1.06-.13,1.33.14.29.29-.15,1.33.37,1.44.69.14,2.34-.32,2.68.04.16.16-.13,1.04.16,1.31.14.13,2.64,1.59,2.77,1.72.28.27,0,1.14.16,1.31.39.41,2.52-.25,2.9.16.16.17-.13,1.04.15,1.31.25.24,1.04-.02,1.28.22.28.27,0,1.14.15,1.31.38.4,2.55-.23,2.92.13.21.21-.27,1.36.3,1.48,1.48.29,4.02-.39,5.44-.07.71.16-.49,2.06,1.52,1.53.15-.04.48-2.78,1.75-1.5.25.25-1.05,2.24,2.72,1.53.6-.11-.05-1.45.55-1.56,1.07-.21,5.28.37,5.67-.04.16-.17-.12-1.06.14-1.33.29-.29,1.33.15,1.44-.37.72-3.51-1.03-2.42-1.42-2.83-.24-.25.02-1.03-.22-1.28-.27-.28-1.14,0-1.31-.15-.41-.38.25-2.52-.15-2.9-.17-.16-1.04.13-1.31-.15-.24-.25.02-1.03-.22-1.28-.27-.28-1.14,0-1.31-.15-.4-.38.23-2.55-.13-2.92-.21-.21-1.37.27-1.48-.3-.12-.62.22-2.54.04-2.72s-2.82.19-3,0c-.2-.21.29-2.1-.08-2.45-.16-.16-1.03.13-1.31-.16-1.49-1.55-3.23-4.21-4.72-5.77-.27-.28-1.14,0-1.31-.16-.41-.39.25-2.52-.16-2.9-.17-.16-1.04.13-1.31-.16-.66-.69-.81-.84-1.5-1.5-.28-.27,0-1.14-.16-1.31-.38-.41-2.52.25-2.9-.15-.16-.17.13-1.06-.14-1.33-.29-.29-1.33.15-1.44-.37-.14-.68.32-2.34-.04-2.68-.17-.16-1.04.13-1.31-.16-2.03-2.12-3.87-3.96-5.99-5.99-.28-.27,0-1.14-.16-1.3-.36-.38-2.73.15-2.95-.08-.19-.19.2-2.81,0-3-.22-.22-2.59.3-2.95-.08-.16-.17.12-1.03-.16-1.3-.16-.15-2.6-1.59-2.74-1.76-.33-.39-1.1-2.65-1.21-2.76ZM92.56,103.37c-2.12-.36-1.18.56-1.55,1.07-.3.42-.87.53-.93.79-.36,1.52.31,3.87.02,5.36-.12.6-1.45-.05-1.57.55-.29,1.49.36,3.95.07,5.44-.12.6-1.45-.05-1.57.55-.37,1.89.44,5.05.07,6.94-.12.6-1.45-.05-1.57.55-.28,1.43-.28,13.99,0,15.42.12.6,1.45-.05,1.57.55.37,1.89-.44,5.05-.07,6.94.12.6,1.45-.05,1.57.55.29,1.49-.36,3.95-.07,5.44.12.6,1.45-.05,1.57.55.52,2.65-1.21,6.56,2.5,7.48-.74,3.7,1.01,2.35,1.41,2.75.31.31-.11,2.02.02,2.69.11.56,1.27.09,1.48.3.36.37-.27,2.54.13,2.92.17.16,1.04-.13,1.31.16.63.65.85.87,1.5,1.5.41.39-.67,2.13,2.83,1.42.52-.11.08-1.15.37-1.44.43-.43,2.12.78,1.44-2.81-.11-.6-1.45.05-1.57-.55-.37-1.89.44-5.05.07-6.94-.12-.6-1.45.05-1.57-.55-.43-2.2,1.36-5.87-1.5-5.99v-27.39c2.04.18,1.89-2.88,1.57-4.49-.11-.57-1.26-.09-1.47-.3-.35-.35.15-3.3-.02-4.19-.11-.57-1.27-.1-1.48-.3-.36-.36.25-2.57-.11-2.93-.21-.21-1.36.27-1.48-.3-.18-.88.33-3.84-.02-4.19-.21-.21-1.36.26-1.47-.3-.71-3.7,1.46-2.46,1.57-2.99.26-1.37-.19-3.97-1.53-2.72-.3.28.83,2.06-1.5,1.5v-3ZM84.08,110.85c-3.76-.68-2.55.86-3.1,1.39-.25.24-1.04-.02-1.28.22-.28.27,0,1.14-.15,1.31-.38.41-2.52-.25-2.9.16-.16.16.13,1.03-.16,1.31-2.63,2.51-4.97,4.86-7.49,7.49-.27.28-1.14,0-1.31.16-.38.36.15,2.72-.08,2.95s-2.59-.3-2.95.08c-.16.17.12,1.03-.16,1.3-.68.65-.84.82-1.5,1.5-.27.28-1.14,0-1.31.16-.4.38.23,2.55-.13,2.92-.21.21-1.37-.27-1.48.3-.12.62.22,2.54.04,2.72s-2.82-.19-3,0c-.2.21.29,2.1-.08,2.45-.16.16-1.04-.13-1.31.15-.24.25.02,1.03-.22,1.28-.29.3-1.32-.13-1.42.38-.14.68.32,2.34-.04,2.67-.17.16-1.04-.13-1.31.15-.24.25.02,1.03-.22,1.28-.27.28-1.14,0-1.31.15-.41.38.25,2.52-.15,2.9-.17.16-1.06-.13-1.33.14-.29.29.15,1.33-.37,1.44-.68.14-2.38-.3-2.69.02-.42.43.95,2.13-3.03,1.44-.67,3.82.86,2.54,1.41,3.09.26.27-.02,1.16.14,1.33.38.4,2.55-.23,2.92.13.21.21-.27,1.36.3,1.47,1.08.22,10.35.22,11.43,0,.57-.11.1-1.27.3-1.47.36-.36,2.58.25,2.93-.11.18-.18-.12-1.2.06-1.38.37-.38,4.62.19,5.68-.02.57-.11.1-1.27.3-1.48.37-.36,2.54.27,2.92-.13.16-.17-.13-1.04.15-1.31.25-.24,1.04.02,1.28-.22.28-.27,0-1.14.15-1.31.38-.41,2.52.25,2.9-.16.16-.17-.13-1.04.16-1.31.69-.66.84-.81,1.5-1.5.27-.28,1.14,0,1.31-.16.41-.38-.25-2.52.16-2.9.17-.16,1.04.13,1.31-.15.39-.41-.45-1.49,1.64-1.67l-.07-21.4c.12-.6,1.45.05,1.57-.55.38-1.95-.35-5.08-.03-7.21ZM141.97,128.81h-3c-.23.23.21,3.41.04,4.22-.11.51-1.1.08-1.42.39-.23.22,0,.99-.26,1.24-.33.32-2.66,1.09-2.76,1.2-.43.46.22,2.54-.15,2.9-.2.21-1.37-.27-1.48.3-.12.62.22,2.54.04,2.72s-2.1-.17-2.72-.04c-.53.11-.08,1.14-.36,1.44-.1.11-2.7.28-1.41,1.58.17.17,1.35-.35,1.53.27v18.91c-.12.6-1.45-.05-1.56.55-.19.95-.19,9.02,0,9.93.11.53,1.14.08,1.44.36.11.1.29,2.71,1.58,1.41.12-.12-.18-1.25.03-1.44.39-.36,2.54.27,2.92-.13.16-.17-.13-1.04.16-1.31.68-.66.84-.81,1.5-1.5.27-.28,1.14,0,1.31-.16.4-.38-.23-2.56.13-2.92.18-.18,1.21.12,1.39-.06.36-.36-.25-2.57.11-2.93.21-.21,1.36.27,1.48-.3.18-.88-.33-3.84.02-4.19.21-.21,1.36.26,1.47-.3.44-2.19-1.36-5.87,1.5-5.99v-19.91c-2.86-.13-1.06-4.02-1.53-6.26ZM104.53,130.3c-2.47-.46-.45,1.57-3.03,1.77v25.89c2.76.17,1.09,2.45,1.5,4.49.11.57,1.26.09,1.47.3.35.35-.15,3.3.02,4.19.11.57,1.27.1,1.48.3.36.36-.25,2.58.11,2.93.18.18,1.21-.12,1.39.06.36.36-.27,2.54.13,2.92.17.16,1.04-.13,1.31.16.77.8.46.58,1.51,1.49.11.09.32,2.68,1.6,1.39.12-.12-.18-1.25.03-1.44.34-.31,2.01.13,2.69-.01.4-.08-.13-1.89,1.81-1.81v-27.88c-1.93.08-1.4-1.73-1.8-1.81-.69-.14-2.34.32-2.68-.04-.16-.17.13-1.03-.16-1.31-1.11-1.06-1.94-1.89-3-3-.27-.28-1.14,0-1.31-.16-.41-.39.27-2.42-.17-2.89-.11-.12-2.86-1.05-2.94-1.35-.22-.78.29-3.96.03-4.2ZM162.42,144.77c-1.29-1.3-1.48,1.31-1.58,1.41-.3.28-1.33-.17-1.44.36-.16.75-.16,7.69,0,8.43.11.51,1.13.08,1.42.39,1.07,1.12,1.88,1.93,3,3,.28.27,0,1.14.16,1.31.39.41,2.52-.25,2.9.16.16.17-.13,1.04.15,1.31.25.24,1.03-.02,1.28.22.28.27,0,1.14.16,1.31.39.41,4.6-.16,5.67.04.6.12-.05,1.45.55,1.57.88.17,7.56.17,8.44,0,.57-.11.09-1.26.3-1.47.39-.39,4.62.2,5.68-.02.53-.11.08-1.14.36-1.44.1-.11,2.74-.32,1.41-1.58-.11-.1-1.12.23-1.41-.09s.17-1.33-.36-1.44c-2.22-.47-6.17.52-8.43.07-.57-.11-.1-1.27-.3-1.47-.36-.36-2.58.25-2.93-.11-.18-.18.12-1.21-.06-1.39-.36-.36-2.54.27-2.92-.13-.16-.17.13-1.03-.16-1.31-.14-.13-2.64-1.59-2.77-1.72-.28-.27,0-1.14-.16-1.31-.39-.41-2.52.25-2.9-.16-.16-.16.13-1.04-.16-1.31-.14-.13-2.64-1.59-2.77-1.72-.28-.27,0-1.14-.16-1.31-.38-.4-2.53.23-2.92-.13-.21-.19.09-1.32-.03-1.44ZM82.58,146.27c-1.25-1.31-1.49,1.3-1.6,1.39-1.69,1.47-4.18,3.17-5.77,4.71-.28.27,0,1.13-.16,1.3-.37.4-3.31-.14-4.17.04-.51.11-.08,1.13-.38,1.42-.25.24-1.04-.02-1.28.22-.28.27,0,1.14-.15,1.31-.38.4-2.55-.23-2.92.13-.21.21.27,1.36-.3,1.47-.88.18-3.84-.33-4.19.02-.21.21.26,1.36-.3,1.47-1.87.37-5.1-.46-6.94-.07-.53.11-.08,1.15-.36,1.44-.45.47-1.9-.69-1.41,1.58.69.14,2.66-.24,2.97.06.21.21-.27,1.36.3,1.47,1.21.24,11.71.24,12.93,0,.6-.12-.05-1.45.55-1.56.89-.18,3.81.34,4.17-.04.16-.17-.12-1.04.16-1.31.25-.24,1.03.02,1.28-.22.28-.27,0-1.14.15-1.31.38-.41,2.52.25,2.9-.15.16-.17-.13-1.04.15-1.31.25-.24,1.04.02,1.28-.22.28-.27,0-1.14.15-1.31.36-.38,2.73.15,2.95-.08s-.28-2.63.05-2.96c.21-.21,1.36.27,1.47-.3.12-.62.13-4.83,0-5.44-.11-.53-1.14-.08-1.44-.36s.01-1.3-.09-1.41ZM121,176.2c-2.26-.49-1.12.96-1.6,1.39-.25.23-1.04-.03-1.29.21-.3.29.13,1.31-.38,1.42-.89.19-3.81-.34-4.19.02-.21.2.09,1.32-.03,1.44-.05.05-1.44.05-1.49,0-.3-.28.83-2.06-1.5-1.5.26,1.67-.36,4.22-.04,5.71.11.51,1.13.08,1.42.39.7.74.76.8,1.5,1.5.31.29-.13,1.31.39,1.42,1.07.23,2.84-.29,3.94-.07.57.11.09,1.27.3,1.47.3.29,2.28-.07,2.96.06v-13.47ZM124,177.7v10.48c1.03-.18,5.59.29,5.94-.08.16-.17-.12-1.03.16-1.3,1.1-1.06,1.94-1.89,3-3,.53-.55,2.06.67,1.38-3.1h-7.49c.52-2.04-.99-1.22-1.4-1.6-.48-.44.67-1.89-1.6-1.4Z"/>
      <path class="cls-1" d="M88.56,45.5c.1.09.11,2.35.04,2.72-.11.51-1.14.08-1.42.38-.24.25.02,1.03-.21,1.29-.1.11-2.68.32-1.4,1.6.12.12,1.25-.18,1.44.03.35.38-.25,2.58.11,2.94.18.18,1.21-.12,1.39.06.36.36-.25,2.58.11,2.93.18.18,1.2-.12,1.38.06.31.31-.1,3.6.05,4.46-2.27.49-1.11-.97-1.58-1.41-.3-.28-1.34.16-1.44-.36-.14-.68.32-2.34-.04-2.68-.17-.16-1.04.13-1.31-.15-.24-.25.02-1.03-.22-1.28-.29-.3-1.31.13-1.42-.38-.14-.66-.28-8.4.03-8.71.21-.2,2.14.2,2.73.04.17-.05.48-2.77,1.77-1.53Z"/>
      <path class="cls-1" d="M102.99,78.01c.16.17-.12,1.04.15,1.31.25.24,1.03-.02,1.28.22.28.27,0,1.14.15,1.31.33.35,1.99-.09,2.68.04.56.11.09,1.27.3,1.48.31.31,2.02-.11,2.69.02.56.11.09,1.27.3,1.48.37.36,2.54-.27,2.92.13.16.17-.13,1.04.16,1.31.79.76.66.58,1.49,1.51.29.32,1.26,0,1.38.12,1.28,1.26-1.3,1.81-2.7,1.52-.51-.11-.08-1.13-.38-1.42-.25-.24-1.04.02-1.28-.22-.28-.27,0-1.14-.15-1.31-.33-.35-1.99.09-2.68-.04-.56-.11-.09-1.27-.3-1.48-.31-.31-2.02.11-2.69-.02-.56-.11-.09-1.27-.3-1.48-.37-.36-2.54.27-2.92-.13-.16-.17.13-1.04-.16-1.31-.24-.23-1.02.01-1.27-.23-.4-.4.41-1.58-1.63-1.62-.89-1.81,2.72-1.42,2.95-1.17Z"/>
      <path class="cls-1" d="M137.43,36.6c.16.17-.12,1.06.14,1.33.54.55,2.08-.73,1.4,3.09-.69-.13-2.66.23-2.97-.05-.25-.23.27-1.31-.28-1.45-1.97-.5-.95,1.18-1.27,1.45-.35.29-2.26-.08-2.97.05-.67-3.81.86-2.54,1.4-3.09.26-.27-.02-1.15.14-1.33s4.24-.17,4.4,0Z"/>
      <path class="cls-1" d="M132.98,77.93c-.13.79.18,4.32,0,4.49s-2.1-.16-2.72-.04c-.57.11-.09,1.27-.3,1.47-.29.29-2.28-.06-2.97.06-.68-3.77.86-2.55,1.39-3.11.63-.65.85-.87,1.5-1.5.55-.53-.66-2.06,3.11-1.39Z"/>
      <path class="cls-1" d="M190.87,92.9c.55,2.69-2.06.3-1.5,2.99,4.86-.96,2.22,2.14,3.08,2.95.17.16,1.03-.12,1.31.16.87.9,2.35,3.37,3.22,4.27.27.28,1.14,0,1.31.16.4.38-.23,2.53.13,2.92.19.21,1.32-.09,1.45.03,1.42,1.41-2.32,2.08-2.95,1.42-.16-.17.12-1.03-.16-1.3-.68-.65-.84-.82-1.5-1.5-.27-.28-1.14,0-1.31-.16-.41-.39.25-2.52-.16-2.9-.17-.16-1.04.13-1.31-.16-1.49-1.55-3.23-4.22-4.72-5.77-.53-.55-2.06.66-1.39-3.11h4.5Z"/>
    </g>
  </g>
</svg>