<?xml version="1.0" encoding="UTF-8"?>
<svg id="Layer_2" data-name="Layer 2" xmlns="http://www.w3.org/2000/svg" viewBox="0 0 167.45 174.78">
  <defs>
    <style>
      .cls-1 {
        fill: #ed1c24;
        stroke: #ed1c24;
        stroke-miterlimit: 10;
        stroke-width: 4px;
      }
    </style>
  </defs>
  <g id="Layer_1-2" data-name="Layer 1">
    <g>
      <path class="cls-1" d="M70.46,70.43c1.28-.19,3.06.26,4.22.03.6-.12-.05-1.45.55-1.56,1.1-.22,2.84.29,3.94.07.57-.11.1-1.27.3-1.47.36-.36,2.57.25,2.93-.11.21-.21-.27-1.36.3-1.47.87-.17,7.57-.17,8.43,0,.57.11.1,1.27.3,1.47.37.36,2.54-.27,2.92.13.16.17-.12,1.04.15,1.31.25.24,1.03-.02,1.28.22.28.27,0,1.15.15,1.31.37.38,2.06-.21,2.43.12s-.78,1.99,1.52,1.45c.27-.26-.24-4.76-.03-5.71.11-.51,1.13-.08,1.42-.38.24-.25-.02-1.03.22-1.28.27-.28,1.14,0,1.31-.15.4-.38-.23-2.56.13-2.92.18-.18,1.21.12,1.39-.06.36-.36-.25-2.57.11-2.93.21-.21,1.36.27,1.47-.3.18-.88-.33-3.83.02-4.18.21-.21,1.36.26,1.47-.3.22-1.08.21-10.34,0-11.42-.11-.57-1.27-.1-1.47-.3-.36-.36.25-2.58-.11-2.93-.18-.18-1.21.12-1.39-.06-.36-.36.25-2.58-.11-2.93-.18-.18-1.2.12-1.38-.06-.38-.38.21-3.31-.03-4.17-.08-.3-2.82-1.23-2.93-1.35-.44-.47.24-2.5-.17-2.89-.16-.16-1.04.13-1.31-.16s-1.52-2.67-1.65-2.81c-.37-.38-2.04.23-2.41-.15-.15-.16.13-1.04-.15-1.31-1.61-1.54-2.95-2.88-4.49-4.49-.27-.28-1.14,0-1.31-.16-.4-.38.23-2.55-.13-2.92-.21-.21-1.36.27-1.48-.3-.12-.62.22-2.54.04-2.72-.19-.19-2.8.2-3,0-.21-.21.16-5.04,0-5.99-4.86-.96-2.23,2.14-3.05,2.96-.18.18-1.21-.12-1.38.06-.31.31.11,2.02-.02,2.69-.11.56-1.27.09-1.48.3-.36.36.25,2.58-.11,2.93-.18.18-1.21-.12-1.39.06-.36.36.27,2.54-.13,2.92-.17.16-1.04-.12-1.31.15-.24.25.02,1.03-.22,1.28-.27.28-1.14,0-1.31.15-.41.38.25,2.51-.16,2.9-.16.16-1.04-.13-1.31.16-.13.14-1.59,2.63-1.72,2.77-.27.28-1.14,0-1.31.16-.41.39.25,2.51-.16,2.9-.16.15-1.03-.12-1.3.16-.23.23,0,.95-.25,1.24-.1.12-2.58,1.43-2.85,1.14-.59-3.38.89-2.09,1.38-2.6.24-.25-.02-1.03.22-1.28.29-.3,1.32.13,1.42-.38.14-.68-.32-2.33.04-2.67.17-.16,1.04.13,1.31-.15.24-.25-.02-1.03.22-1.28.27-.28,1.14,0,1.31-.15.41-.38-.25-2.52.15-2.9.17-.16,1.04.13,1.31-.15.24-.25-.02-1.03.22-1.28.27-.28,1.14,0,1.31-.15.4-.38-.23-2.56.13-2.92.18-.18,1.21.12,1.39-.06.36-.36-.25-2.57.11-2.93.21-.21,1.36.27,1.47-.3.21-1.06-.36-5.31.02-5.68.18-.18,1.21.12,1.38-.06.32-.31-.12-2.01.02-2.69.11-.52,1.15-.08,1.44-.37s-.15-1.33.37-1.44c.48-.1,3.46-.1,3.94,0,.51.11.08,1.13.39,1.42.71.67.84.81,1.5,1.5.27.28,1.13,0,1.3.16.39.36-.13,3.28.05,4.17.11.57,1.27.1,1.47.3.36.36-.25,2.58.11,2.93.18.18,1.21-.12,1.39.06.36.36-.27,2.54.13,2.92.17.16,1.03-.13,1.31.16,1.16,1.21,3.61,3.52,4.46,4.52.33.39,1.09,2.65,1.2,2.75.44.41,2.71-.14,2.94.09.19.19-.2,2.81,0,3s2.81-.2,3,0c.22.22-.3,2.59.08,2.95.17.16,1.04-.12,1.31.15.24.25-.02,1.03.22,1.28.27.28,1.14,0,1.31.16.43.4-.26,3.52.14,3.91.21.21,1.36-.26,1.47.3.22,1.1-.29,2.84-.07,3.94.12.6,1.45-.05,1.56.55.45,2.28-.51,6.15-.07,8.43.12.6,1.45-.05,1.56.55.15.77.15,6.17,0,6.93-.11.57-1.27.09-1.47.3-.11.11-.16,2.86-.06,2.96,1.3,1.25,1.49-1.3,1.6-1.39.99-.89,3.33-2.3,4.27-3.21.28-.27,0-1.14.16-1.3.38-.41,2.49.24,2.91-.14.2-.18-.04-1.44.03-1.44h11.97v1.5h-7.48c-.07,0,.17,1.25-.03,1.44-.4.37-3.27-.16-4.18.03-.57.11-.1,1.27-.3,1.47-.37.36-2.54-.27-2.92.13-.16.17.13,1.03-.16,1.3-1.11,1.06-1.94,1.89-3,2.99-.27.28-1.13,0-1.3.16-.43.4.26,4.02-.14,4.41-.18.18-1.21-.12-1.38.06-.36.36.25,2.57-.11,2.93-.21.21-1.36-.27-1.47.3-.22,1.1.3,2.87.07,3.94-.11.51-1.13.08-1.42.39-.67.7-.81.84-1.5,1.5-.3.29.41,2.32-2.83,1.42-.61-.17-.12-1.37-.27-1.53-1.42-1.42-2.07,2.32-1.42,2.94.17.16,1.03-.12,1.3.16,1.49,1.55,3.23,4.21,4.72,5.76.27.28,1.14,0,1.31.16.4.38-.23,2.55.13,2.92.18.18,1.2-.12,1.38.06.31.3.24,7.9.09,8.67-.12.6-1.45-.05-1.56.55-.3,1.52.44,9.2-.04,9.65-.17.16-1.03-.12-1.3.16-.65.68-.82.84-1.5,1.5-.28.27,0,1.14-.16,1.31-.38.4-2.56-.23-2.92.13-.18.18.12,1.2-.06,1.38-.4.41-3.91-.32-4.4.15-.11.1-1.01,2.71-1.12,2.81-.43.41-2.71-.14-2.94.09-.19.19.2,2.81,0,3s-2.1-.17-2.72-.04c-.52.11-.08,1.15-.37,1.44-.55.55-2.07-.73-1.4,3.09,4.8-.66,2.38,1.24,2.96,4.21.12.6,1.45-.05,1.56.55.2,1.01.2,8.91,0,9.93-.12.6-1.45-.05-1.56.55-.13.67-.13,4.77,0,5.44.12.6,1.45-.05,1.56.55.31,1.57-.43,9.72.02,10.17.18.18,1.21-.12,1.38.06.36.36-.25,2.58.11,2.93.18.18,1.2-.12,1.38.06.33.33-.16,2.75.05,2.96.19.18,2.31-.19,2.5,0s-.2,2.81,0,3c.22.22,2.59-.3,2.95.08.16.17-.12,1.04.15,1.31.25.24,1.03-.02,1.28.22.28.27,0,1.14.15,1.31.38.4,2.56-.23,2.92.13.18.18-.12,1.22.06,1.39.28.27,1.89-.11,2.63.06.37.08.3.89.68.98.91.22,10.37.22,11.29,0,.38-.09.31-.88.69-.98.95-.23,3.78.27,4.12-.07.21-.21-.26-1.36.3-1.47.65-.13,4.78-.13,5.44,0,.6.12-.05,1.45.55,1.56,1.95.38,5.08-.35,7.21-.03-.3-1.55.4-4.42.03-5.71-.05-.17-2.8-.51-1.53-1.77.12-.12,1.25.18,1.44-.03.39-.41-.28-4.04.11-4.43.18-.18,1.21.12,1.38-.06.36-.36-.25-2.57.11-2.93.21-.21,1.36.27,1.47-.3.3-1.49-.36-3.94-.07-5.44.12-.6,1.45.05,1.56-.55.7-3.71-1.46-2.45-1.56-2.99-.71-3.69,1.46-2.46,1.56-2.99.2-1.02.38-12.7-.09-13.16-.18-.18-1.21.12-1.38-.06-.31-.31.11-2.02-.02-2.69-.11-.56-1.27-.09-1.48-.3-.36-.37.27-2.54-.13-2.92-.17-.16-1.03.13-1.31-.16-1.54-1.61-2.88-2.95-4.49-4.49-.28-.27,0-1.14-.16-1.3-.38-.4-2.55.23-2.92-.13-.21-.21.27-1.36-.3-1.47-2.27-.45-6.15.51-8.43.07-.6-.12.05-1.45-.55-1.56-1.89-.37-5.06.44-6.94.07-.57-.11-.1-1.27-.3-1.47-.32-.32-2.01.12-2.69-.02-.52-.11-.08-1.15-.37-1.44-.4-.39-2.17.71-1.44-2.81.11-.51,1.13-.08,1.42-.39.7-.73.76-.8,1.5-1.5.31-.29-.13-1.31.39-1.42,1.07-.23,2.84.29,3.94.07.6-.12-.05-1.45.55-1.56.67-.13,4.77-.13,5.44,0,.6.12-.05,1.45.55,1.56.81.16,4-.26,4.22-.04.19.19-.17,2.1-.04,2.72.11.52,1.15.08,1.44.37.26.27-.02,1.16.14,1.33.38.4,2.52-.25,2.9.15.16.17-.13,1.04.15,1.31.25.24,1.03-.02,1.28.22.28.27,0,1.14.15,1.31.38.4,2.56-.23,2.92.13.18.18-.12,1.2.06,1.38.3.31,7.9.24,8.67.09.6-.12-.05-1.45.55-1.56.89-.18,3.81.34,4.17-.04.16-.17-.12-1.03.16-1.3,1.61-1.54,2.95-2.88,4.49-4.49.27-.28,1.14,0,1.31-.16.4-.38-.23-2.55.13-2.92.21-.21,1.36.27,1.47-.3.39-1.95-1.22-3.77,1.5-3.99v-18.9c-.11-.53-2.28.7-1.56-2.99.11-.57,1.26-.1,1.47-.3.36-.36-.17-3.3.02-4.18.11-.51,1.13-.08,1.42-.38.24-.25-.02-1.03.22-1.28.39-.41,2.13.69,1.42-2.82-.11-.53-1.14-.09-1.44-.36-.11-.1-.29-2.71-1.58-1.41-.12.12.18,1.25-.03,1.44-.38.35-2.57-.25-2.94.11-.21.21.27,1.36-.3,1.47-.65.13-4.79.13-5.44,0-.57-.11-.1-1.27-.3-1.47-.37-.36-2.54.27-2.92-.13-.16-.17.13-1.03-.16-1.3-1.28-1.22-1.75-1.63-2.99-3-.1-.11-2.65-.3-1.39-1.6.1-.11,2.81-.07,2.95.08.16.17-.12,1.04.15,1.31.25.24,1.03-.02,1.28.22.28.27,0,1.14.15,1.31.38.4,2.55-.23,2.92.13.21.21-.27,1.36.3,1.47.65.13,4.78.13,5.44,0,.6-.12-.05-1.45.55-1.56.54-.11,5.01-.11,5.42,0,.18.05,1.26,2.76,1.42,2.9.37.31,1.3-.09,1.4.4.7,3.37-.82,2.34-1.4,2.84-.08.07-1.08,1.62-1.11,1.73-.41,1.82.99,2.57-1.55,2.91-.63,3.32.96,26.65-.02,27.62-.18.18-1.21-.12-1.38.06-.36.36.27,2.54-.13,2.92-.17.16-1.04-.12-1.31.15-.24.25.02,1.03-.22,1.28-.27.28-1.14,0-1.31.15-.38.36.15,2.72-.08,2.95s-2.59-.3-2.95.08c-.16.17.12,1.04-.15,1.31-.25.24-1.03-.02-1.28.22-.28.27,0,1.14-.15,1.31-.38.4-2.55-.23-2.92.13-.21.21.26,1.37-.3,1.48-.69.13-2.33-.3-2.69.03-.2.18.04,1.44-.03,1.44h-7.48c-.49,2.26.96,1.11,1.39,1.6.23.25-.03,1.04.21,1.29.27.28,1.14,0,1.31.15.4.38-.23,2.56.13,2.92.18.18,1.21-.12,1.39.06.36.36-.25,2.58.11,2.93.18.18,1.2-.12,1.38.06.39.38-.28,4.04.11,4.43.21.21,1.36-.26,1.47.3.3,1.51.3,15.9,0,17.4-.11.57-1.26.09-1.47.3-.38.37.18,4.65-.02,5.68-.12.6-1.45-.05-1.56.55-.17.88.33,3.84-.02,4.18-.21.21-1.36-.26-1.47.3-.58,2.92.65,8,.07,10.92-.11.57-1.27.09-1.47.3-.34.34.17,2.74-.05,2.96-.16.16-4.3.1-4.46-.06-.18-.18.12-1.21-.06-1.38-.36-.36-2.57.25-2.93-.11-.21-.21.27-1.36-.3-1.47-.76-.15-6.18-.15-6.94,0-.57.11-.09,1.26-.3,1.47-.37.38-4.65-.18-5.68.02-.6.12.05,1.45-.55,1.56-.9.18-7.54.18-8.43,0-.6-.12.05-1.45-.55-1.56-.88-.17-3.84.33-4.19-.02-.18-.18.12-1.22-.06-1.39-.27-.26-1.86.1-2.61-.07-1.2-.27-1.78-2.27-1.9-2.39-.39-.41-2.51.25-2.9-.16-.15-.16.12-1.01-.16-1.3-.22-.23-.99,0-1.24-.26-.58-.6-2.15-3.61-2.75-4.23-.27-.28-1.14,0-1.3-.16-.4-.38.23-2.55-.13-2.92-.18-.18-1.21.12-1.39-.06-.36-.36.25-2.57-.11-2.93-.21-.21-1.36.27-1.47-.3-.19-.95.29-5.47.03-5.71h-1.49c-.26.25.22,4.76.03,5.71-.11.57-1.27.1-1.47.3-.36.36.25,2.58-.11,2.93-.18.18-1.21-.12-1.39.06-.36.36.27,2.54-.13,2.92-.17.16-1.04-.13-1.31.16-.66.68-.81.84-1.5,1.5-.28.27,0,1.14-.16,1.31-.39.41-2.52-.25-2.9.16-.16.16.13,1.03-.16,1.31-.14.13-2.63,1.59-2.77,1.72-.28.27,0,1.15-.15,1.31-.17.17-3.33.06-4.32,1.2-.31.36.1,1.3-.4,1.4-1.06.23-5.29-.37-5.68.02-.21.21.27,1.36-.3,1.47-1.88.37-5.05-.44-6.94-.07-.6.12.05,1.45-.55,1.56-1.88.37-5.11-.46-6.93-.07-.51.11-.08,1.13-.38,1.42-.25.24-1.03-.02-1.28.22-.3.29.13,1.31-.38,1.42-.64.14-6.92.15-7.16-.11-.16-.17.12-1.06-.14-1.33-.29-.29-1.33.15-1.44-.37-.19-.88.34-3.82-.02-4.18-.21-.21-1.36.26-1.47-.3-.27-1.35.35-3.62.07-4.94-.11-.51-1.13-.08-1.42-.38-.24-.25.02-1.03-.22-1.28-.27-.28-1.14,0-1.31-.15-.4-.38.23-2.55-.13-2.92-.21-.21-1.37.26-1.48-.3-.13-.68.31-2.34-.04-2.68-.17-.16-1.04.12-1.31-.15-.24-.25.02-1.03-.22-1.28-.27-.28-1.14,0-1.31-.15-.4-.38.23-2.56-.13-2.92-.18-.18-1.22.12-1.39-.06-.27-.28.11-1.89-.06-2.63-.04-.19-1.9-1.29-.99-3.33h2.5c.22.22-.2,3.41-.04,4.22.11.57,1.27.1,1.47.3.36.37-.27,2.53.13,2.92.17.16,1.03-.13,1.31.16.13.14,1.59,2.63,1.72,2.77.27.28,1.14,0,1.31.16.41.38-.25,2.52.16,2.9.17.16,1.04-.13,1.31.15.24.25-.02,1.03.22,1.28.27.28,1.14,0,1.31.15.4.38-.23,2.55.13,2.92.21.21,1.36-.27,1.47.3.27,1.36-.34,3.58-.07,4.94.12.6,1.45-.05,1.56.54s-.22,2.54-.04,2.72c.15.15,3.75.12,4.22.03.57-.11.1-1.27.3-1.47.36-.36,2.57.25,2.93-.11.21-.21-.27-1.36.3-1.47.88-.18,3.84.33,4.18-.02.21-.21-.26-1.36.3-1.47,1.75-.35,4.59.32,6.49.07.92-.12.65-.93,1.06-1.03,1.52-.36,3.88.32,5.37.02.57-.11.1-1.27.3-1.47.36-.36,2.58.25,2.93-.11.18-.18-.12-1.21.06-1.39.36-.36,2.54.27,2.92-.13.16-.17-.13-1.03.16-1.3,2.12-2.03,3.96-3.87,5.99-5.99.27-.28,1.13,0,1.3-.16.39-.36-.13-3.28.05-4.17.12-.6,1.45.05,1.56-.55.29-1.49-.36-3.94-.07-5.44.12-.6,1.45.05,1.56-.55.2-1.01.2-8.91,0-9.93-.12-.6-1.45.05-1.56-.55-.2-1-.44-12.73.03-13.19.17-.16,2.37.12,3,0v-1.49c-3.79.67-2.55-.85-3.1-1.39-.25-.24-1.03.02-1.28-.22-.28-.27,0-1.14-.15-1.31-.38-.41-2.52.25-2.9-.15-.16-.17.13-1.04-.15-1.31-.25-.24-1.03.02-1.28-.22-.28-.27,0-1.14-.15-1.31-.38-.4-2.56.23-2.92-.13-.18-.18.12-1.21-.06-1.39-.36-.36-2.57.25-2.93-.11-.21-.21.26-1.37-.3-1.47-.68-.13-2.38.29-2.69-.02-.18-.18.12-1.21-.06-1.39-.36-.36-2.54.27-2.92-.13-.16-.17.13-1.06-.14-1.33-.29-.29-1.33.15-1.44-.37-.14-.68.32-2.34-.04-2.67-.17-.16-1.04.13-1.31-.15-.24-.25.02-1.03-.22-1.28-.29-.3-1.31.13-1.42-.38-.28-1.32.36-3.61.07-4.93-.11-.51-1.13-.08-1.42-.38-.24-.25.02-1.03-.22-1.28-.29-.3-1.31.13-1.42-.38-.19-.89.34-3.8-.02-4.18-.2-.21-1.32.09-1.44-.03-1.27-1.26,1.48-1.6,1.53-1.77.24-.85-.38-3.77.05-4.17.17-.16,1.04.12,1.31-.16.24-.25-.02-1.03.22-1.28.27-.28,1.14,0,1.31-.15.35-.33-.09-1.99.04-2.68.11-.56,1.27-.09,1.48-.3.36-.37-.27-2.54.13-2.92.17-.16,1.03.13,1.31-.16.13-.14,1.58-2.63,1.71-2.78.44-.48,1.88.66,1.39-1.6-.88-.18-4.11.28-4.44-.08-.16-.17.12-1.03-.16-1.3-1.1-1.06-1.94-1.89-3-2.99-.27-.28-1.14,0-1.31-.16-.4-.38.23-2.55-.13-2.92-.21-.21-1.37.26-1.48-.3-.13-.68.29-2.38-.02-2.69-.21-.21-1.37.26-1.48-.3-.13-.69.31-2.34-.04-2.68-.17-.16-1.03.13-1.31-.16-.13-.14-1.59-2.63-1.72-2.77-.27-.28-1.14,0-1.31-.16-.4-.38.23-2.53-.13-2.92-.19-.21-1.32.09-1.44-.03-1.42-1.41,2.32-2.08,2.94-1.42.16.17-.12,1.03.16,1.3.68.65.84.82,1.5,1.5.27.28,1.14,0,1.31.16.41.38-.25,2.52.15,2.9.17.16,1.04-.13,1.31.15.24.25-.02,1.03.22,1.28.27.28,1.14,0,1.31.15.35.33-.09,1.99.04,2.68.11.56,1.27.09,1.48.3.36.37-.27,2.54.13,2.92.17.16,1.04-.13,1.31.16.63.65.85.87,1.5,1.5.41.39-.68,2.13,2.83,1.42.53-.11.09-1.14.36-1.44.1-.11,2.7-.28,1.41-1.58-.17-.17-1.35.35-1.53-.27-.24-.85.38-3.77-.05-4.17-.17-.16-1.04.12-1.31-.16-.24-.25.02-1.03-.22-1.28-.27-.28-1.14,0-1.31-.15-.4-.38.23-2.55-.13-2.92-.21-.21-1.36.27-1.47-.3-.21-1.06.36-5.3-.02-5.68-.21-.21-1.36.26-1.47-.3-.15-.77-.15-6.16,0-6.93.12-.6,1.45.05,1.56-.55.19-.95-.29-5.47-.03-5.71h1.49v16.46c2.02-.53,1.23,1.01,1.6,1.39.27.27,1.15,0,1.31.15.35.33-.09,1.99.04,2.68.11.56,1.27.09,1.48.3.36.37-.27,2.54.13,2.92.17.16,1.04-.12,1.31.15.37.38-.42,1.92,1.6,1.39v8.98ZM86.92,68.93v8.98c2.28.49,1.11-.96,1.59-1.41.3-.28,1.34.17,1.44-.36.08-.39.03-2.56-.09-2.69-.34-.37-1.97.78-1.45-1.52h3s0,7.48,0,7.48c2.28.5,1.11-.97,1.59-1.41.61-.57,2.04.8,1.41-3.08h1.49v7.48c0,.22-4.28-.22-4.49,0v1.49c3.96-.7,2.61,1.03,3.03,1.44.28.28,1.85-.05,2.46.06v-11.97c-4.13.98-1.85-2.35-2.49-2.99-.22-.22-2.61.28-2.97-.05-.21-.19.09-1.32-.03-1.44-.05-.05-1.43-.05-1.49,0-.23.17.71,2.05-1.25,1.5-.64-.18.53-2.12-1.75-1.5ZM82.43,99.85v10.47h1.5v-7.48c0-.15,2.83.17,3,0,.49-2.27-.97-1.11-1.41-1.58-.57-.6.78-2.05-3.08-1.41ZM123.83,102.84c-.22-.39-7.64.29-8.98,0v1.49c3.95-.88,2.77,1.5,2.99,1.5h7.48c.47-2.29-.9-1.1-1.41-1.58-.33-.31.02-1.23-.09-1.41Z"/>
      <path class="cls-1" d="M2.12,76.41c.22-.22,2.59.29,2.95-.08.16-.17-.12-1.03.16-1.3.65-.63.87-.85,1.5-1.5.27-.28,1.13,0,1.3-.16.39-.36-.13-3.28.05-4.17.11-.57,1.27-.1,1.47-.3.36-.37-.27-2.53.13-2.92.17-.16,1.03.13,1.31-.16,1.22-1.27,1.63-1.75,3-2.99.11-.1.3-2.64,1.6-1.39.11.1.06,2.85-.05,2.96-.18.18-1.21-.12-1.38.06-.36.36.25,2.57-.11,2.93-.21.21-1.36-.27-1.47.3-.29,1.48.38,3.99.07,5.43-.11.51-1.13.08-1.42.39-.13.14-1.59,2.63-1.72,2.77-.27.28-1.13,0-1.3.16-.43.4.19,3.32-.05,4.17-.18.62-1.36.1-1.53.27-1.28,1.29,1.3,1.49,1.39,1.6.23.26-.03,1.04.21,1.29.27.28,1.15,0,1.31.15.4.38-.23,2.56.13,2.92.18.18,1.21-.12,1.39.06.36.36-.25,2.57.11,2.93.21.21,1.37-.26,1.48.3.13.68-.29,2.38.02,2.69.18.18,1.2-.12,1.38.06.39.38-.28,4.04.11,4.43.18.18,1.22-.12,1.39.06.34.34-.23,2.1.11,2.44.2.2,1.37-.27,1.48.3.21,1.07-.37,5.27.04,5.66.17.16,1.03-.12,1.3.16,2.04,2.12,3.85,3.96,5.99,5.99.31.29-.13,1.31.39,1.42.92.2,9.95.19,10.92,0,.57-.11.09-1.26.3-1.47.35-.35,3.3.15,4.18-.02.57-.11.1-1.27.3-1.47.36-.36,2.55.26,2.92-.13.16-.17-.12-1.06.13-1.33.44-.47,1.9.69,1.41-1.58h-4.49s0-1.5,0-1.5c3.97.69,2.6-1.02,3.03-1.44.37-.36,2.54.27,2.92-.13.16-.17-.13-1.03.16-1.3.95-.91,3.29-2.32,4.27-3.21.32-.29,0-1.26.12-1.37,1.21-1.24,1.91,1.29,1.52,2.7-.19.7-2.15-.52-1.53,1.76,1.18-.21,3.25.31,4.22.03.62-.17.1-1.36.27-1.53,1.28-1.28,1.49,1.3,1.6,1.39,1.05.92.72.66,1.51,1.49.29.31,1.31-.13,1.42.39.1.46.1,5.09,0,5.44-.2.7-2.15-.52-1.53,1.77,1.23.22,3.52-.84,3,1.25-1.93-.07-1.18,1.17-1.63,1.62-.13.14-2.62,1.6-2.76,1.73-.28.27,0,1.14-.16,1.31-.38.41-2.52-.25-2.9.15-.16.17.12,1.04-.15,1.31-.45.43-1.71-.35-1.64,1.61-1.01-.01-1.18.39-1.25-.74-.22-3.46.76-1.72,1.39-2.37.13-.14,1.58-2.63,1.71-2.78.33-.36,1.27.16,1.4-.35-.01-1.01.39-1.18-.74-1.25-3.6-.22-1.75.9-2.29,1.44-.31.31-2.02-.11-2.69.02-.56.11-.09,1.27-.3,1.48-.37.36-2.54-.27-2.92.13-.16.17.13,1.04-.15,1.31-.25.24-1.03-.02-1.28.22-.28.27,0,1.14-.15,1.31-.33.35-1.99-.09-2.68.04-.56.11-.09,1.27-.3,1.48-.37.36-2.54-.27-2.92.13-.16.17.13,1.03-.16,1.3-.95.91-3.29,2.32-4.27,3.21-.11.1-.3,2.64-1.6,1.39-.11-.1-.07-2.81.08-2.95.17-.16,1.03.12,1.3-.16,2.51-2.62,4.86-4.97,7.49-7.48.56-.53-.67-2.05,3.11-1.39v-1.49c-.86.15-4.16-.26-4.46.05-.18.18.12,1.21-.06,1.38-.36.36-2.57-.25-2.93.11-.21.21.27,1.36-.3,1.47-1.05.21-9.88.21-10.93,0-.57-.11-.1-1.27-.3-1.47-.37-.36-2.54.27-2.92-.13-.16-.17.13-1.03-.16-1.3-2.12-2.03-3.96-3.87-5.99-5.99-.27-.28-1.14,0-1.31-.16-.4-.38.23-2.55-.13-2.92-.18-.18-1.21.12-1.39-.06-.36-.36.25-2.57-.11-2.93-.21-.21-1.37.26-1.48-.3-.13-.68.29-2.38-.02-2.69-.18-.18-1.22.12-1.39-.06-.33-.34.23-2.1-.1-2.44-.17-.17-1.2.12-1.39-.06-.35-.34.15-3.3-.02-4.18-.11-.57-1.27-.1-1.47-.3-.36-.36.25-2.58-.11-2.93-.18-.18-1.2.12-1.38-.06-.33-.33.16-2.75-.05-2.96-.19-.19-2.1.17-2.72.04-.53-.11-.08-1.12-.36-1.44s-1.41-.02-1.41-.09c0-1.07-.27-7.22,0-7.48Z"/>
      <path class="cls-1" d="M95.9,120.79c1.43-1.89.85,4.25,1.05,4.46s1.36-.26,1.47.3c.18.88-.33,3.83.02,4.18.21.21,1.36-.26,1.47.3.18.88-.33,3.84.02,4.18.18.18,1.21-.12,1.38.06.36.36-.25,2.57.11,2.93.42.42,2.14-.93,1.44,3.02-4.42.31-2.46-.13-2.96-2.72-.11-.57-1.27-.09-1.47-.3-.36-.36.25-2.58-.11-2.93-.18-.18-1.2.12-1.38-.06-.4-.39.24-4.55-.05-5.63-.14-.54-1.01-.27-1.01-.33v-7.48Z"/>
      <path class="cls-1" d="M71.95,126.77v13.46h-2.99v-11.97c0-.07,1.12.22,1.41-.09.48-.51-.71-1.88,1.58-1.41Z"/>
      <path class="cls-1" d="M147.77,65.94c.38.42-1.1,2.19,3,1.5v1.49h-8.98c-.07,0,.22-1.12-.09-1.41-.51-.48-1.89.71-1.41-1.58,1.08.2,7.23-.28,7.48,0Z"/>
      <path class="cls-1" d="M70.46,45c-.02-2.24-.4-6.85-.03-8.7.11-.57,1.27-.09,1.47-.3.3-.3-.08-2.28.06-2.96h1.49v7.48c0,.08-1.37-.3-1.53.27-.22.8.3,3.92.03,4.22-.07.08-1.1-.03-1.5,0,.02,1.61-.3,4.38-.03,5.71.12.6,1.45-.05,1.56.55.29,1.49-.36,3.95-.07,5.44.11.57,1.27.1,1.47.3.36.36-.25,2.58.11,2.93.18.18,1.2-.12,1.38.06.11.11.16,2.86.05,2.96-1.3,1.25-1.49-1.3-1.6-1.39-.92-.83-.75-.71-1.51-1.49-.27-.28-1.13,0-1.3-.16-.39-.36.13-3.28-.04-4.17-.12-.6-1.45.05-1.56-.55-.16-.82-.3-9.82.03-10.2.07-.08,1.1.03,1.5,0Z"/>
      <path class="cls-1" d="M98.39,42v16.46c0,.22-2.39-.95-1.49,2.99h-2.5c-.69-3.95,1.01-2.59,1.44-3.03.37-.37-.2-4.49.07-5.61.09-.38.88-.31.98-.69.37-1.55-.35-9.78.01-10.13h1.49Z"/>
    </g>
  </g>
</svg>