<?xml version="1.0" encoding="UTF-8"?>
<svg id="Layer_2" data-name="Layer 2" xmlns="http://www.w3.org/2000/svg" viewBox="0 0 215.22 195.74">
  <defs>
    <style>
      .cls-1 {
        fill: #ec2027;
        stroke: #ed1c24;
        stroke-miterlimit: 10;
        stroke-width: 4px;
      }
    </style>
  </defs>
  <g id="Layer_1-2" data-name="Layer 1">
    <path class="cls-1" d="M168.56,8.91c3.56,2.61,9.24,7.68,14.43,8.5,4.15.66,10.82-2.28,15.98.86,2.29,1.4,1.76,5.12,3.01,6.79,1.84,2.46,7.6,3.13,10.19,8.8,3.51,7.68-2.69,6.36-4.13,8.07-3.38,3.99-5.44,14.83-9.5,19.6-10.25,12.03-30.11,11.7-38.67,18.09-4.21,3.15-6.63,10.14-9.37,14.18-1.38,2.03-4.91,3.58-6.32,6.67-2.66,5.8.87,11.65-.02,16.88-.44,2.57-3.68,5.33-3.59,6.63.12,1.62,5.89,4.23,4.01,8.11-1.68,3.47-6.33,2.94-8.78,6.98-2.8,4.6-1.99,11.31-5.93,16.25-3.39,4.25-9.65,4.67-12.41,8.47-3.43,4.72-2.81,13.6-5.24,19.55-.78,1.92-6.49,10.39-7.82,10.42-6.04.11,4.07-11.6,4.82-13.42,1.12-2.72,3.93-14.66,3.68-16.98-.03-.26-3.13-3.29-3.92-3.5.83,9.77-2.82,19.56-8.5,27.39-6.32-4.79.51-8.29,2.38-14.57,3.81-12.73-1.92-7.97-9.21-11.22-8.7-3.88-7.14-14.87-10.19-21.13-.87-1.79-3.62-2.72-4.27-4.88-1.38-4.61,1.86-10.83.42-14.76-1.22-3.34-6-6.32-5.84-9.78.1-2.13,3.71-5.17,2.56-8.48,6.73,4.76,2.63-7.5,1.59-10.07-5.19-12.74-10.95-12.64-17.85-19.99-4.61-4.91-7.45-13.98-13.32-19.3-3.76-3.4-9.61-6.39-14.52-7.67s-18.07-1.25-19.86-2.32c-2.43-1.45-1.93-5.85-3.07-8.08-.98-1.93-7.84-4.84-7.27-7.43,3.75-6.5,13.38-7.06,20.17-6.66,5.67.34,11.47,4.04,15.76,4.51,6.77.75,17.81-1.52,25.95.03,2.84.54,4.09,3.44,5.21,3.55,1.99.18,6.39-4.37,9.24-4.84,3.65-.6,6.46,1.19,9.05,1.02,9.72-.65,23.87-2.79,31.96-8.26,3.67-2.48,7.91-9.2,10.5-11.64,1.1-1.04,5.71-3.31,7.15-3.26l19.85,8.92c4.4.67,6.04-6.16,11.69-2.01ZM153.3,12.41c-.56-.79-16.83-6.42-18.29-6.03-3.86,1.03-13.87,13.87-11.7,19.05,3.78-3.15,6.4-3.24,6.53-9.12l1.96,5.23c6.55-1.68,13.07-2.62,19.24-5.56,1.34-.64,3.37-2.03,2.27-3.57ZM176.8,25.43c3.65-8.62-2.28-7.79-8.3-10.61-1.47-.69-3.09-3.38-4.07-3.4-.32,0-5.68,2.07-5.91,2.29-2.03,1.92.81,2.31,1.65,2.97,6.43,5.03,14.64,8.32,15.33,17.89l6.5-4.57c-7.03-2.4,1.69-4.1,3.91-7.83-5.7-3.45-4.86,3.52-9.12,3.26ZM118.08,85.46v20.23c0,1.24-3.81,8.65-.01,9.78,1.04-19.2,10.09-32.84,5.18-52.79-.47-1.9-2.52-3.74-2.53-3.97-.03-.48,1.92-2.86,3.26-.67,1.03,1.69,3.31,13.86,3.35,16.35.21,13.5-7.63,26.78-5.98,39.78,6.12-9.89,11.3-23.44,12.41-35.22l1.3,7.82,5.19-5.22c-.3,4.17-3.82,7.45-4.92,11.38-.35,1.23-1.27,4.62,1.01,4.27,2.89-8.1,6.78-15.88,11.36-23.15,2.47-3.92,7.87-11.31,10.85-15.33,4.44-5.98,18.18-15.59,14.16-24.54-1.86-4.13-10.38-14.34-14.88-15.19-6.52-1.23-23.29,3.74-30.08,6.27-9.5,3.55-17.42,11.91-28.6,12.01-2.56.02-5.25-1.5-7.54-1.16-3.19.48-5.22,4.27-7.78,5.3-12.07,4.89-17.82-5.47-27.83-6.8-5.26-.7-10.33,2.48-15.27.99-3.62-1.09-5.21-6.45-7.54-8.13-7.01-5.05-16.89-2-24.71-1.39-.86,6.48,7.27,4.01,11.77,5.19,15.11,3.98,57.46,33.77,66.85,46.64,6.97,9.54,9.79,22.08,11.43,33.63,2.39-.69,2.49-1.74,2.08-3.94-2.24-12.22-5.03-24.42-12.53-34.56,3.34-2.05,5.61,4.07,6.75,6.29,8.18,15.84,7.9,35.78,10.21,53.08,4.29-3.37,1.85-12.09,2.61-16.96l2.58,6.51,1.33-26.09c2.41.5,2.38,2.57,2.65,4.52.27,1.98-1.34,7.02,1.24,7.22-.68-4.26,1.22-8.24,1.44-12.39.18-3.43-3.57-8.02,1.19-9.79ZM121.99,20.23c-11.64,4.83-23.7,8.27-36.53,7.82l1.3,5.2c-6.78,1.07-2.22-2.3-3.2-3.92-3-4.94-13.62,4.35-16.92,4.01-1.1-.11-.95-3.14-2.87-3.81-.8-.28-15.61-1.44-16.89-1.36-2.46.15-2.09,2.3-6.75,1.58-4.22-.65-1.41,3.58,4.05,3.4,3.56-.12,8.07-2.7,11.62-2.22,6.78.91,14.28,9.01,21.81,8.86l-1.28-5.21c.68-.82,6.11,7.53,2.61-2.61,6.25,9.09,6,1.72,12.45,1.35,4.05-.23,6.52,1.94,12.41.68,1.24-.26,9.71-3.31,10.07-3.71.51-.57.02-2.01.31-2.54,1.07-1.99,5.26.49,3.9-4.91l2.58,3.9,1.32-6.5ZM197.6,21.59c-.28-.28-7.42-1.56-7.76-1.36-.4.24,2.08,4.5-5.23,5.88-.34,4.53,6.37-2.9,5.21,3.25-5.79-2.76-7.57,5.1-10.07,6.65-1.83,1.14-4.14-.33-4.25-.14-1.12,1.89-1.8,12.91-3.83,16.12-.58.92-5.7,3.15-7.99,5.38-5.35,5.23-9.08,13.87-14.89,19.03l-11.13,22.13c8.48-7.85,13-19.58,22.26-26.66,3.71-2.84,9.31-5.05,13.39-7.49,2.31-1.38,6.23-5.59,8.08-6.28,2.1-.78,2.73.92,1.31,2.62-3.38,4.04-15.27,8.91-20.24,11.73-.32,2.32,2.91,1.26,4.25,1,9.52-1.87,18.43-5.4,26.07-11.49s7.43-12.22,11.42-20.24c-7.28-3.07,3.85-.96,3.93-5.15.03-1.52-6.06.5-8.53-1.94-3.29-3.25-1.22-12.22-2-13.01ZM30.64,37.19l-16.94-5.23v7.83c4.38-1.19,9.44-.05,13.38-.32,1.04-.07,3.94-.62,3.57-2.28ZM71.51,70.65c-1.38-1.93-.55-3.6-1.24-4.79-3.37-5.72-12.64-7.51-16.79-13.02-.97-.21-.89,1.37-.64,1.93.63,1.37,7.73,11.3,9.16,13.03,4.53,5.52,11.74,9.55,15.44,15.88,6.13,10.48,4.76,24.75,14.52,33.09-1.94-13.64-6.55-26.24-13.5-38.02-1.97-3.35-5.26-5.74-6.95-8.1ZM82.82,76.35c-1.13-.77-3.18-.4-2.53,1.85,1.05,3.6,7.05,11.64,9.13,16.98s4.87,14.55,5.96,20.27c.63,3.32-2.64,7.88,3.12,7.83-2.37-10.81-3.39-21.94-7.45-32.33-.77-1.96-7.21-13.9-8.23-14.6ZM125.89,129.82c2.04-2.28,4.5-19.24,6.53-23.49-3.58.08-14.9,16.62-13.04,18.26,5.05-3.59,3.35,8.75,6.51,5.22ZM89.36,129.82l-3.84-13.76-5.25-8.4c-5.66,7.26-.64,5.41,1.24,8.84,2.44,4.47,1.76,12.06,7.86,13.32ZM135.83,124.14c2.91-3.97,5.26-7.33,4.42-12.59-.29-.4-1.55.67-1.96,1.29-1.92,2.96-4.31,12.23-6.16,15.34-.6,1.01-4.41,1.73-5.56,4.27-1.21,2.66.48,9.5-4.47,6.42-2.31-1.43-.37-9.76-.74-10.42-.16-.28-4.94-3.6-5.25-3.6-2.65.01-9.73,10.28-7.17,14.09-13.44-2.65-1.69-26.1-17.65-2.6l-7.8-6.51c-2.38-.98-2.3,1.65-1.93,3.23,1.01,4.3,4.92,3.27,5.23,7.18,1.98.1,1.28-5.35,3.28-1.3,1.06,2.16-1.14,4.27-.67,6.53l3.89-2.61.03,6.52,2.58-2.6c-.8,7,1.57,4.68,3.59,5.75.31.17.33,1.96,1.19,2.11,4.79.86,7.2-5.17,8.3,3.87l5.19-5.21,1.3,5.2,2.64-5.2,1.29,3.91c13.34.03,9.69-17.1,14.27-22.58,1.98-2.37,5.96-1.5,7.9-4.19-2.33-.36-3.39-4.08-4.67-4.33-1.04-.21-2.71,1.49-3.15,1.08-2.25-2.15,1.82-2.72,2.08-3.07Z"/>
  </g>
</svg>