<?xml version="1.0" encoding="UTF-8"?>
<svg id="Layer_2" data-name="Layer 2" xmlns="http://www.w3.org/2000/svg" viewBox="0 0 191.66 102.07">
  <defs>
    <style>
      .cls-1 {
        fill: #ec2027;
        stroke: #ed1c24;
        stroke-miterlimit: 10;
        stroke-width: 4px;
      }
    </style>
  </defs>
  <g id="Layer_1-2" data-name="Layer 1">
    <path class="cls-1" d="M141.96,3.38l-3.89,9.13c3.73-2.69,5.09-5.46,10.24-5.81,6.03-.41,12.92,4.68,16.5,4.65,2.93-.02,4.54-2.94,7.49-2.57,6.29.79,6.83,6.05,10.2,9.52,1.26,1.3,3.88,1.49,5.1,2.71,3.52,3.52,2.32,10.83-1.93,12.37-1.1.4-.38-4.82-4.93-3.69-3.01.75-10.72,9.79-16.32,12.46-8.48,4.05-24.52,2.4-28.98,12.79-1.39,3.24,9.46,2.5,3.92,6.54-.61.45-5.62-.68-7.84-.02-5.38,1.61-9.07,6.6-13.45,8.73-2.71,1.32-9.54,2.14-9.89,2.5-.5.52-.09,3.57-.75,5.07-3.38,7.62-8.07,12.16-5.93,22.17l-2.62-6.51-3.27,6.51c-5.05-.57-1.11-6.21-1.99-11.02-.76-4.21-6.87-9.51-6.62-14.92-10.77,2.79-12.41-4.01-18.67-6.76-8.19-3.61-9.99,2.54-17.71,2.69-2.22-2,8.26-7.54,9.48-8.13,1.12-.53,9.08-.92,6.17-3.59-.55-.51-12.43-4.21-14.31-4.63-5.69-1.26-13.53-1.04-18.38-2.5-1.12-.34-20.26-9.13-21.25-9.74-1.48-.92-1.91-4.7-4.07-6.69-3.58-3.31-9.53-1.26-4.03-9.16.84-1.21,6.09-6.28,7.34-7,2.15-1.23,7.37-1.86,7.62-2.17,1.3-1.63-3.03-7.19,6.31-8.76,3.23-.54,5.35.61,7.52.42,1.6-.14,2.41-2.37,6.16-1.79,5.73.89,14.46,7.56,20.57,8.93-1.24-4.23-9.87-7.52-11.1-10.43-1.67-3.92,4.1-1.11,5.25-1.21,3.24-.29,7.34-2.05,10.15-1.21,3.25.97,3.33,6.27,6.74,6.36,2.55.07,4.24-2.65,6.04-3.2,6.77-2.09,15.7-2.11,22.68-.7,3.8.77,4.54,4.83,7.94,5.23.57.07,10.85-.13,11.42-.26,1.91-.44,3.67-3.98,7.06-4.74,4.73-1.06,10.93.21,16.04-1.57ZM92.38,52.96v-26.1c1.94-.11,2.31,4.69,2.45,6.03.95,9.23.21,18.54,2.78,27.9,5.38-8.13,16.19-7.29,16.97-18.26l1.3,3.9,2.61-5.2c3.4.84.02,7.08-1.32,8.6-1.63,1.86-3.14.73-3.29.82-4.75,2.63,3.73,5.49,6.6,1.06,1.15-1.78.32-5.42,1.22-7.92,1.46-4.07,4.85-6.39,5.93-10.4,5.89,3.06-.4,13.07-3.93,16.32,4.77,3.99,7.2-3.29,11.39-5.57,8.35-4.56,14.98-.05,24.09-3.31,7.36-2.63,12.94-11.19,18.07-13.25,2.38-.95,9.12-.33,9.1-1.37-.07-3.56-5.34-3.82-7.26-5.78s-1.46-4.73-4.07-6.39c-5.13-3.24-8.07,1.84-12.76,1.15-2.57-.38-3.5-2.94-5.62-3.63-19.61-6.43-12.24,9.47-26.41,15.31l5.22-18.25c-13.36-5.03-12.25,4.15-14.37,14.35-6.46,1.05,1.29-9.28,0-10.44h-16.96c-.89.87,1.95,14.15-2.59,15.64-.63-2.75,1.03-5.81.84-8.29-.29-3.77-4.49-8.3.45-9.32-1.06-3-13.37-4.85-16.26-4.56-2.34.23-3.66,2.54-5.79,3.15-1.76.5-9.89,2.17-11.09,2.06-7.54-.68-5.95-10.59-13.82-4.57,6.6,5.4,14.29,16.41,12.4,25.44-4.62-4.67-8.78-12.07-14.27-15.68-1.87-1.23-14.26-6.83-16.31-7.21s-3.22,1.56-4.94,1.73c-1.96.2-3.84-.93-5.65-.47-4.2,1.07-3.43,5.3-5.73,7.36-2.05,1.83-6.94,2.14-8.96,3.74-1.89,1.5-1.37,4.02-2.54,4.99-1.11.91-3.85.25-4.86,2.28,5.11,1.44,8.41,7.85,11.2,9.65,2.27,1.46,5.53,1.28,7.94,2.49,3.11,1.57,11.64,7.31,14.01,6.87,1.25-.23-.32-3.32,2.7-2.72,1.16.23.17,1.94,1.61,2.57,3.71,1.61,14.49,2.91,18.61,2.02-2.7-2.64-6.4-3.93-9.15-6.51-1.64-1.54-1.93-2.71.64-1.96,1.09.32,18.16,11.56,18.97,12.35,2.91,2.84-1.06,8.02,3.89,7.19-.35-3.06-.79-5.96-2.19-8.78-.95-1.91-8.88-7.11.88-4.27-.76-4.21-4.39-6.6-5.15-11.16-.45-2.69-.58-3.7,2.54-3.19.07,1.9,3.45,12.58,3.94,13.05,4.02,3.75,1-4.67,1.3-5.22,1.34,1.13,4.92-.2,5.13.01,1.37,1.31,1.4,13.2,10.51,11.73ZM89.46,55.88c-1.51-.87-10.49-1.96-12.73-.97,3.85,1.63,5.45,5.54,7.95,7.71.52.45,9.03,3.6,6.39,5.99-.69.63-15.54-4.29-17.91-4.92-1.27-.34-4.59-1.31-4.26,1,8.38,3.43,16.44,8.29,26.07,6.53l.37,6.83,3.54,12.75c-1.92-8.46,8.58-12.96,3.92-20.86,6.85-1.55,13.47-7.89,16.97-14.35l-15.67,1.3c1.17,1.8.08,4.9.29,5.89.11.53,6.06,1.11-.68,4.84-.96.53-2.24-.23-3.23.19-.4.17.11,2.13-.93,2.15-5.48.12-7.37-12.49-10.09-14.07Z"/>
  </g>
</svg>