<?xml version="1.0" encoding="UTF-8"?>
<svg id="Layer_2" data-name="Layer 2" xmlns="http://www.w3.org/2000/svg" viewBox="0 0 166.86 159.03">
  <defs>
    <style>
      .cls-1 {
        fill: #ec2027;
        stroke: #ed1c24;
        stroke-miterlimit: 10;
        stroke-width: 4px;
      }
    </style>
  </defs>
  <g id="Layer_1-2" data-name="Layer 1">
    <g>
      <path class="cls-1" d="M72.06,97.03l-1.29,13.04c.34-6.92-1.15-14.46-3.02-21.14-.38-1.34-.32-3.95-2.2-3.64.49,8.21,4.18,17.11,2.57,25.41-.81,4.16-5.73,4.63-5.81,11.24,0,.68.79,3.85,1.93,1.83l2.6-5.88,1.3,5.22,2.61-5.21,1.3,6.52,2.61-5.21c1.11,2.74-1.48,7.97-1.07,9.67.37,1.57,4.24,2.96,5.72,4.61,5.06,5.65,4.61,15.09,4.49,22.25l-7.83-1.31,5.22-5.2-11.74,1.28,6.54-3.25-6.54-4.55,11.1,5.2c-.56-5.3-1.72-13.92-9.79-10.44l2.6-3.89c-3.85-.55-13.16-6.71-14.13-10.1-2.4-8.36,6.7-12.22,7.24-16.81.67-5.74-3.35-18.97-6.89-23.91-3.57-4.98-9.59-6.96-12.3-12.49l10.42-2.59c-1.13-4.24-3.19-2.06-4.55-3.18-3.78-3.09-7.01-7.19-11.74-9.24-2.92,1.11-2.58,17.93-9.71,12.96-2.98-2.08,1.13-14.62,3.74-17.6.65-.74,10.25-7,4.65-7.07-1.1-.01-5.41,3.96-6.53,5.16-3.33-7.64-3.32-.19-7.81-1.28-3.2-.78-.49-5.02-.68-5.21-2.41-2.36-2.67,2.65-3.39,2.71-1.65.14-5.13-1.98-5.74-1.43-.85.78-.51,11.13-3.34,11.73-10.68-3.7-9.81-10.51-1.94-17.66,3.69-3.35,12.36-5.1,13.1-5.83,5.41-5.35-10.38.06-11.1.12-16.94,1.24-12.12-12.23,3.26-9.24.05-2.87-5.07-.37-6.38-1.41-.15-.12-1.37-3.17-.87-3.83,4.81-6.28,23.08.62,24.06-.14.47-.36.54-2.56,1.44-3.18.5-.34,7.84-2.14,10.12-3.51.94-.56,1.2-3.35,2.92-4.3,3.12-1.72,6.08,1.22,8.35.61,1.56-.42,7.36-11.64,9.95,1.42,3.12-3.66,5.38-1.12,8.16-1.6,2.38-.41,4.66-2.14,7.01-2.31,4.01-.29,5.75,2.54,7.44,2.39,2.17-.2,4.46-3.85,7.46-1.79,1.08.74,1,5.25,3.75,3.19.43-.32-.92-4.64,5.64-1.08,1.43.78.89,2.43,1,2.51.73.48,2.38-2.63,4.54-2.6,1.49.02,2.78,1.92,3.9,1.99,8.67.54,11.42-2.63,19.49,2.75,2.9,1.93,4.38-.89,3.37,7.01.78.92,21.28-10.44,13.04,6.52,10.67-.56,16.14,2.15,14.08,13.39-.7,3.82-3.25,3.53-3.36,3.79-.18.41,1.19,6.94-.29,8.93-4.96-1.32-5.11-6.38-10.86-8.18-2.71-.85-3.54-.23-6.09.37,10.8,7.2,18.7,13.93,4.56,23.44-3.21-2.5-.05-4.52-2.08-8.23-.96-1.77-6.11-7.23-7.69-6.09-.29,4.37-1.91,5.71-6.11,6.3-3.79.53.03-3.84-3.03-3.69,1.75,8.93-2.75,8.18-7.39,13.09-4.61-1.2-7.72-2.74-10.89,1.92,6.12,1.19-3.55,8.43-6.15,13.42-2.87,5.51-7.2,21.27-5.17,26.83.85,2.32,3.36,3.48,4.61,5.59,7.93,13.41-9.27,12.08-12.85,20.7l3.9,1.93c-2.92-.03-7.42,2.2-5.13,5.14.38.49,4.97-.14,5.14,2.69l-6.51-1.29c-.05,2.1.79,11.7-1.97,11.72-3.58.02-.23-17.84.59-20.26,2.75-8.06,7.91-6.59,12.45-11.03,7.37-7.22-1.52-8.91-2.97-13.98-3.18-11.11,3.75-25.9,8.85-35.59-8.49-2.8-4.68,2.87-9.11,6.51-.65-4.51-3.26-6.48-5.69-9.33-.73-.86-.59-2.69-1.24-3.32-.91-.89-3.41-.62-4.23-1.61-3.91-4.72,4.59-4.21,6.85-6.97,2.42-2.95-.19-8.13,4.29-7.46.07,2.67.18,5.85-1.23,8.22-1.33,2.24-6.04,2.2-6.58,4.8,4.24-.77.93,4.4,4.57,3.96s4.53-5.54,8.46-5.23l.65,6.51c4.33-4.67,7.85-9.49,11.09-15.01.23-.75-6.51-2.17-6.49-3.9.01-1.57,10.06-12.12,5.2-.66l3.9-1.29c1.18,1.42-5.35,9.59,5.22,2.61,1.22,2.51-4.29,10.03-3.9,10.42.14.14,3.37.91,3.93.69,5.39-2.14,4.9-16.98,13.02-9.81-3.83-4.7,4.4-6.72,7.83-4.57,2.17,1.35,10.63,18.13,10.55,6.52-.02-3.45-5.68-8.23-8.6-9.24-1.69-.59-3.8,1.33-5.79.08-.28-.17-4.16-4.07-3.98-5.16.91-1.79,10.45-3.16,12.54-3.16,5.59.02,8.84,5.78,12.25,1.81-.62-7.32-9.35-6.68-14.93-5.77-3.01.49-4.81,2.56-7.12,3.14-1.37.34-3.68-.95-4.05-.6-.48.46,1.27,10.88-1.38,13-.4.32-8.35-1.12-10.37.03.64-3.14,2.79-6.41-1.29-7.82l-2.61,5.21c-.44-2.46-1.69-6.79-.7-9.13,1.61-3.79,2.23,1.25,2.54,1.23,1.05-.09,3.55-1.97,4.66-1.22.99.67.86,7.77,1.96,9.13,1.82-5.76,8.08-2.07,4.87-7.49-1.27-2.14-4.75-3.18-4.21-5.56-1,.19-8.61.07-5.22-2.6.36-.28,2.62.73,4.01-.82,1.22-1.36,1.68-8.16,4.44-7.01,6.18,2.58-2.77,8.35-3.24,10.43,2.98-.56,4.3-2.68,5.86-2.64,1.85.05,3.28,2.53,5.22,2.61,4.28.18,9.86-4.7,19-2,1.84.55,3.64,3.58,5.16,2.66.19-6.77-6.05-9.84-12.28-9.64-3.8.12-8.91,4.45-11.21-.78-.73-1.65,11.79-3.29,10.43-7.16-3.53-1.37-12.45,2.68-12.93,6.04-.26,1.84,5.68,5.5-2.71,6.99-1.53-4.64,2.21-12.38,1.37-16.04-.23-.98-7.15-4.74-8.65-4.89-2.42-.25-1.85,2.52-2.5,2.7-3.82,1.02-3.01-2.51-4.12-2.69-3.6-.58-13.29,2.61-14.22,2.51-1.24-.13-1.57-3.5-2.55-3.8-4.96-1.47-1.6,6-8.48,5.24l-.02-7.82c-7.06,8.24-9.17.99-12.33.49s-12.27,4.76-18.1,3.52c-1.86-.4-1.61-4.75-2.19-5.31-1.82-1.74-3.74,4.36-7.73,4.64-1.83.13-4.14-2.88-5.28-2.03-.18.14-.36,3.11-1.26,4.36s-3.14.14-2.67,2.15c3.05.14,7.12-1.46,6.54,2.61,2.52.45.64-3.08,1.37-3.81.6-.6,5.25-.22,6.49.58.95.62,1.01,2.75,1.42,3.07.28.22,4.51-1.68,7-1.19,1.13.22-1.17,6.19,6.39,4.05,1.55-.44.4-6.73,5.28-5.21,2.58.8,5.57,14.62,5.97,1.21,10.04-1.78,7.93,6.34,9.14,7.85.25.32,5.4-2.03,7.82-.02-2.9-2.79-3.3-7.06.94-8.83,9.53-3.99,6.94,2.17,8.21,3.64.48.56,11.09-4.43,14.33-1.31-.68-4.88.78-4.11,5.22-3.91,1,3.8-2.63,2.06-3.69,4.8-1.13,2.92,1.61,6.12-5.9,4.35-1.54-.36,0-3.19-2.14-2.62l-1.98,6.51-.65-6.51c-11.14,3.31-6.55-1.21-7.95-2.44-.39-.34-4.91-.37-5.09-.19-.37.37.17,9.48-1.32,10.46-.97.64-6.95-4.4-6.52,3.89l-3.86-4.83-.05-6.92c-7.39-2.23-1.86,9.89-9.12,10.44,2.98-8-.53-3.89-2.31-5.43-.93-.81-1.22-5.91-1.63-7.6-2.85.46.17,10.64-3.25,10.41-.52-.04-5.86-9.68-7.19-3.2-.35,1.71,4.45,4.84,1.96,7.15-6.76.3-5.34-8.95-4.57-13.05-5.38-1.99-2.74,11.42-6.5,7.82-1.13-1.09-1.49-8.36-1.33-10.43-3.88-.75-2.12,2.8-4.48,5.28-.61.64-4.48,2.76-4.63,2.55.88-7.91-.16-5.82-6.53-7.83l2.59,13.04c-1.03,1.13-5.57-2.97-5.96-3.91-.63-1.53,4.06-3.51-1.22-6.52-1.53,5.47-4.62,1.05-8.16.33-4.75-.97-9.79-1.66-14.66-1.63,1.6,3.95,8.37,1.26,11.12,3.87,3,2.84.29,7.54.62,7.85.69.64,15.17-6.29,15.65,3.92-5.21-2.18-8,.58-11.43,1.08-2.08.3-4.03-.69-5.64-.32-8.4,1.94-20.69,7.4-14.22,17.5,2.89-1.83,2.11-8.7,6.1-10.18,2.53-.94,7.81-.6,10.84-1.56l.02,5.23c4.32-3.63,9.36-1.12,14.86-3.86,7.31,6.49-5.43,9.36-7.67,14.33-1.46,3.24-.45,7.03-.66,10.41,2.21-.16,1.17-3.65,2.49-5.97,1.59-2.79,4.98-7.62,8.57-7.14.5.07.92,4.99,3.26,2.68,1.62-1.61.05-9.21,10.45-6.51-7.15,8.69-1.53,17.32,7.82,20.86l1.95-5.21c2.93,5.12,7.29.8,9.15,6.53-.58-3.14,3.85-9.24,4.47-4.61.17,1.31-2.06,5.96.11,8.5l-5.23.03,2.6,5.2c-7.69,2.11-3.28-8.5-3.9-9.12-.28-.28-7.48-1.56-7.78-1.3-.15.14-.63,3.11-1.36,3.9,5.74-3.99,4.88,3.89,1.93,5.22s-3.14-6.58-5.84-6.5c.77,3.1-2.8,9.17.65,10.43.4.15,1.13-6.57,4.66,1.86,1.43,3.42,2.92,9.36,3.82,12.49l-.66-11.74c4.39,5.88,3.81,15.06,4.59,22.17l3.89-7.82c1.52,6.28-1.56,7.24-3.92,11.73l-2.61-13.47c.1-1.09-1.27-.79-1.29-.87Z"/>
      <path class="cls-1" d="M56.15,34.03c.49-.42.13-2.13.27-2.22.82-.53,2.08,2.22,3.22,2.23.99,0,2.59-2.83,4.57-2.24,1.5,12,11,2.23,11.73,2.62.19.1,2.63,3.29,2.67,3.51.36,2.43-1.01,4.61-1.35,6.91l-1.29-5.21c-3.42-1.16-3.48,3.61-3.93,3.9-2.45,1.57-3.18-2.78-4.28-3.5-8.62-5.62-21.93,1.7-21.79-10.84,1.94-2.21,5.84,8.58,10.18,4.84Z"/>
      <path class="cls-1" d="M109.9,35.69c1.68,1.59,7.15-6.91,7.83-1.92.52,3.8-3.16,5.62-6.53,4.55l1.29,5.21c-2.03-1.28-8.08-6.34-7.72-8.3.26-1.41,5.97-6.8,5.77-9.96,3.92,3.23,1.2,7.06-.65,10.42Z"/>
      <path class="cls-1" d="M73.35,52.65c-.87,1.27-5.03-.22-5.16,0-.85,1.48-.3,8.64-.67,9.15-4.37,5.84-6.7-8.74-3.35-11.19l5.27.75c-1.24-8.21,6.02-1.79,3.92,1.28Z"/>
      <path class="cls-1" d="M87.71,60.48c4.31-6.52-2.78-9.36-2.6-15.64,12.7-3.32,6.13,19.4,2.6,15.64Z"/>
      <path class="cls-1" d="M105.98,51.36c-2.1.16-5.5.29-6.51-1.98-1.55-3.49,4.44-.09,3.92-3.91-.35-2.54-5.36-5.69-3.93-7.16,2.96-3.04,9.16,9.71,6.51,13.05Z"/>
      <path class="cls-1" d="M86.39,73.57c.14.1-.39,2.2,1.66,3.04,2.38.98,4.74-.66,4.88-.46,1.73,2.59-1.81,5.5-4.46,5.32-.78-.05-.71-2.17-.99-2.31-1.21-.62-6.52,3.32-3.65-4.86-.28-1.25,2.31-.92,2.57-.72Z"/>
      <path class="cls-1" d="M94.14,35.76c3.19,2.33,1,7.05-4.25,6.53-.35-.03-4.97-4.07-2.67-5.27.83-.44,6.41-1.64,6.93-1.26Z"/>
    </g>
  </g>
</svg>