<?xml version="1.0" encoding="UTF-8"?>
<svg id="Layer_2" data-name="Layer 2" xmlns="http://www.w3.org/2000/svg" viewBox="0 0 203.15 96.41">
  <defs>
    <style>
      .cls-1 {
        fill: #ec2027;
        stroke: #ed1c24;
        stroke-miterlimit: 10;
        stroke-width: 4px;
      }
    </style>
  </defs>
  <g id="Layer_1-2" data-name="Layer 1">
    <g>
      <path class="cls-1" d="M100.42,88.88c.01.57,1.64,2.09,1.32,3.88-.17.96-2.21,2.74-3.3.71-3.82-7.17.06-28-1.8-30.53-.97-1.32-6.18-1.22-8.8-2.59-4.55-2.38-7.26-12.64-12.29-15.74-5.31-3.28-15.27-5.16-21.22-3.12-3.31,1.13-7.87,15.73-17.03,14.22-6.61-1.09,4.52-18.23,5.71-20.96-2.03-1.56-18.85,7.93-22.71,6.6-2.98-4.18-1.54-8.6-.79-13.14-5.08,1.27-11.8,6.19-16.99,3.3-2-1.12,2.39-8.61,3.35-9.78,8.3-10.09,14.63-5.11,23.57-4.04,6.9.82,14.33-4.23,19.85-6.31,11.93-4.5,6.86-1.94,14.97,1.46,4.14,1.74,9.2,1.26,12.68,4.29-9.5,2.25-16.95-8.26-26.09-4.56-.66,4.05,3.74,2.36,6.47,4.61,1.51,1.24,2.1,3.75,3.98,5.15,1.55,1.15,13.87,5.27,11.72,8.49-.67,1.01-16.66-2.66-23.99,1.45-2.85,1.6-12.56,19.08-11.22,20.74,7.69.19,10.69-11.95,14.33-13.71.8-.38,15.67-2.04,17.57-2,13.48.3,13.69,19.06,24.6,21.21,6.4,1.27,15.48-2.11,22.43-.17,3.52.52,8.71-5.72,8.56-8.57-.03-.52-5.45-1.51-.73-8.51,4.8-3.98-1.99,6.94,1.95,6.52-.01-2.61,2.91-3.99,3.55-6.08.27-.87-1.03-2.81-.89-2.98.43-.49,4.98.22,5.18-2.67-3.68-.61-7.11,1.5-10.75,1.06-3.33-.4-8.32-4.78-9.49-4.69-1.86.13-4.37,6.62-7.16,4.28,1.88-8.55,10.89-4.25,11.52-4.72.49-.37.66-2.59,2.27-3.63,4.24-2.73,8.72-2.88,13.61-7.3,8.54-7.72,5.17-14.23-6.26-12.12l-15.92,19.27c-1.8-4.22,3.21-6.68,3.61-8.62.13-.66-.72-12.9-1.16-13.4-2.33-2.63-8.05-.45-9.55,2.48-1.94,3.79-.16,8.98-.75,13.01l-2.26-3.57-.97-10.77c-2.68,2.53-5.55,10.26-4.68,13.56.54,2.05,8.97,1.43,10.37,2.27.96.58,1.33,8.66,1.46,10.25-2.87.09.78-5.74-4.42-3.77-4.09,1.55-2.45,9.25-10.81,9.92-9.07.72-8.41-20.21,2.2-17.9-.45-8.84-16.8.73-18.24,4.62l9.1,8.43c-3.84.63-6.2-2.22-9.11-3.91-1.37,1.95,3.25,6.77-5.23,5.21,4.75-12.3,5.47-19.18,20.28-20.59,1.11-.11,3.05,1.17,3.19,1.03.37-.35.67-7.55,2.53-9.89,2.8-3.52,5.27-.32,7.19-.74,1.62-.36,1.52-3.54,2.91-3.84.47-.1,9.2,1.08,9.53,1.43.49.52-1.12,12.09.04,14.32,6.55-5.04,6.86-13.4,17.48-11.71.45.07,7.04,2.32,7.31,2.6.24.25-2.57,6.47.64,6.49,1.1,0,15.92-13.08,18.74-2.96,2.1,7.55-7.63,5.95-10.25,10.8,11.15-.81,24.57-12.06,35.61-8.84,7,2.04,7.4,13.31-3.54,12.7-3.63-.2-9.62-5.25-12.49.05,4.25-.3,7.25,3.23,11.16,3.85,7.8,1.23,20.49-6.22,18.97,7.28-.39,3.49-7.29,4.91-10.56,3.24.86,24.54-13.38-.93-18.11-1.94-4.05-.86-13.09,1.88-17.73,1.99-5.59.13-14.99-2.52-18.96-.69-6.08,2.8-6.59,16.8-14.1,20.13-7.49,3.32-9.9-4.36-10.74,12.42-.23,4.64.87,8.28,1.01,12.17.25,7.07-5.97,1.64-6.21.66-1.42-5.63.43-18.45-1.29-25.19h-4.53c-1.87.21.63,1.67.63,1.97,0,8.68-.23,17.42,0,26.1ZM159.13,15.13c.08-8.76-12.15-1.11-16.09,1.55-3.11,2.1-5.15,5.19-8.27,7.39-3.66,2.57-22.16,9.35-10.27,10.73,6.65.78,7.83-1.93,11.89-2.6,10.63-1.75,21.35-3.08,31.89-5.33l-1.3-2.56c5.34-3.66,14.81.81,18.62-.22,7-1.88,1.75-8.92-4.72-8.56-5.06.28-20.29,7.54-26.91,9.45-4.5,1.3-10.21,1.09-14.71,2.25-4.85,1.25-9.56,5.82-15.34,4.87l35.22-16.98ZM33.87,20.39c-5.44,1.53-10.57-4.28-15.39-3.07-5.94,1.5-12.68,5.73-13.31,12.17,6.66-3.1,10.93-4.71,18.63-4.19l10.06-4.92ZM54.76,17.77c-5.22.15-8.65-2.16-13.84-.15-1.45.56-3.35.37-1.81,2.75.37.58,12.42.17,13.72,0,1.78-.24,4.12-.97,1.93-2.6ZM65.18,25.61c-3.86.67-6.24-2.23-9.71-2.69-9.91-1.32-39.12.19-33.33,15.73l43.04-13.04ZM105.63,25.61c-11.49-1.37-17.41-4.08-14.34,10.44,7.67.71,6.27-4.17,9.04-7.28,2-2.24,5.15-.76,5.3-3.16ZM183.11,36.84c-7.74-7.77-9.46-8.38-21.36-7.32l15.72,9.7c3.66,3.87,2.9,10.03,10.32,8.52,2.33-7.19-.92-7.13-4.69-10.91ZM169.58,37.32c-6.86-8.35-21.92-6.2-30.02-.64,10.42,5.99,19.38.02,30.02.64ZM198.15,32.27c-1.23-1.16-11.86,1.7-14.21,1.8,1.9,2.1,6.76,5.85,9.57,5.59.37-.04,5.88-2.12,6.07-2.38.15-.21-1.24-4.82-1.43-5Z"/>
      <path class="cls-1" d="M117.39,45.18c5.38-3.94,1.09,6.69-.67,7.81-.82-.8,1.32-13.64-2.59-11.73s-3.36,10.95-7.18,13.04c1.32-5.89-2.94-9.98-2.61-15.65l3.24,6.51,9.78-7.82.02,7.84Z"/>
      <path class="cls-1" d="M100.41,49.09c-2.83-1.79-2.02-1.08-3.24,1.29-5.74-5.81-8.39-13.19.63-3.91l.65-5.21,1.96,7.82Z"/>
    </g>
  </g>
</svg>