<?xml version="1.0" encoding="UTF-8"?>
<svg id="Layer_2" data-name="Layer 2" xmlns="http://www.w3.org/2000/svg" viewBox="0 0 188.56 179.77">
  <defs>
    <style>
      .cls-1 {
        fill: #ec2027;
        stroke: #ed1c24;
        stroke-miterlimit: 10;
        stroke-width: 4px;
      }
    </style>
  </defs>
  <g id="Layer_1-2" data-name="Layer 1">
    <g>
      <path class="cls-1" d="M86.68,3.68c1.04.88,2.19,5.65,1.63,6.2-14.2-2.21-5.02,10.16,1.97,14.35,1.52-7.63,8.34-11.92,11.04-19.03,7.67,1.64,12.26-3.73,19.61-3.16-1.02,8.77,1.96,2.97,3.95,4.43.55.4,5.66,10.51,6.33,12.05,2,4.64,4,9.71,4.08,14.85.86.89,14.58-7.79,23.94-2.37,1.75,1.02,2.03,3.67,2.92,3.72,1.04.07,3.11-1.39,5.1-1.36,2.15.03,11.41.23,12.44.53,12.67,3.72,5.95,16.87-5.25,16.44l-.02-6.51c-12.91,2.76-18.18,15.06-22.21,26.72-8.48,24.54-12.92,58.41-31.72,77.24-10.42,10.44-29.18,8.36-24.37,29.13-1.6,2.1-2.37-.01-2.61-1.93s-1.17-15.64-.74-16.34c1.64-2.71,9.41-2.69,12.48-3.92l-5.2-1.93c1.98-2.26,4.88-2.54,7.07-4.68,2.54-2.49,8.48-16.49,12.5-11.63,1.64,1.98-5.3,6.74-3.26,9.12,7.9-8.52,13.83-17.99,18.21-28.76,5.67-13.97,13.06-53.25,19.37-62.19.52-.74,12.25-11.42,13.3-12.14,1.73-1.18,13.58-6.69,13.68-1.95.05,2.36-3.79.48-3.88.65-3.64,7.09,12.42,4.18,3.85-3.2-3.82-3.29-18.26-1.01-23.43.58,3.7-6.09-6.44-6.09-11.12-5.81-5.99.36-10.51,3.1-9.76,9.74l2.58.62c-2.47,2.83-2.96,6.12-2.58,9.8,2.83-2.17,3.05-6.17,5.83-9.15,1.57-1.68,2.27-2.17,1.97.66-3.26,3.97-6.72,13.52-7.5,18.6-.74,4.78.32,9.62-.33,14.02-2.9,19.59-6.37,42.57-19.54,58.09,5.69-15.21,12.86-30.24,15.49-46.48,1.87-11.56,2.68-60.06-4.47-68.33-1.13-1.31-3.29-.93-4.57-2.26-3.5-3.65-4.76-7.82-7.12-12.08-2.67,1.13-1.58,6.08-1.97,6.51-.62.7-8.93-2.41-10.41-3.93-.44,4.23-5.03,6.01-7.14,9.2-6.69,10.1.24,12.07,2.2,21.82,15.99,4.86,22.32,1.61,28.04,19.59,7.63,24.02.42,26.06-5.79,45.66-3.71,11.7-2.2,19.91-8.95,31.5-2.41,4.15-7.81,13.43-12.29,12.51,13.19-11.67,13.23-27.17,17.87-42.15,5.88-18.98,14.1-22.34,6.6-44.97-1.11-3.36-6.25-17.29-8.14-10.09-9.81-7.32-24.41,10.01-30.68-6.53,7.87,2.56,10.45,8.53,18.24.65-7.53-5.54-17.19-4.64-26.06-3.25.49,2.76,11.58,2.54,4.87,5.55-5.89,2.64-5.64-2.55-9.46-2.95-.97-.1-9.9,1.01-10.69,1.65-2.17,1.77-9.27,14.87-10.2,17.9-6.64,21.76,4.28,32.6,11.74,50.94,2.95,7.26,4.4,17,7.56,23.76,1.9,4.07,7.51,8.63,8.24,11.42.97,3.67-4.15,4.47,5.76,3.94-.82,7.29,4.81,13.58,2.6,22.17-2.4.59-.46-2.66-1.94-2.62-1.26.03-.3,1.81-.89,2.26-5.51,4.16-2.3-3.79-2.59-6.45-1.88-17.09-20.78-19.07-31.75-28.41-13.38-11.4-27.61-53.63-30.5-71.28-.59-3.6-1.85-24.32-2.78-25.28-4.7,1.62-9.24,3.14-14.32,3.32-1.81.06-1.65,1.42-1.35-1.37.44-4.18,2.47-4.13,3.6-6.84,1.39-3.33-.32-7.53,4.55-9.79,8.52-3.96,11.21,2.71,16.35,4,3.1.78,5.17-.93,7.35-.72s3.55,2.84,6,2.27c-.13-5.86,4.55-16.78,9.16-20.21,1.77-1.31,24.31-13.15,25.73-13.43,2.67-.54,9.82-.29,11.76,1.34ZM81.79,7.25c.5-.79-1.67-2.56-3.2-2.59-4.53-.11-17.46,9.86-17.69,15.66-5.45-1.7,1.48-4.69-.63-7.82-9.54,7.22-12.74,17.1-13.72,28.69-2.34.29-1.26-2.93-1.13-4.39.29-3.13,1.41-6.69,1.82-9.94.18-1.38,1.82-4.21-.67-3.92-4.72,13.04-4.86,28.6-3.98,42.45.5,7.83,1.94,20.36,5.93,26.69,1.15-4.38-1.74-9.38-1.69-13.7.13-11.71,10.54-37.85,23.96-39.72,3.93-.55,6.92.88,10.12.74,3.06-.13,9.76-2.17,11.8-1.76,1.7.35,2.4,3,4.73,2.24-1.52-12.55-23.02-16.48-19.02-30.12.94-3.2,3.24-2.32,3.36-2.51ZM12.96,36.93c-.61-.94-.28-2.43-.34-3.55-1.38-1.58-5.76,11.21-5.2,11.73,3.67.35,6.54-2.45,9.13-4.57.62-2.51-2.81-2.41-3.59-3.61ZM29.14,40.38c-3.69-3.18-8.84-6.96-13.88-7-.51,2.02,1.99.98,2.64,2.17,3.92,7.26,2.53,13.84,3.79,20.6.27,1.46,3.24.21,3.83.82.48.49,2,10.12,3.12,13.26,2.33,6.5,7.16,13.09,8.89,18.52,3.54,11.13,4.3,24.5,9.84,35.83,2.3,4.7,13.39,13.85,7.05,15.13,1.96,1.22,9.9,8.56,11.74,7.17l-1.29-11.72,3.92,3.25-6.87-19.24-11.4-23.15c.97,12.32,7.38,22.73,13.02,33.29.18,1.1-2.41.75-2.57.62-.91-.77-9.63-18.64-10.72-21.27-6.95-16.78-9.79-34.58-11.28-52.64-.41-4.92,2.77-18.7-4.77-18.78-6.52-.07,1.28,4.38-2.62,6.54-1.18-.79-1.46-2.58-2.42-3.4ZM41.33,118.18l-6.11-23.23-12.13-32.87c1.28,16.28,6.06,31.78,12.8,46.55l5.44,9.55Z"/>
      <path class="cls-1" d="M93.53,145.59c-4.9-3.19-2.42-12.71-1.21-17.53l14.26-29.44c-2.43,16.29-16.13,29.3-13.05,46.97Z"/>
      <path class="cls-1" d="M90.92,150.81c-11.59-11.39-3.51-27.48-5.19-41.75,1.99-.17,1.92,4.73,2.02,6.16.84,11.43-2.97,23.96,3.17,35.59Z"/>
      <path class="cls-1" d="M83.09,141.67c-1.94.33-1.62-2.44-1.95-3.89-1.81-7.89-2.87-15.56-.63-23.5,2.26-.31,1.24,2.97,1.29,4.54.27,7.69.71,15.21,1.29,22.84Z"/>
      <polygon class="cls-1" points="90.92 89.47 89.64 79.7 92.22 68.61 90.92 89.47"/>
    </g>
  </g>
</svg>