<?xml version="1.0" encoding="UTF-8"?>
<svg id="Layer_2" data-name="Layer 2" xmlns="http://www.w3.org/2000/svg" viewBox="0 0 191.79 168.07">
  <defs>
    <style>
      .cls-1 {
        fill: #ed1c24;
        stroke: #ed1c24;
        stroke-miterlimit: 10;
        stroke-width: 4px;
      }
    </style>
  </defs>
  <g id="Layer_1-2" data-name="Layer 1">
    <path class="cls-1" d="M91.53,2.16c3.86-.61,2.47.71,3.08,1.4.29.32,1.41.02,1.41.09v8.98c2.28.5,1.11-.97,1.58-1.41.27-.25,1.17.03,1.34-.13.39-.37-.23-2.56.13-2.92.18-.18,1.21.12,1.39-.06.32-.31-.12-2.02.02-2.69.11-.52,1.15-.08,1.44-.37.26-.27-.02-1.15.14-1.33.33-.35,3.57.09,4.44-.08v11.97h1.49c-.67-3.77.85-2.55,1.39-3.1,1.06-1.1,1.89-1.94,3-2.99.55-.53-.67-2.06,3.1-1.38v7.48c0,.22-2.38-.95-1.5,2.99.7.7,4.01-1.85,3,2.99h1.49c-1-4.85,2.28-2.29,3-2.99.25-.25-.3-4.11.05-4.46.45-.44,2.12.96,1.44-3.03h1.49v7.48c0,.07-1.26-.17-1.44.03-.32.36.11,2-.03,2.69-.11.56-1.27.09-1.48.3-.36.37.27,2.54-.13,2.92-.17.16-1.06-.13-1.33.14-.29.29.15,1.33-.37,1.44-.86.18-3.8-.35-4.17.04-.16.17.12,1.06-.14,1.33-.29.29-1.33-.15-1.44.37-.14.68.32,2.34-.04,2.67-.17.16-1.04-.13-1.31.15-.24.25.02,1.03-.22,1.28-.27.28-1.15,0-1.31.15-.38.37.21,2.08-.13,2.43-.17.17-1.2-.12-1.39.06-.35.34.15,3.3-.02,4.18-.12.6-1.45-.05-1.56.55-.22,1.1.29,2.84.07,3.94-.12.6-1.45-.05-1.56.55-.3,1.55.29,4.01.03,5.71,1.28-.19,3.06.26,4.22.03.6-.12-.05-1.45.55-1.56.83-.16,7.65-.17,8.43,0,.51.11.08,1.13.39,1.42.71.67.83.81,1.5,1.5.27.28,1.14,0,1.31.16.36.34-.1,1.99.04,2.67.08.4,1.89-.13,1.81,1.8h22.89c.18-2.76,2.45-1.09,4.49-1.5.57-.11.1-1.27.3-1.47.34-.34,2.05.15,2.69-.02.16-.04.51-2.8,1.76-1.53.12.12-.18,1.25.03,1.44.36.33,2.74-.17,2.97.05.32.31-.47,5.88.28,6,1.2-.2,2.85.24,3.93.03.6-.12-.05-1.45.55-1.56,1.89-.37,5.05.44,6.94.07.6-.12-.05-1.45.55-1.56,1.49-.29,3.94.36,5.44.07.6-.12-.05-1.45.55-1.56.89-.18,3.81.34,4.17-.04.16-.17-.12-1.04.16-1.31.25-.24,1.03.02,1.28-.22.3-.29-.13-1.31.38-1.42,1.5-.32,4.04.3,5.71.04v7.48c-2.02-.53-1.23,1.01-1.6,1.39-.27.27-1.15,0-1.31.15-.4.38.23,2.55-.13,2.92-.21.21-1.36-.27-1.47.3-.22,1.1.3,2.87.07,3.94-.11.51-1.13.08-1.42.38-.24.25.02,1.03-.22,1.28-.27.28-1.14,0-1.31.15-.41.38.25,2.52-.15,2.9-.17.16-1.04-.13-1.31.15-.24.25.02,1.03-.22,1.28-.27.28-1.14,0-1.31.15-.41.38.25,2.51-.16,2.9-.16.16-1.03-.13-1.31.16-2.51,2.62-4.86,4.97-7.48,7.48-.28.27,0,1.14-.16,1.31-.38.41-2.52-.25-2.9.16-.16.17.13,1.04-.15,1.31-.25.24-1.03-.02-1.28.22-.3.29.13,1.31-.38,1.42-1.07.23-2.84-.29-3.94-.07-.57.11-.1,1.27-.3,1.47-.36.36-2.58-.25-2.93.11-.18.18.12,1.21-.06,1.38-.36.36-2.57-.25-2.93.11-.21.21.27,1.36-.3,1.47-1.1.22-2.84-.29-3.94-.07-.6.12.05,1.45-.55,1.56-1.1.22-2.84-.29-3.94-.07-.6.12.05,1.45-.55,1.56-1.1.22-2.84-.29-3.94-.07-.6.12.05,1.45-.55,1.56-1.49.29-3.95-.36-5.44-.07-.57.11-.1,1.27-.3,1.47-.36.36-2.58-.25-2.93.11-.18.18.12,1.22-.06,1.39-.28.27-1.89-.11-2.63.06-.37.09-.3.89-.68.98-.69.16-2.5-.14-2.65,0-.22.21.28,2.63-.05,2.96-.21.21-1.36-.27-1.47.3-.66,3.31.54,8.88.07,12.48-.12.92-.93.65-1.03,1.06-.22.95.26,3.79-.07,4.11-.18.18-1.21-.11-1.38.06-.36.36.27,2.54-.13,2.92-.17.16-1.03-.13-1.31.16-.13.14-1.59,2.63-1.72,2.77-.27.28-1.14,0-1.3.16-.38.36.15,2.72-.08,2.95s-2.59-.3-2.95.08c-.16.17.12,1.03-.16,1.3-.14.13-2.63,1.59-2.77,1.72-.31.29.13,1.31-.39,1.42-.81.17-3.99-.27-4.22-.04s.28,2.63-.05,2.96c-.18.18-1.21-.12-1.38.06-.36.36.25,2.58-.11,2.93-.18.18-1.21-.12-1.39.06-.65.64,1.18,3.25-1.59,3.24l.07,18.9c-1.94-.08-1.39,1.72-1.81,1.81-1.51.32-4.04-.3-5.71-.04v-16.46c0-.08-1.37.3-1.53-.27-.35-1.28.35-4,.07-5.44-.11-.57-1.27-.1-1.47-.3-.36-.37.27-2.54-.13-2.92-.17-.16-1.03.13-1.31-.16-1.54-1.61-2.88-2.95-4.49-4.49-.28-.27,0-1.14-.16-1.31-.34-.36-1.99.1-2.67-.04-.51-.1-.08-1.13-.38-1.42-.25-.24-1.03.02-1.28-.22-.28-.27,0-1.14-.15-1.31-.38-.41-2.52.25-2.9-.16-.16-.16.13-1.03-.16-1.31-2.12-2.03-3.96-3.87-5.99-5.99-.27-.28-1.14,0-1.31-.16-.68-.65,1.15-3.23-1.61-3.22-.34-2.41.6-18.42-.06-19.12-.1-.11-2.58-.95-2.77-1.19-.31-.37.09-1.3-.4-1.4-.68-.14-2.37.3-2.69-.02-.18-.18.12-1.2-.06-1.38-.34-.35-3.3.15-4.18-.02-.6-.12.05-1.45-.55-1.56-.82-.16-3.35.32-3.69-.02-.21-.21.26-1.36-.3-1.47-1.88-.37-5.05.44-6.94.07-.6-.12.05-1.45-.55-1.56-2.68-.52-7.25.59-9.93.07-.6-.12.05-1.45-.55-1.56-1.1-.22-2.84.29-3.94.07-.6-.12.05-1.45-.55-1.56-.88-.17-3.84.33-4.18-.02-.18-.18.11-1.21-.06-1.38-.36-.36-2.54.27-2.92-.13-.16-.17.13-1.04-.15-1.31-.25-.24-1.03.02-1.28-.22-.28-.27,0-1.14-.16-1.31-.37-.4-3.3.14-4.17-.04-.51-.11-.08-1.13-.38-1.42-.25-.24-1.03.02-1.28-.22-.28-.27,0-1.14-.15-1.31-.38-.41-2.52.25-2.9-.16-.16-.16.13-1.03-.16-1.31-2.12-2.03-3.96-3.87-5.99-5.99-.27-.28-1.14,0-1.31-.16-.4-.38.23-2.56-.13-2.92-.18-.18-1.21.12-1.39-.06-.36-.36.25-2.58-.11-2.93-.18-.18-1.21.12-1.39-.06-.36-.36.25-2.58-.11-2.93-.18-.18-1.21.12-1.39-.06-.36-.36.25-2.57-.11-2.93-.21-.21-1.36.27-1.47-.3-.18-.89-.38-11.29.03-11.7.21-.2,2.14.2,2.73.04s.12-1.37.27-1.53c1.29-1.28,1.49,1.3,1.6,1.39.26.23,1.04-.03,1.29.21.28.27,0,1.14.15,1.31.38.4,2.56-.23,2.92.13.18.18-.12,1.21.06,1.39.36.36,2.57-.25,2.93.11.21.21-.27,1.36.3,1.47,3.7.71,2.46-1.46,2.99-1.56,3.75-.72,2.48,1.28,2.72,1.53.05.05,1.44.05,1.49,0,.14-.13-.14-1.36,0-1.5,1.32-1.23,1.58,1.48,1.77,1.53.85.24,3.78-.36,4.19.02.37.35-.78,1.97,1.52,1.45.22-.21-.22-4.49,0-4.49h8.98c.07,0-.17,1.26.03,1.44.41.37,2.57-.25,2.93.12.18.18-.12,1.2.06,1.38.15.15,3.69.19,4.19.09.57-.11.09-1.26.3-1.47.37-.38,4.65.18,5.68-.02.6-.12-.05-1.45.55-1.56,2.94-.58,7.98.64,10.93.07.6-.12-.05-1.45.55-1.56.89-.18,3.81.34,4.17-.04.16-.17-.12-1.04.16-1.31.25-.24,1.03.02,1.28-.22.3-.29-.13-1.31.38-1.42,1.45-.31,3.95.36,5.44.07.6-.12-.05-1.45.55-1.56,3.71-.7,2.45,1.46,2.99,1.56,1.54.31,4.02-.29,5.71-.03-.25-1.7.34-4.16.03-5.71-.12-.6-1.45.05-1.56-.55-.22-1.1.29-2.84.07-3.94-.12-.6-1.45.05-1.56-.55-.16-.82.32-3.35-.02-3.69-.18-.18-1.21.12-1.38-.06-.31-.31.11-2.02-.02-2.69-.11-.56-1.27-.09-1.48-.3-.36-.37.27-2.54-.13-2.92-.17-.16-1.06.13-1.33-.14-.29-.29.15-1.33-.37-1.44-.68-.14-2.34.31-2.68-.04-.16-.17.13-1.06-.14-1.33s-1.15.02-1.33-.14c-.41-.38.17-4.6-.04-5.67-.12-.6-1.45.05-1.56-.55-.12-.63-.13-4.83,0-5.44.11-.52,1.15-.08,1.44-.37s-.15-1.33.37-1.44c.48-.1,3.46-.1,3.94,0,.51.11.08,1.13.38,1.42.25.24,1.04-.02,1.29.21.48.44-.66,1.89,1.6,1.39V5.15c0-.07,1.09.22,1.41-.08.42-.4-.59-1.92,1.33-1.42-.11,2.04,1.31,1.2,1.67,1.54.42.4-.27,4.03.13,4.41.18.18,1.21-.12,1.38.06.36.36-.25,2.58.11,2.93.18.18,1.2-.12,1.38.06.39.38-.28,4.02.11,4.43.2.21,1.32-.09,1.44.03,1.27,1.26-1.48,1.6-1.53,1.77-.93,3.35,1.49,2.63,1.56,2.99.22,1.1-.29,2.84-.07,3.94.11.57,1.27.1,1.47.3.36.36-.25,2.58.11,2.93.43.42,2.13-.95,1.44,3.02h1.49v-11.97c0-.07-1.1.24-1.39-.1-.23-.27.03-1.04-.21-1.29-.29-.3-1.31.13-1.42-.38-.09-.42-.09-3.6,0-3.94.16-.57,1.53-.19,1.53-.27V2.16ZM106.49,17.11c-2.27-.49-1.11.97-1.58,1.41-.3.28-1.34-.16-1.44.36-.14.68.3,2.38-.02,2.69-.18.18-1.2-.12-1.38.06-.38.37.19,4.62-.02,5.68-.11.57-1.26.09-1.47.3-.29.29.06,2.28-.06,2.96,4.86.96,2.23-2.15,3.05-2.96.18-.18,1.2.12,1.38-.06.35-.34-.15-3.3.02-4.18.12-.6,1.45.05,1.56-.55.3-1.55-.28-4.01-.04-5.71ZM90.03,46.54v-10.47c0-.07-1.25.17-1.44-.03-.35-.39.14-2.84-.03-3.68-.12-.6-1.45.05-1.56-.55-.22-1.1.29-2.84.07-3.94-.12-.6-1.45.05-1.56-.55-.19-.99.29-5.46.04-5.71-.21-.2-2.14.2-2.73.04-.7-.19.52-2.15-1.76-1.53.25,1.69-.34,4.17-.04,5.71.11.57,1.26.09,1.47.3.35.35-.15,3.3.02,4.18.11.57,1.27.1,1.47.3.36.36-.25,2.58.11,2.93.18.18,1.22-.12,1.39.06.33.34-.23,2.1.1,2.44.2.2,1.36-.27,1.48.3.29,1.49-.36,3.95-.07,5.44.12.6,1.45-.05,1.56.55.16.81-.26,4-.03,4.22h1.49ZM112.48,21.6c-.79.13-4.31-.18-4.49,0-.22.22.2,3.4.04,4.22-.12.6-1.45-.05-1.56.55-.22,1.1.29,2.84.07,3.94-.12.6-1.45-.05-1.56.55-.27,1.36.34,3.58.07,4.94-.11.57-1.26.09-1.47.3-.11.11-.16,2.86-.06,2.96,1.32,1.27,1.48-1.31,1.58-1.41.27-.25,1.17.03,1.34-.13.34-.33-.09-2,.04-2.68.11-.56,1.26-.09,1.47-.3.34-.34-.14-2.87.02-3.69.11-.57,1.27-.1,1.47-.3.36-.37-.27-2.54.13-2.92.17-.16,1.04.12,1.31-.15.24-.25-.02-1.03.22-1.28.27-.28,1.14,0,1.31-.16.35-.33-.08-3.57.08-4.44ZM94.52,89.93c.28.25-.2,6.4,0,7.48,2.26.49,1.11-.96,1.6-1.39.94-.85.73-.68,1.51-1.49.29-.31,1.31.13,1.42-.39.31-1.44-.36-3.95-.07-5.44.12-.6,1.45.05,1.56-.55.37-1.89-.44-5.05-.07-6.93.12-.6,1.45.05,1.56-.55.21-1.07-.37-5.28.04-5.66.17-.16,1.04.12,1.31-.16.24-.25-.02-1.03.22-1.28.27-.28,1.14,0,1.31-.15.4-.38-.23-2.55.13-2.92.21-.21,1.37.26,1.48-.3.13-.69-.31-2.34.04-2.68.17-.16,1.04.12,1.31-.15.24-.25-.02-1.03.22-1.28.29-.3,1.31.13,1.42-.38.13-.62-.23-2.53-.04-2.72.22-.22,2.59.3,2.95-.08.16-.17-.12-1.03.16-1.3,1.1-1.06,1.94-1.89,3-2.99.27-.28,1.13,0,1.3-.16.39-.36-.13-3.28.05-4.17.11-.57,1.26-.09,1.47-.3.29-.29-.06-2.28.06-2.96-1.7.25-4.16-.34-5.71-.03-.6.12.05,1.45-.55,1.56-2.26.44-5.88-1.36-5.99,1.5h-18.91c-.17-2.75-2.5-1.11-4.49-1.5-.6-.12.05-1.45-.55-1.56-1.44-.28-4.19.42-5.44.07-.17-.05-.51-2.8-1.77-1.53-.12.12.18,1.25-.03,1.44-.34.31-2.01-.13-2.69.01-.52.11-.08,1.15-.37,1.44-.4.39-2.17-.71-1.44,2.81.11.51,1.13.08,1.42.39,2.51,2.64,4.86,4.96,7.48,7.48.28.27,0,1.14.16,1.31.34.36,1.99-.1,2.67.04.52.1.07,1.15.37,1.44.27.26,1.16-.02,1.33.14.4.38-.23,2.56.13,2.92.18.18,1.21-.12,1.39.06.36.36-.25,2.58.11,2.93.18.18,1.21-.12,1.39.06.36.36-.25,2.57.11,2.93.21.21,1.36-.27,1.47.3.18.88-.33,3.84.02,4.18.18.18,1.21-.12,1.38.06.36.36-.25,2.57.11,2.93.21.21,1.36-.27,1.47.3.18.88-.33,3.84.02,4.18.18.18,1.21-.12,1.38.06.36.36-.25,2.52.12,2.93.2.23,1.32-.08,1.44.03ZM63.07,54.08c-.29-.29-7.44-.24-8.18-.09-.57.11-.09,1.26-.3,1.47-.35.35-3.3-.15-4.18.02-.6.12.05,1.45-.55,1.56-1.03.2-5.31-.35-5.68.02-.21.21.27,1.36-.3,1.47-.65.13-4.79.13-5.44,0-.57-.11-.09-1.26-.3-1.47-.29-.29-2.28.06-2.96-.06.26,1.7-.34,4.17-.03,5.71.11.57,1.27.1,1.47.3.36.36-.25,2.58.11,2.93.18.18,1.21-.12,1.39.06.36.36-.27,2.54.13,2.92.17.16,1.06-.13,1.33.14.29.29-.15,1.33.37,1.44.62.13,2.54-.22,2.72-.04s-.2,2.81,0,3c.22.22,2.59-.3,2.95.08.16.17-.12,1.04.15,1.31.25.24,1.03-.02,1.28.22.28.27,0,1.14.15,1.31.38.41,2.52-.25,2.9.15.16.17-.13,1.04.15,1.31.25.24,1.03-.02,1.28.22.28.27,0,1.14.15,1.31.38.4,2.55-.23,2.92.13.21.21-.27,1.36.3,1.47.82.16,3.35-.32,3.69.02.18.18-.12,1.21.06,1.38.36.36,2.57-.25,2.93.11.21.21-.27,1.36.3,1.47,1.49.3,3.95-.36,5.44-.07.57.11.1,1.27.3,1.47.37.36,2.54-.27,2.92.13.16.17-.12,1.04.15,1.31.25.24,1.03-.02,1.28.22.28.27,0,1.14.15,1.31.38.41,2.52-.25,2.9.16.16.16-.13,1.03.16,1.31.14.13,2.63,1.59,2.77,1.72.28.27,0,1.14.16,1.31.34.36,1.99-.1,2.67.04.52.1.07,1.15.37,1.44.27.26,1.16-.02,1.33.14.35.33-.09,1.99.04,2.68.11.56,1.27.09,1.48.3.37.37-.29,2.44.15,2.9.1.11,2.57.95,2.78,1.19.31.37-.09,1.3.4,1.4,3.52.73,2.42-1.04,2.81-1.44.29-.29,1.33.15,1.44-.37.1-.48.1-2.95,0-3.44-.11-.57-1.26-.09-1.47-.3-.35-.35.15-3.3-.02-4.18-.12-.6-1.45.05-1.56-.55-.22-1.1.29-2.84.07-3.94-.12-.6-1.45.05-1.56-.55-.22-1.1.29-2.84.07-3.94-.12-.6-1.45.05-1.56-.55-.22-1.1.29-2.84.07-3.94-.12-.6-1.45.05-1.56-.55-.29-1.49.38-3.99.07-5.44-.11-.51-1.13-.08-1.42-.38-.24-.25.02-1.03-.22-1.28-.29-.3-1.31.13-1.42-.38-.19-.86.36-3.79-.04-4.16-.17-.16-1.03.12-1.3-.16-2.03-2.11-3.87-3.96-5.99-5.99-.28-.27,0-1.14-.16-1.31-.38-.4-2.55.23-2.92-.13-.21-.21.26-1.37-.3-1.48-.69-.13-2.34.31-2.68-.04-.16-.17.12-1.04-.15-1.31-.25-.24-1.03.02-1.28-.22-.28-.27,0-1.14-.15-1.31-.38-.4-2.56.23-2.92-.13-.18-.18.12-1.2-.06-1.38ZM23.19,57.01c-.51-.55-12.94,0-14.96,0-.07,0,.11-1.39,0-1.49-1.38-1.23-1.79,1.37-1.53,2.72.11.57,1.26.09,1.47.3.35.35-.15,3.3.02,4.18.11.57,1.27.1,1.47.3.36.36-.25,2.58.11,2.93.18.18,1.2-.12,1.38.06.35.34-.15,3.3.02,4.18.11.57,1.27.1,1.47.3.36.37-.27,2.54.13,2.92.17.16,1.04-.13,1.31.16.66.68.81.84,1.5,1.5.28.27,0,1.14.16,1.31.39.41,2.51-.25,2.9.16.16.16-.13,1.03.16,1.31.9.87,3.37,2.35,4.27,3.22.28.27,0,1.14.16,1.3.36.38,2.72-.15,2.95.08.19.19-.2,2.81,0,3,.22.22,2.63-.28,2.96.05.18.18-.12,1.21.06,1.38.36.36,2.57-.25,2.93.11.21.21-.27,1.36.3,1.47.88.18,3.84-.33,4.18.02.21.21-.26,1.36.3,1.47,1.88.37,5.05-.44,6.94-.07.6.12-.05,1.45.55,1.56,2.28.45,6.15-.51,8.43-.07.6.12-.05,1.45.55,1.56,1.18.23,6.29-.37,6.68.02.21.21-.26,1.36.3,1.47,1.8.36,5.37-.51,6.94-.07.19.05.45,2.75,1.77,1.53.14-.13-.14-1.36,0-1.5,1.32-1.23,1.58,1.48,1.77,1.53,1.42.39,3.95-.31,2.71-1.52-.12-.11-1.11.2-1.4-.1-.25-.27.03-1.17-.13-1.34-.38-.4-2.52.26-2.9-.15-.16-.17.13-1.04-.15-1.31-.25-.24-1.03.02-1.28-.22-.28-.27,0-1.14-.15-1.31-.38-.4-2.56.23-2.92-.13-.18-.18.12-1.21-.06-1.39-.36-.36-2.54.27-2.92-.13-.16-.17.12-1.04-.15-1.31-.25-.24-1.03.02-1.28-.22-.28-.27,0-1.14-.15-1.31-.38-.4-2.56.23-2.92-.13-.18-.18.12-1.22-.06-1.39-.34-.33-2.1.23-2.44-.1-.17-.17.12-1.21-.06-1.39-.36-.36-2.54.27-2.92-.13-.16-.17.12-1.04-.15-1.31-.25-.24-1.03.02-1.28-.22-.28-.27,0-1.14-.15-1.31-.38-.41-2.52.25-2.9-.15-.16-.17.13-1.04-.15-1.31-.25-.24-1.03.02-1.28-.22-.28-.27,0-1.14-.16-1.31-.41-.44-3.98.28-4.39-.16-.16-.17.12-1.03-.16-1.3-.14-.13-2.63-1.59-2.77-1.72-.28-.27,0-1.14-.16-1.3-.36-.38-2.72.15-2.95-.08s.3-2.59-.08-2.95c-.17-.16-1.04.12-1.31-.15-.24-.25.02-1.03-.22-1.28-.29-.3-1.31.13-1.42-.38-.19-.86.36-3.79-.04-4.16-.17-.16-1.03.12-1.3-.16-1.06-1.1-1.89-1.94-3-2.99-.28-.27,0-1.13-.16-1.3-.39-.42-3.32.19-4.17-.05-.61-.17-.13-1.38-.27-1.53ZM155.37,58.51h-23.94c-.21,0,1.12-2.26-2.72-1.53-.6.11.05,1.45-.55,1.56-1.36.27-3.58-.34-4.94-.07-.57.11-.1,1.27-.3,1.47-.37.36-2.54-.27-2.92.13-.16.17.13,1.06-.14,1.33-.29.29-1.33-.15-1.44.37-.14.68.32,2.34-.04,2.67-.16.16-1.03-.13-1.31.16-2.65,2.77-5.05,5.99-7.71,8.76-.27.28-1.14,0-1.31.16-.4.38.23,2.55-.13,2.92-.18.18-1.2-.12-1.38.06-.35.34.15,3.3-.02,4.18-.12.6-1.45-.05-1.56.55-.29,1.49.36,3.94.07,5.44-.12.6-1.45-.05-1.56.55-.17.89-.18,12.28,0,12.9.13.44.88.21,1.32.48.22.14.25.72.56.79.75.17,2.34-.19,2.61.07s-.9,2.22,2.74,1.48c.52-.11.08-1.15.37-1.44s1.33.15,1.44-.37c.11-.55-.21-2.05-.04-2.22.21-.22,2.59.3,2.95-.08.16-.17-.12-1.04.15-1.31.25-.24,1.03.02,1.28-.22.28-.27,0-1.14.15-1.31.34-.36,1.99.1,2.67-.04.51-.1.08-1.13.38-1.42.25-.24,1.03.02,1.28-.22.28-.27,0-1.15.15-1.31.39-.41,2.43.27,2.89-.17.11-.1,1-2.71,1.11-2.81.46-.43,2.54.22,2.91-.14.21-.2-.27-1.37.3-1.48.69-.13,2.34.31,2.68-.04.16-.17-.13-1.03.16-1.31,2.77-2.65,5.99-5.05,8.76-7.71.28-.27,0-1.14.16-1.31.39-.41,2.51.25,2.9-.16.16-.16-.13-1.03.16-1.31,2.63-2.51,4.97-4.86,7.48-7.48.27-.28,1.14,0,1.31-.16.4-.38-.23-2.56.13-2.92.18-.18,1.21.12,1.39-.06.36-.36-.25-2.57.11-2.93.21-.21,1.36.27,1.47-.3.23-1.15-.23-2.94-.03-4.22ZM185.3,57.01h-7.48c-.08,0,.3,1.37-.27,1.53-1.93.53-6.3-.53-8.43-.07-.51.11-.08,1.13-.38,1.42-.25.24-1.03-.02-1.28.22-.3.29.13,1.31-.38,1.42-1.07.23-2.84-.29-3.94-.07-.57.11-.1,1.27-.3,1.47-.37.36-2.54-.27-2.92.13-.16.17.13,1.04-.16,1.31-.68.66-.84.81-1.5,1.5-.27.28-1.14,0-1.31.16-.4.38.23,2.55-.13,2.92-.18.18-1.2-.12-1.38.06-.4.39.3,4.01-.14,4.41-.17.16-1.03-.12-1.3.16-.13.14-1.59,2.63-1.72,2.77-.27.28-1.14,0-1.31.16-.41.39.25,2.51-.16,2.9-.17.16-1.04-.13-1.31.16-.66.69-.81.84-1.5,1.5-.28.27,0,1.14-.16,1.31-.39.41-2.51-.25-2.9.16-.16.16.13,1.03-.16,1.31-.14.13-2.63,1.59-2.77,1.72-.28.27,0,1.14-.16,1.31-.38.41-2.52-.25-2.9.16-.16.17.13,1.04-.15,1.31-.25.24-1.03-.02-1.28.22-.28.27,0,1.14-.15,1.31-.38.41-2.52-.25-2.9.15-.16.17.13,1.04-.15,1.31-.25.24-1.03-.02-1.28.22-.28.27,0,1.14-.15,1.31-.38.41-2.53-.25-2.9.15-.16.17.13,1.06-.13,1.34-.28.3-1.28-.02-1.4.1-1.3,1.27,1.31,1.79,2.71,1.52.57-.11.09-1.26.3-1.47.38-.38,4.62.19,5.68-.02.57-.11.09-1.26.3-1.47.35-.35,3.3.15,4.18-.02.6-.12-.05-1.45.55-1.56,1.1-.22,2.84.29,3.94.07.6-.12-.05-1.45.55-1.56,1.06-.21,5.31.35,5.68-.02.18-.18-.12-1.21.06-1.38.36-.36,2.58.25,2.93-.11.18-.18-.12-1.21.06-1.38.36-.36,2.57.25,2.93-.11.21-.21-.27-1.36.3-1.47,1.1-.22,2.87.3,3.94.07.51-.11.08-1.13.38-1.42.25-.24,1.03.02,1.28-.22.28-.27,0-1.14.15-1.31.38-.4,2.55.23,2.92-.13.21-.21-.26-1.37.3-1.48.68-.13,2.35.31,2.68-.04.16-.17-.13-1.06.14-1.33.29-.29,1.33.15,1.44-.37.13-.62-.22-2.54-.04-2.72s2.81.2,3,0c.22-.22-.3-2.59.08-2.95.17-.16,1.03.12,1.3-.16.86-.9,2.35-3.37,3.22-4.27.27-.28,1.13,0,1.3-.16.43-.4-.26-4.02.14-4.41.18-.18,1.21.12,1.38-.06.36-.36-.25-2.58.11-2.93.18-.18,1.21.12,1.39-.06.33-.33-.15-2.05.02-2.69.19-.69,2.21.48,1.53-1.76ZM78.06,101.4v11.97c0,.08-1.37-.3-1.53.27-.24.86.36,3.79-.02,4.19-.2.21-1.32-.09-1.44.03-.05.05-.05,1.44,0,1.49.12.12,1.25-.18,1.44.03.36.39-.27,2.54.13,2.92.17.16,1.03-.13,1.31.16,2.03,2.12,3.87,3.96,5.99,5.99.65.62-1.09,1.6,2.37,1.38,1.14-.07.73-.24.74-1.25-1.96.07-1.18-1.19-1.61-1.64-.27-.27-1.14,0-1.31-.15-.39-.36.13-3.28-.04-4.17-.12-.6-1.45.05-1.56-.55-.22-1.11-.22-10.33,0-11.42.11-.53,2.28.7,1.56-2.99-.11-.57-1.27-.1-1.47-.3-.36-.37.27-2.54-.13-2.92-.17-.16-1.04.13-1.31-.16-.76-.79-.57-.65-1.5-1.49-.49-.44.66-1.88-1.6-1.39ZM97.51,101.4c-.1-.1-1.09.06-1.49,0,.96,4.86-2.14,2.22-2.95,3.07-.16.17.12,1.03-.16,1.3-1.61,1.54-2.95,2.88-4.49,4.49-.27.28-1.14,0-1.31.16-.4.38.23,2.55-.13,2.92-.21.21-1.36-.27-1.47.3-.15.77-.15,6.16,0,6.93.12.6,1.45-.05,1.56.55.21,1.07-.37,5.28.04,5.66.17.16,1.04-.12,1.31.16.24.25-.02,1.03.22,1.28.27.28,1.14,0,1.31.15.41.38-.25,2.51.16,2.9.16.16,1.03-.13,1.31.16.13.14,1.59,2.63,1.72,2.77.27.28,1.14,0,1.31.16.4.38-.23,2.55.13,2.92.18.18,1.2-.12,1.38.06.35.34-.15,3.3.02,4.18.12.6,1.45-.05,1.56.55.16.81-.26,4-.04,4.22h3c.26-.25-.23-4.72-.04-5.71.12-.6,1.45.05,1.56-.55.37-1.88-.46-5.11-.07-6.93.11-.51,1.13-.08,1.42-.39.13-.14,1.59-2.63,1.72-2.77.27-.28,1.13,0,1.3-.16.4-.37-.14-3.3.04-4.16.11-.51,1.13-.08,1.42-.38.24-.25-.02-1.03.22-1.28.29-.3,1.31.13,1.42-.38.1-.47.1-5.07,0-5.44-.18-.65-1.36.05-1.53-.52-.58-1.93,1.34-1.03,1.5-1.25.05-.06.05-1.44,0-1.49-.12-.12-1.25.18-1.44-.03-.4-.42.3-4.01-.13-4.41-.17-.16-1.03.12-1.3-.16-2.03-2.11-3.87-3.96-5.99-5.99-.28-.27,0-1.14-.16-1.31-.38-.4-2.53.23-2.92-.13-.21-.19.09-1.32-.03-1.44ZM122.95,101.4c-3.77-.67-2.55.86-3.1,1.39-.25.24-1.03-.02-1.28.22-.28.27,0,1.14-.15,1.31-.34.36-1.99-.1-2.68.04-.51.1-.08,1.15-.37,1.44s-1.33-.15-1.44.37c-.79,3.75.82,10.57.07,14.41-.12.6-1.45-.05-1.56.55-.29,1.49.36,3.95.07,5.44-.11.57-1.27.09-1.47.3-.11.11-.16,2.86-.06,2.96,1.29,1.24,1.59-1.48,1.76-1.53.59-.16,2.52.24,2.73.03.22-.22-.3-2.59.08-2.95.17-.16,1.04.12,1.31-.15.24-.25-.02-1.03.22-1.28.27-.28,1.14,0,1.31-.15.4-.38-.23-2.56.13-2.92.18-.18,1.2.12,1.38-.06.35-.34-.15-3.3.02-4.18.12-.6,1.45.05,1.56-.55.52-2.68-.59-7.25-.07-9.93.12-.6,1.45.05,1.56-.55.23-1.16-.22-2.94-.03-4.22Z"/>
  </g>
</svg>