<?xml version="1.0" encoding="UTF-8"?>
<svg id="Layer_2" data-name="Layer 2" xmlns="http://www.w3.org/2000/svg" viewBox="0 0 211 187.5">
  <defs>
    <style>
      .cls-1 {
        fill: #ed1c24;
        stroke: #ed1c24;
        stroke-miterlimit: 10;
        stroke-width: 4px;
      }
    </style>
  </defs>
  <g id="Layer_1-2" data-name="Layer 1">
    <g>
      <path class="cls-1" d="M52.63,11.21c.18-.1,1.1.25,1.41-.09.28-.32-.16-1.33.36-1.44.68-.14,2.37.3,2.69-.02.21-.21-.27-1.36.3-1.47,1.06-.21,5.3.36,5.68-.02.21-.21-.27-1.36.3-1.47,2.27-.45,6.15.51,8.43.07.6-.12-.05-1.45.55-1.56,2.68-.52,7.25.59,9.93.07.6-.12-.05-1.45.55-1.56,3.87-.76,10.55.83,14.42.07.6-.12-.05-1.45.55-1.56,1.31-.26,12.61-.26,13.92,0,.6.12-.05,1.45.55,1.56l26.4-.07c.6.12-.05,1.45.55,1.56,1.89.37,5.06-.44,6.94-.07.57.11.1,1.27.3,1.47.37.36,2.54-.27,2.92.13.16.17-.13,1.06.14,1.33.29.29,1.33-.15,1.44.37.23,1.08-.29,2.84-.07,3.94.11.57,1.27.09,1.47.3.34.34-.17,2.74.05,2.96.6.61,14.74-.52,17.19-.04.6.12-.05,1.45.55,1.57,1.49.29,3.95-.36,5.44-.07.57.11.1,1.27.3,1.47.36.36,2.57-.25,2.93.11.21.21-.27,1.36.3,1.47,1.1.22,2.84-.29,3.94-.07.6.12-.05,1.45.55,1.56.88.17,3.84-.33,4.19.02.18.18-.12,1.21.06,1.38.36.36,2.57-.25,2.93.11.21.21-.27,1.36.3,1.47.81.16,3.99-.26,4.22-.04.32.32.25,8.63-.08,8.94-.17.16-1.06-.12-1.33.14-.29.29.15,1.33-.37,1.44-.68.14-2.37-.3-2.69.02-.21.21.27,1.36-.3,1.47-.88.18-3.84-.33-4.19.02-.21.21.26,1.36-.3,1.47-2.26.45-6.23-.54-8.43-.07-.51.11-.08,1.13-.38,1.42-.25.24-1.03-.02-1.28.22-.28.27,0,1.14-.15,1.31-.38.41-2.52-.25-2.9.16-.16.16.13,1.03-.16,1.31-1.11,1.06-1.93,1.89-3,3-.27.28-1.15,0-1.31.15-.17.17-.06,2.9-1.22,4.3-.2.24-.98.03-1.22.28-.18.18-1.61,2.61-1.74,2.75-.27.28-1.14,0-1.31.16-.41.39.25,2.52-.16,2.9-.17.16-1.04-.13-1.31.16-.87.9-2.35,3.37-3.22,4.27-.53.55-2.06-.66-1.39,3.11,2.55-.38,6.36.49,8.71.03.6-.12-.05-1.45.55-1.56h27.39c.19,2.76,2.41,1.06,4.42,1.54.38.09.31.9.68.98.75.17,2.32-.23,2.61.08.16.16-.13,1.06.13,1.33.29.29,1.33-.15,1.44.36.14.68-.32,2.34.04,2.68.17.16,1.04-.13,1.31.15.24.25-.02,1.03.22,1.28.29.3,1.31-.13,1.42.38.23,1.07-.29,2.84-.07,3.94.12.6,1.45-.05,1.57.55.17.88-.33,3.84.02,4.19.21.21,1.36-.26,1.47.3.22,1.1.22,10.32,0,11.43-.12.6-1.45-.05-1.57.55-.22,1.1.29,2.84.07,3.94-.12.6-1.45-.05-1.57.55-.29,1.49.36,3.95.07,5.44-.11.57-1.26.09-1.47.3-.35.35.15,3.3-.02,4.18-.11.57-1.27.1-1.47.3-.36.36.25,2.57-.11,2.93-.21.21-1.36-.27-1.47.3-.18.88.33,3.84-.02,4.19-.18.18-1.21-.12-1.38.06-.36.36.25,2.58-.11,2.93-.18.18-1.21-.12-1.39.06-.36.36.25,2.58-.11,2.93-.18.18-1.21-.12-1.39.06-.36.36.25,2.58-.11,2.93-.18.18-1.2-.12-1.38.06-.35.34.15,3.31-.02,4.19-.11.57-1.27.1-1.47.3-.31.31.11,2.02-.02,2.69-.11.56-1.28.09-1.48.3-.33.35.23,2.1-.1,2.44-.17.17-1.21-.12-1.39.06-.36.36.27,2.54-.13,2.92-.17.16-1.04-.12-1.31.15-.24.25.02,1.03-.22,1.28-.27.28-1.14,0-1.31.15-.4.38.23,2.56-.13,2.92-.18.18-1.21-.12-1.39.06-.36.36.27,2.54-.13,2.92-.17.16-1.04-.13-1.31.16-.87.9-2.35,3.36-3.22,4.27-.27.28-1.14,0-1.31.16-.41.39.25,2.52-.16,2.9-.17.16-1.04-.13-1.31.16-1.55,1.61-2.88,2.95-4.49,4.49-.28.27,0,1.14-.16,1.31-.39.41-2.52-.25-2.9.16-.16.16.13,1.04-.16,1.31-.14.13-2.63,1.59-2.77,1.72-.28.27,0,1.15-.15,1.31-.37.38-2.05-.23-2.41.14-.16.16.13,1.06-.13,1.33-.29.29-1.33-.15-1.44.37-.14.68.32,2.34-.04,2.68-.17.16-1.04-.13-1.31.16-1.06,1.11-1.89,1.93-3,3-.28.27,0,1.14-.16,1.31-.38.4-2.56-.23-2.92.13-.18.18.12,1.21-.06,1.39-.36.36-2.57-.25-2.93.11-.21.21.27,1.36-.3,1.47-1.88.37-5.05-.44-6.94-.07-.6.12.05,1.45-.55,1.56-3.07.6-8.37-.68-11.43-.07-.57.11-.1,1.27-.3,1.47-.37.36-2.54-.27-2.92.13-.16.17.13,1.03-.16,1.31-.91.87-3.35,2.35-4.27,3.22-.31.29.13,1.31-.39,1.42-.68.15-6.23.14-6.93,0-.54-.11.72-2.27-2.99-1.56-.6.11.05,1.45-.55,1.56-.89.18-3.81-.34-4.17.04-.16.17.12,1.04-.16,1.31-.25.24-1.03-.02-1.28.22-.3.29.13,1.31-.38,1.42-3.7.77-2.5-1.31-2.72-1.53-.05-.05-1.44-.05-1.49,0-.25.25,1.04,2.24-2.72,1.53-.6-.11.05-1.45-.55-1.56-1.09-.21-9.84-.21-10.93,0-.6.12.05,1.45-.55,1.56-.84.16-7.63.17-8.43,0-.52-.11-.08-1.15-.37-1.44s-1.33.15-1.44-.37c-.18-.86.35-3.8-.04-4.17-.17-.16-1.03.12-1.3-.16-1.06-1.1-1.89-1.94-3-3-.28-.27,0-1.13-.16-1.3-.36-.39-3.28.13-4.17-.05-.6-.12.05-1.45-.55-1.56-.55-.11-3.39-.11-3.94,0-.6.12.05,1.45-.55,1.57-.56.11-5.52.17-5.72-.03s.2-2.81,0-3c-.22-.22-2.63.28-2.97-.05-.18-.18.12-1.21-.06-1.38-.36-.36-2.57.25-2.93-.11-.21-.21.27-1.36-.3-1.47-.89-.18-3.81.35-4.17-.04-.16-.17.12-1.04-.16-1.31-.25-.24-1.03.02-1.28-.22-.28-.27,0-1.14-.15-1.31-.38-.41-2.52.25-2.9-.15-.16-.17.13-1.04-.15-1.31-.25-.24-1.03.02-1.28-.22-.28-.27,0-1.14-.15-1.31-.38-.4-2.55.23-2.92-.13-.21-.21.27-1.36-.3-1.47-.89-.18-3.81.35-4.17-.04-.16-.17.12-1.04-.16-1.31-.25-.24-1.03.02-1.28-.22-.28-.27,0-1.15-.15-1.31-.39-.41-2.42.27-2.89-.17-.11-.1-.88-2.43-1.2-2.76-.25-.25-1.02-.03-1.24-.26-.28-.3,0-1.14-.16-1.3-.36-.38-2.72.15-2.95-.08s.21-3.41.04-4.22c-.11-.51-1.13-.08-1.42-.38-.24-.25.02-1.03-.22-1.28-.27-.28-1.14,0-1.31-.15-.4-.38.23-2.56-.13-2.92-.18-.18-1.21.12-1.39-.06-.36-.36.25-2.58-.11-2.93-.18-.18-1.21.12-1.39-.06-.36-.36.25-2.58-.11-2.93-.18-.18-1.21.12-1.39-.06-.36-.36.25-2.57-.11-2.93-.21-.21-1.36.27-1.47-.3-.22-1.08.33-2.96.07-3.93-.08-.29-2.83-1.23-2.94-1.35-.43-.46.22-2.54-.14-2.91-.2-.21-1.37.27-1.48-.3-.13-.68.29-2.38-.02-2.69-.21-.21-1.37.26-1.48-.3-.13-.68.29-2.38-.02-2.69-.18-.18-1.21.12-1.39-.06-.36-.36.25-2.58-.11-2.93-.18-.18-1.21.12-1.39-.06-.36-.36.25-2.58-.11-2.93-.18-.18-1.21.12-1.39-.06-.36-.36.25-2.58-.11-2.93-.18-.18-1.21.12-1.39-.06-.36-.36.25-2.57-.11-2.93-.21-.21-1.36.27-1.47-.3-.22-1.1.29-2.84.07-3.94-.12-.6-1.45.05-1.57-.55-.22-1.1.29-2.84.07-3.94-.12-.6-1.45.05-1.57-.55-.26-1.34-.27-14.65,0-15.91.11-.51,1.13-.08,1.42-.38.24-.25-.02-1.03.22-1.28.27-.28,1.14,0,1.31-.16.4-.37-.14-3.31.04-4.17.11-.51,1.13-.08,1.42-.38.24-.25-.02-1.03.22-1.28.27-.28,1.14,0,1.31-.15.41-.38-.25-2.52.16-2.9.17-.16,1.04.13,1.31-.16.66-.69.81-.84,1.5-1.5.28-.27,0-1.14.16-1.31.38-.4,2.55.23,2.92-.13.21-.21-.27-1.36.3-1.47,1.1-.22,2.84.29,3.94.07.6-.12-.05-1.45.55-1.56,2.68-.52,7.25.59,9.93.07.6-.12-.05-1.45.55-1.56,1.54-.3,15.38-.3,16.92,0,.6.12-.05,1.45.55,1.57,1.16.23,2.94-.22,4.22-.03.71-3.95-1.06-2.62-1.45-3.02-.34-.35.25-2.06-.13-2.43-.16-.15-1.04.13-1.31-.15-3-3.13-5.85-5.98-8.98-8.98-.28-.27,0-1.14-.16-1.31-.39-.41-2.52.25-2.9-.16-.16-.16.13-1.03-.16-1.31-1.98-1.9-4.78-4.31-6.76-6.21-.28-.27,0-1.14-.16-1.31-.38-.4-2.56.23-2.92-.13-.18-.18.12-1.21-.06-1.39-.36-.36-2.57.25-2.93-.11-.21-.21.27-1.36-.3-1.47-1.88-.37-5.06.44-6.94.07-.57-.11-.1-1.27-.3-1.47-.32-.32-2.01.12-2.69-.02-.52-.11-.08-1.15-.37-1.44s-1.33.15-1.44-.37c-.14-.65-.14-6.29,0-6.93.11-.51,1.13-.08,1.42-.39.67-.71.81-.83,1.5-1.5.28-.27,0-1.14.16-1.31.39-.41,2.52.25,2.9-.16.16-.17-.13-1.04.15-1.31.25-.24,1.03.02,1.28-.22.3-.29-.13-1.31.38-1.42,1.45-.31,3.95.36,5.44.07.6-.12-.05-1.45.55-1.56.88-.17,3.84.33,4.19-.02.21-.21-.26-1.36.3-1.47,2.05-.41,6.12.57,7.94.07.57-.16.19-1.53.27-1.53h14.97c.24-1.09-.33-7.3,0-7.48ZM115,6.72h-21.95v1.5h21.95v-1.5ZM100,9.77c-.82-.82-20.27.53-23.15-.09-.6.12.05,1.45-.55,1.56-2.28.45-6.15-.51-8.43-.07-.6.12.05,1.45-.55,1.56-.89.18-3.81-.34-4.17.04-.16.17.12,1.04-.16,1.31-.25.24-1.03-.02-1.28.22-.55.53.67,2.06-3.1,1.39-.49,2.27.97,1.11,1.41,1.58.25.27-.03,1.17.13,1.34.38.4,2.52-.26,2.91.15.16.17-.13,1.04.15,1.31.25.24,1.03-.02,1.28.22.28.27,0,1.14.15,1.31.38.4,2.56-.23,2.92.13.18.18-.12,1.2.06,1.38.34.35,3.31-.15,4.19.02.57.11.1,1.27.3,1.47.36.36,2.58-.25,2.93.11.18.18-.12,1.21.06,1.39.36.36,2.58-.25,2.93.11.18.18-.12,1.2.06,1.38.39.4,4.01-.3,4.41.14.16.17-.12,1.03.16,1.3.14.13,2.63,1.59,2.77,1.72.31.29-.13,1.31.39,1.42s3.42.1,3.94,0c.6-.12-.05-1.45.55-1.57,1.81-.35,5.35.51,6.94.07.65-.18-.05-1.37.52-1.53,1.99-.55.82,1.38,1.52,1.53,3.16.71,9.13-.71,12.43-.07.6.12-.05,1.45.55,1.56.63.12,4.84.13,5.44,0,.52-.11.08-1.15.37-1.44s1.33.15,1.44-.37c.13-.62-.22-2.54-.04-2.72s2.1.16,2.72.04c.57-.11.09-1.27.3-1.48.37-.36,2.54.27,2.92-.13.16-.17-.13-1.04.15-1.31.25-.24,1.03.02,1.28-.22.28-.27,0-1.14.15-1.31.38-.4,2.56.23,2.92-.13.18-.18-.12-1.21.06-1.39.36-.36,2.57.25,2.93-.11.21-.21-.27-1.36.3-1.47.88-.18,3.84.33,4.19-.02.18-.18-.12-1.21.06-1.38.36-.36,2.57.25,2.93-.11.42-.42-.94-2.14,3.03-1.44.66-3.83-.85-2.54-1.41-3.09-.29-.29.15-1.33-.37-1.44-.68-.14-2.36.3-2.69-.01-.21-.19.09-1.32-.03-1.44-1.26-1.27-1.6,1.48-1.77,1.53-.34.09-3.5.09-3.95,0-.57-.11-.1-1.27-.3-1.47-.36-.36-2.57.25-2.93-.11-.21-.21.27-1.36-.3-1.47-1.61-.32-4.67-.48-4.49,1.56h-24.9c-.57-.11-.09-1.26-.3-1.47ZM161.4,20.19c-.13-.11-1.08.06-1.49,0-.97,4.86,2.13,2.23,2.96,3.05.21.21-.27,1.36.3,1.47,1.08.22,2.95-.33,3.93-.07.17.05,1.41,3.01,1.58,3.06,1.61.44,5.1-.42,6.92-.07.6.12-.05,1.45.55,1.56,3.55.69,9.37-.58,13.2-.04v-1.49c-3.98.68-2.6-1.02-3.03-1.44-.36-.36-2.57.25-2.93-.11-.21-.21.27-1.36-.3-1.47-.88-.18-3.84.33-4.19-.02-.21-.21.26-1.36-.3-1.47-.88-.18-3.84.33-4.19-.02-.18-.18.12-1.21-.06-1.38-.36-.36-2.57.25-2.93-.11-.21-.21.27-1.36-.3-1.47-.64-.13-7.46-.13-7.94,0-.65.18.05,1.39-.52,1.53-2.01.49-.98-1.28-1.25-1.5ZM58.62,23.18h-25.45c-.08,0,.3,1.37-.27,1.53-1.49.41-4.75-.4-6.44-.07-.6.12.05,1.45-.55,1.56-.89.18-3.81-.34-4.17.04-.16.17.12,1.04-.16,1.31-.25.24-1.03-.02-1.28.22-.28.27,0,1.14-.15,1.31-.34.36-1.99-.1-2.68.04-.52.11-.08,1.15-.36,1.44-.45.47-1.9-.69-1.41,1.58h10.48c.63,2.29-1.34,1.07-1.53,1.77-.18.66.17,1.92.03,2.72,1.28-.19,3.06.26,4.22.03.6-.12-.05-1.45.55-1.57,2.55-.5,6.88.57,9.43.07.6-.12-.05-1.45.55-1.57,1.16-.23,2.94.22,4.22.04v1.49c-3.79-.67-2.55.86-3.1,1.39-.25.24-1.03-.02-1.28.22-.28.27,0,1.14-.15,1.31-.38.4-2.55-.23-2.92.13-.21.21.27,1.36-.3,1.48-2.59.51-3.04-1.46-2.72,2.96,2.69.55.3-2.06,2.99-1.5-.67,3.77.86,2.55,1.39,3.1.24.25-.02,1.03.22,1.28.27.28,1.14,0,1.31.15.41.38-.25,2.52.15,2.9.17.16,1.06-.13,1.33.14.29.29-.15,1.33.37,1.44.69.14,2.34-.32,2.68.04.16.16-.13,1.03.16,1.31,1.61,1.54,2.95,2.88,4.49,4.49.27.28,1.14,0,1.31.16.41.39-.25,2.52.16,2.9.17.16,1.04-.13,1.31.16,3.45,3.6,7.02,6.67,10.48,9.98.28.27,0,1.14.16,1.31.38.4,2.56-.23,2.92.13.18.18-.12,1.21.06,1.39.36.36,2.57-.25,2.93.11.21.21-.27,1.36.3,1.47.88.18,3.84-.33,4.19.02.21.21-.26,1.36.3,1.47,2.66.53,7.27-.6,9.93-.07.57.11.09,1.26.3,1.47.38.39,3.35-.21,4.19.02.62.18.1,1.36.27,1.53,1.3,1.29,1.48-1.31,1.58-1.41.3-.28,1.33.17,1.44-.36s.1-3.41,0-3.94c-.12-.6-1.45.05-1.57-.55-.16-.81.26-4,.04-4.22s-2.59.3-2.95-.08c-.16-.17.12-1.03-.16-1.3-.24-.23-.99.01-1.26-.24-.12-.12-1.04-2.13-1.98-2.35-.75-.17-2.34.19-2.61-.07-.2-.19.27-1.37-.3-1.48-.68-.13-2.38.29-2.69-.02-.18-.18.12-1.2-.06-1.38-.39-.4-4.01.3-4.41-.14-.16-.17.12-1.03-.16-1.3-1.61-1.54-2.95-2.88-4.49-4.49-.27-.28-1.14,0-1.31-.16-.4-.38.23-2.55-.13-2.92-.21-.21-1.36.27-1.48-.3-.13-.65-.13-4.79,0-5.44.11-.57,1.27-.1,1.48-.3.36-.37-.27-2.54.13-2.92.17-.16,1.04.13,1.31-.16,1.06-1.11,1.89-1.93,3-3,.28-.27,0-1.14.16-1.31.38-.4,2.56.23,2.92-.13.18-.18-.12-1.21.06-1.39.36-.36,2.57.25,2.93-.11.21-.21-.27-1.36.3-1.47.81-.16,4,.26,4.22.04.68-3.75-.86-2.55-1.39-3.11-.7-.74-.76-.8-1.5-1.5-.31-.29.13-1.31-.39-1.42-1.45-.31-3.95.36-5.44.07-.6-.12.05-1.45-.55-1.57-1.82-.35-5.34.51-6.94.07-.57-.16-.19-1.53-.27-1.53h-8.98v-1.49s3,0,3,0v-1.49ZM141.91,24.73c-.36-.36-9.32-.26-10.17-.09-.57.11-.1,1.27-.3,1.47-.37.36-2.54-.27-2.92.13-.16.17.13,1.04-.15,1.31-.25.24-1.03-.02-1.28.22-.28.27,0,1.14-.15,1.31-.38.41-2.52-.25-2.9.15-.16.17.13,1.04-.16,1.31-.79.76-.66.58-1.49,1.5-.44.48-1.88-.66-1.4,1.6.25.26,4.76-.22,5.72-.03.57.11.1,1.27.3,1.47.36.36,2.57-.25,2.93.11.21.21-.27,1.36.3,1.47,1.1.22,2.87-.3,3.94-.07.51.11.08,1.13.38,1.42.25.24,1.03-.02,1.28.22.28.27,0,1.14.15,1.31.38.41,2.52-.25,2.9.16.16.17-.13,1.04.16,1.31.69.66.83.79,1.5,1.5.29.31,1.31-.13,1.42.39.17.81.17,9.1,0,9.92-.11.52-1.15.08-1.44.37s.15,1.33-.37,1.44c-.62.13-2.54-.22-2.72-.04s.17,2.1.04,2.72c-.11.53-1.14.08-1.44.36-.11.1-.24,2.66-1.58,1.41-.14-.13.14-1.36,0-1.5-1.33-1.24-1.49,1.3-1.6,1.39-1.04.91-3.26,2.26-4.26,3.23-.12.12-1.02,2.12-1.99,2.34-.7.16-2.49-.12-2.64.02-.19.18.19,2.81,0,3s-2.8-.2-3,0c-.22.22.2,3.41.04,4.22-.12.6-1.45-.05-1.57.55-.23,1.16.22,2.94.04,4.22,2.24.67,1.08-1.35,1.76-1.53.64-.17,2.36.31,2.7-.02.18-.18-.12-1.21.06-1.39.36-.36,2.58.25,2.93-.11.18-.18-.12-1.21.06-1.39.36-.36,2.58.25,2.93-.11.18-.18-.12-1.2.06-1.38.34-.35,3.31.15,4.19-.02.6-.12-.05-1.45.55-1.56.88-.17,3.84.33,4.19-.02.18-.18-.12-1.21.06-1.38.36-.36,2.54.27,2.92-.13.16-.17-.13-1.03.16-1.31.24-.23.99.01,1.26-.24.12-.12,1.04-2.13,1.98-2.35.75-.17,2.34.19,2.61-.07.2-.19-.27-1.37.3-1.48.69-.13,2.34.31,2.68-.04.16-.17-.13-1.03.16-1.31,3.13-3,5.98-5.85,8.98-8.98.27-.28,1.14,0,1.31-.16.35-.33-.09-1.99.04-2.68.11-.56,1.27-.09,1.48-.3.36-.37-.27-2.54.13-2.92.17-.16,1.04.13,1.31-.16.55-.57.91-.95,1.48-1.52.67-.66,2.18-3.6,2.77-4.22.25-.25,1.02-.03,1.24-.26.28-.3,0-1.14.16-1.3.81-.85,3.91,1.78,2.95-3.08-.25-.25-3.41.25-4.2.03-.17-.05-1.41-3.01-1.58-3.06-1.29-.35-3.97.35-5.42.07-.6-.12.05-1.45-.55-1.57-1.49-.29-3.99.38-5.44.07-.51-.11-.08-1.13-.38-1.42-.25-.24-1.03.02-1.28-.22-.3-.29.13-1.31-.38-1.42-1.07-.23-2.84.29-3.94.07-.6-.12.05-1.45-.55-1.56-1.89-.37-5.06.44-6.94.07-.57-.11-.09-1.26-.3-1.47ZM99.03,75.06c.5.45-.38,11.72,0,13.47h14.47v-8.98c0-.07,1.25.17,1.44-.03.4-.44-.19-4.58.03-5.68.11-.57,1.27-.1,1.48-.3.31-.31-.11-2.02.02-2.69.11-.56,1.27-.09,1.48-.3.31-.31-.11-2.02.02-2.69.11-.56,1.27-.09,1.48-.3.37-.37-.29-2.44.15-2.91.1-.11,2.58-.95,2.78-1.19.31-.37-.09-1.3.4-1.4.69-.14,2.33.32,2.67-.04.16-.16-.13-1.04.16-1.31.9-.87,3.37-2.35,4.27-3.22.28-.27,0-1.14.16-1.3.36-.38,2.73.15,2.95-.08.19-.19-.2-2.81,0-3s2.81.2,3,0c.22-.22-.28-2.63.05-2.96.21-.21,1.36.27,1.47-.3.13-.65.13-4.79,0-5.44-.11-.57-1.27-.09-1.47-.3-.34-.34.16-2.75-.05-2.96s-2.59.3-2.95-.08c-.16-.17.12-1.04-.15-1.31-.25-.24-1.03.02-1.28-.22-.28-.27,0-1.14-.15-1.31-.38-.4-2.56.23-2.92-.13-.18-.18.12-1.21-.06-1.39-.36-.36-2.57.25-2.93-.11-.21-.21.27-1.36-.3-1.47-2.27-.45-6.15.51-8.43.07-.6-.12.05-1.45-.55-1.56h-21.41c-.12,2.86-3.79,1.07-5.99,1.5-.6.12.05,1.45-.55,1.57-1.49.29-3.95-.36-5.44-.07-.57.11-.1,1.27-.3,1.47-.36.36-2.58-.25-2.93.11-.18.18.12,1.21-.06,1.39-.36.36-2.58-.25-2.93.11-.18.18.12,1.21-.06,1.39-.36.36-2.58-.25-2.93.11-.18.18.12,1.2-.06,1.38-.33.33-2.75-.16-2.97.05s.3,2.59-.08,2.95c-.17.16-1.04-.12-1.31.15-.24.25.02,1.03-.22,1.28-.29.3-1.32-.13-1.42.38-.72,3.49,1.03,2.42,1.42,2.83,1.54,1.61,2.88,2.95,4.49,4.49.28.27,0,1.14.16,1.31.38.4,2.55-.23,2.92.13.21.21-.27,1.36.3,1.48,2.61.51,3.02-1.47,2.72,2.96,2.3.53,1.15-1.1,1.52-1.45.13-.12,2.3-.16,2.69-.09.57.11.1,1.27.3,1.47.36.36,2.58-.25,2.93.11.18.18-.12,1.21.06,1.39.36.36,2.52-.27,2.92.14.15.15-.11.94.18,1.29.1.12,2.43,1.03,2.72,1.28.16.14,1.61,2.58,1.76,2.74.27.28,1.14,0,1.31.16.4.38-.23,2.55.13,2.92.21.21,1.36-.27,1.48.3.18.91-.34,3.78.03,4.18.21.23,1.31-.08,1.44.03ZM165.89,110.97c.22,2.72,1.37.93,1.53,1.77.68,3.55-1.01,2.4-1.42,2.83-2.52,2.62-4.86,4.97-7.49,7.48-.28.27,0,1.14-.16,1.31-.38.4-2.55-.23-2.92.13-.21.21.26,1.37-.3,1.48-.68.13-2.35-.31-2.68.04-.16.17.13,1.06-.14,1.33-.29.29-1.33-.15-1.44.37-.79,3.84.8,2.28,2.69,2.73.38.09.31.89.68.98.96.23,3.75-.28,4.1.09.16.17-.12,1.03.16,1.3,2.62,2.51,4.97,4.86,7.49,7.49.27.28,1.13,0,1.3.16.37.34-.13,3.14.09,4.1.09.4.9.13,1.03,1.06.19,1.47-.35,3.66-.07,5,.11.53,1.14.08,1.44.36s-.01,1.3.09,1.41c1.25,1.31,1.49-1.3,1.6-1.39,2.31-2.01,3.91-3.8,6-5.98.27-.28,1.14,0,1.31-.16.41-.39-.25-2.52.16-2.9.17-.16,1.04.13,1.31-.16.13-.14,1.59-2.63,1.72-2.77.27-.28,1.14,0,1.31-.16.4-.38-.23-2.55.13-2.92.21-.21,1.37.26,1.48-.3.13-.68-.29-2.38.02-2.69.18-.18,1.22.12,1.39-.06.33-.34-.23-2.1.1-2.44.17-.17,1.21.12,1.39-.06.36-.36-.25-2.58.11-2.93.18-.18,1.21.12,1.39-.06.36-.36-.25-2.58.11-2.93.18-.18,1.21.12,1.39-.06.36-.36-.25-2.58.11-2.93.18-.18,1.21.12,1.39-.06.36-.36-.25-2.58.11-2.93.18-.18,1.21.12,1.39-.06.36-.36-.25-2.58.11-2.93.18-.18,1.2.12,1.38-.06.35-.34-.15-3.3.02-4.19.12-.6,1.45.05,1.57-.55.22-1.1-.29-2.84-.07-3.94.12-.6,1.45.05,1.57-.55.43-2.2-1.36-5.87,1.5-5.99v-20.4c-2.77.01-.94-2.59-1.59-3.24-.18-.18-1.21.12-1.39-.06-.36-.36.25-2.58-.11-2.93-.18-.18-1.21.12-1.39-.06-.36-.36.27-2.54-.13-2.92-.17-.16-1.04.13-1.31-.16-1.06-1.11-1.89-1.94-3-3-.28-.27,0-1.13-.16-1.3-.39-.41-4.6.16-5.67-.04-.6-.12.05-1.45-.55-1.57-.89-.17-12.31-.17-12.93,0-.17.05-.51,2.8-1.77,1.53-.26-.26,1.01-2.13-2.23-1.53-.59.11.05,1.45-.54,1.56-2.68.53-7.25-.59-9.93-.07-.6.12.05,1.45-.55,1.56-1.1.22-2.84-.29-3.94-.07-.6.12.05,1.45-.55,1.56-1.1.22-2.84-.29-3.94-.07-.6.12.05,1.45-.55,1.56-.88.17-3.84-.33-4.19.02-.21.21.26,1.36-.3,1.47-.81.16-4-.26-4.22-.04-.67,3.77.86,2.55,1.39,3.11.13.14,1.59,2.63,1.72,2.77.29.31,1.31-.12,1.42.39.13.62-.23,2.53-.04,2.72.27.28,5.56-.33,5.94.07.16.17-.12,1.06.14,1.33.29.29,1.33-.15,1.44.37.14.68-.3,2.37.02,2.69.21.21,1.36-.27,1.48.3.24,1.19.24,11.73,0,12.92-.11.57-1.27.1-1.47.3-.34.34.15,2.05-.02,2.69-.05.17-2.77.48-1.53,1.76.1.11,2.85.06,2.97-.06.21-.21-.27-1.36.3-1.47,1.1-.22,2.87.3,3.94.07.51-.11.08-1.13.38-1.42.25-.24,1.03.02,1.29-.21.11-.1.31-2.67,1.6-1.39.17.17-.35,1.35.27,1.53.95.27,2.88-.29,3.94-.07.52.11.08,1.15.37,1.44s1.33-.15,1.44.37c.14.68-.3,2.37.02,2.69.21.21,1.36-.27,1.48.3s.16,5.5-.03,5.72c-.07.08-1.1-.03-1.5,0-.1-1.3.25-3.11.03-4.22-.11-.57-1.27-.09-1.47-.3-.34-.34.16-2.75-.05-2.96-.18-.18-2.1.16-2.72.04-.53-.1.71-2.28-2.99-1.56-.57.11-.1,1.27-.3,1.47-.37.36-2.54-.27-2.92.13-.16.17.13,1.04-.15,1.31-.25.24-1.03-.02-1.28.22-.28.27,0,1.14-.16,1.31-.37.4-3.31-.14-4.17.04-.51.11-.08,1.13-.38,1.42-.25.24-1.03-.02-1.28.22-.3.29.13,1.31-.38,1.42-1.44.31-3.99-.38-5.44-.07-.51.11-.08,1.13-.38,1.42-.25.24-1.03-.02-1.28.22-.28.27,0,1.14-.16,1.31-.36.39-3.28-.13-4.17.04-.6.12.05,1.45-.55,1.56-1.11.22-10.33.22-11.43,0-.57-.11-.1-1.27-.3-1.47-.37-.36-2.54.27-2.92-.13-.16-.17.13-1.04-.15-1.31-.25-.24-1.03.02-1.28-.22-.55-.53.66-2.07-3.1-1.39-.25.25.25,3.44.04,4.22-.16.57-1.53.19-1.53.27v20.45c0,.07,1.12-.23,1.41.09.46.52-.77,2.11,2.81,1.44.6-.11-.05-1.45.55-1.56.89-.18,3.81.34,4.17-.04.16-.17-.12-1.04.16-1.31.25-.24,1.03.02,1.28-.22.31-.29-.13-1.33.38-1.42.68-.13,1.59.2,2.38.03.4-.09.13-.91,1.05-1.03,1.08-.14,2.53.27,3.5.07.6-.12-.05-1.45.55-1.56,1.89-.37,5.06.44,6.94.07.57-.11.09-1.26.3-1.47.35-.35,3.3.15,4.19-.02.6-.12-.05-1.45.55-1.56.88-.17,3.84.33,4.19-.02.18-.18-.12-1.21.06-1.38.31-.31,2.02.11,2.69-.02.56-.11.09-1.27.3-1.48.37-.36,2.54.27,2.92-.13.16-.17-.13-1.03.16-1.31,2.62-2.51,4.97-4.86,7.49-7.48.27-.28,1.14,0,1.3-.16.38-.36-.16-2.68.08-2.95.07-.08,1.1.03,1.5,0ZM46.64,156.87c-.32-.32,0-7.68,0-8.98,0-.07,1.25.17,1.44-.03.41-.45-.28-4.03.12-4.42.18-.18,1.21.11,1.38-.06.36-.36-.27-2.54.13-2.92.17-.16,1.04.13,1.31-.15.24-.25-.02-1.03.22-1.28.27-.28,1.14,0,1.31-.15.38-.36-.15-2.72.08-2.95s2.59.3,2.95-.08c.16-.17-.12-1.03.16-1.3.14-.13,2.62-1.6,2.76-1.73.53-.54-.66-.55,1.23-1.4s-.93-.96-1.02-1.06c-.28-.3.16-1.34-.36-1.44-.68-.14-2.38.3-2.69-.02-.18-.18.12-1.21-.06-1.39-.36-.36-2.54.27-2.92-.13-.16-.17.13-1.03-.16-1.31-1.55-1.49-4.21-3.23-5.77-4.72-.28-.27,0-1.14-.16-1.31-.34-.36-1.99.1-2.68-.04-.52-.1-.07-1.15-.37-1.44-.27-.26-1.16.02-1.33-.14-.4-.38.23-2.55-.13-2.92-.21-.21-1.36.27-1.48-.3-.16-.81-.17-7.66,0-8.43.11-.51,1.13-.08,1.42-.39.78-.82.3-.49,1.5-1.49.35-.29.04-1.39.11-1.39h11.97c.15,0-.71,2.18,1.5,1.5v-7.48c0-.08-1.38.3-1.53-.27-.91-3.39,1.49-2.62,1.56-3,.22-1.1-.3-2.87-.07-3.94.11-.51,1.13-.08,1.42-.39.13-.14,1.59-2.63,1.72-2.77.29-.31,1.31.13,1.42-.39.23-1.06-.39-5.26.04-5.66.17-.16,1.03.12,1.3-.16.91-.95,2.32-3.28,3.21-4.27.33-.37,1.28.16,1.4-.35l-.3-1.25c-.89-.11-3.88.24-4.17-.05-.21-.21.26-1.36-.3-1.47-.88-.18-3.84.33-4.19-.02-.21-.21.26-1.36-.3-1.47-1.88-.37-5.05.44-6.94.07-.6-.12.05-1.45-.55-1.56h-28.89c-.18,2.76-2.46,1.09-4.49,1.5-.57.11-.1,1.27-.3,1.47-.37.36-2.54-.27-2.92.13-.16.17.13,1.03-.16,1.31-1.11,1.06-1.94,1.89-3,3-.27.28-1.14,0-1.31.16-.4.38.23,2.56-.13,2.92-.18.18-1.21-.12-1.39.06-.36.36.25,2.57-.11,2.93-.21.21-1.36-.27-1.48.3-.26,1.3-.26,13.12,0,14.42.11.57,1.27.1,1.47.3.36.36-.25,2.56.11,2.94.19.21,1.32-.09,1.44.03.05.05.05,1.44,0,1.49-.13.14-1.36-.14-1.5,0-1.24,1.33,1.3,1.49,1.4,1.6.23.26-.03,1.04.21,1.29.27.27,1.14,0,1.31.15.43.4-.26,4.02.14,4.41.18.18,1.21-.12,1.38.06.31.31-.11,2.02.02,2.69.11.56,1.27.09,1.48.3.36.36-.25,2.58.11,2.93.18.18,1.21-.12,1.39.06.36.36-.27,2.54.13,2.92.17.16,1.04-.13,1.31.15.24.25-.02,1.03.22,1.28.27.28,1.14,0,1.31.15.4.38-.23,2.56.13,2.92.18.18,1.21-.12,1.39.06.36.36-.25,2.57.11,2.93.21.21,1.36-.27,1.47.3.17.83-.34,3.32.04,3.67.17.16,1.04-.12,1.31.16.24.25-.02,1.03.22,1.28.27.28,1.14,0,1.31.15.4.38-.23,2.56.13,2.92.18.18,1.21-.12,1.39.06.31.31-.11,2.02.02,2.69.11.56,1.27.09,1.48.3.36.36-.25,2.58.11,2.93.18.18,1.21-.12,1.39.06.36.36-.27,2.54.13,2.92.17.16,1.03-.13,1.31.16.23.24-.01.99.24,1.26.23.24,1.02.03,1.22.27,1.16,1.41,1.04,4.14,1.21,4.31.16.16,1.06-.13,1.33.13.29.29-.15,1.33.36,1.44.69.14,2.34-.32,2.68.04.16.16-.13,1.03.16,1.31.91.87,3.35,2.35,4.27,3.22.31.29-.13,1.31.39,1.42,1.49.32,4.05-.3,5.71-.04.55-2.33-1.2-1.2-1.5-1.49ZM94.54,73.56v8.98c0,.08,1.37-.3,1.53.27.21.77-.29,3.98-.03,4.22h1.49v-10.48c0-.22-2.38.95-1.5-3h-1.49ZM116.5,97.5c.22.39,7.65-.29,8.98,0v1.49c-.22.23-3.41-.19-4.22-.03-.57.11-.09,1.27-.3,1.47-.3.3-2.28-.08-2.97.06v1.49c1.7-.25,4.16.34,5.72.04.6-.12-.05-1.45.55-1.56.89-.18,3.81.34,4.17-.05.16-.17-.12-1.03.16-1.3,1.1-1.06,1.94-1.89,3-3,.27-.28,1.13,0,1.3-.16.4-.37-.14-3.3.04-4.17.11-.51,1.13-.08,1.42-.38.24-.25-.02-1.03.22-1.28.27-.28,1.14,0,1.31-.16.46-.43-.24-4.65.05-5.67.05-.19,2.76-.45,1.53-1.77-.13-.14-1.36.14-1.5,0-1.23-1.33,1.47-1.6,1.5-1.75.46-1.99-1.17-.94-1.45-1.27-.33-.4.17-2.74-.05-2.97-.2-.2-5.17-.14-5.72-.03s-.1,1.27-.3,1.47c-.36.36-2.58-.25-2.93.11-.18.18.12,1.21-.06,1.39-.36.36-2.54-.27-2.92.13-.16.17.13,1.03-.16,1.31-1.11,1.06-1.94,1.89-3,3-.27.28-1.14,0-1.31.16-.41.39.25,2.52-.16,2.9-.17.16-1.04-.13-1.31.15-.24.25.02,1.03-.22,1.28-.27.28-1.14,0-1.31.15-.4.38.23,2.55-.13,2.92-.21.21-1.36-.27-1.48.3-.1.52-.11,3.43,0,3.94s1.12.09,1.44.37c.34.3-.01,1.22.09,1.41ZM204.31,90.02v-10.48c0-.22-2.38.95-1.5-3h-1.49c.25,1.7-.34,4.16-.04,5.72.12.6,1.45-.05,1.57.55.23,1.16-.32,6.94-.03,7.21h1.49ZM81.04,78.11c-.31-.31-7.92-.24-8.68-.09-.57.11-.1,1.27-.3,1.47-.37.36-2.54-.27-2.92.13-.16.17.13,1.04-.16,1.31-.69.66-.83.79-1.5,1.5-.29.31-1.31-.13-1.42.39-.1.47-.1,3.46,0,3.94.11.51,1.13.08,1.42.39,1.07,1.12,1.88,1.93,3,3,.28.27,0,1.14.16,1.31.39.41,2.52-.25,2.9.16.16.17-.13,1.04.15,1.31.25.24,1.03-.02,1.28.22.28.27,0,1.14.15,1.31.38.4,2.55-.23,2.92.13.21.21-.27,1.36.3,1.48,2.6.51,3.03-1.46,2.72,2.96.68-.12,2.67.23,2.97-.06.21-.21-.27-1.36.3-1.47.9-.18,3.81.33,4.19-.02.25-.24-.27-1.31.28-1.45,2.09-.52,1.03,1.78,1.25,3h1.49c.14-.69-.24-2.66.06-2.97.21-.21,1.36.27,1.47-.3s.12-6.52,0-6.94c-.05-.19-2.76-.45-1.53-1.77.13-.14,1.36.14,1.5,0,1.24-1.33-1.3-1.49-1.39-1.6-1.56-1.78-2.81-2.89-4.48-4.5-.28-.27,0-1.13-.16-1.3-.39-.42-4.6.17-5.67-.04-.57-.11-.09-1.26-.3-1.47ZM143.44,85.53c-.11-.1-1.09.06-1.49,0,.69,3.97-1.02,2.6-1.44,3.03-.36.37.27,2.54-.13,2.92-.17.16-1.04-.13-1.31.15-.24.25.02,1.03-.22,1.28-.27.28-1.14,0-1.31.15-.41.38.25,2.52-.15,2.9-.17.16-1.04-.13-1.31.15-.24.25.02,1.03-.22,1.28-.27.28-1.14,0-1.31.15-.41.38.25,2.52-.16,2.9-.17.16-1.04-.13-1.31.16-1.06,1.11-1.89,1.93-3,3-.28.27,0,1.14-.16,1.31-.38.4-2.55-.23-2.92.13-.21.21.27,1.36-.3,1.48-2.6.51-3.03-1.46-2.72,2.96.22.22,3.41-.2,4.22-.04.6.12-.05,1.45.55,1.56.66.13,4.79.13,5.44,0,.57-.11.09-1.26.3-1.47.39-.39,4.04.28,4.43-.11.18-.18-.12-1.21.06-1.38.36-.36,2.54.27,2.92-.13.16-.17-.13-1.04.16-1.31.69-.66.84-.81,1.5-1.5.27-.28,1.14,0,1.31-.16.41-.39-.25-2.52.16-2.9.17-.16,1.04.13,1.31-.15.24-.25-.02-1.03.22-1.28.29-.3,1.31.13,1.42-.38.19-.88-.34-3.82.02-4.18.21-.21,1.36.26,1.47-.3.13-.65.13-4.79,0-5.44-.11-.57-1.27-.1-1.48-.3-.32-.32.12-2.01-.02-2.69-.11-.52-1.14-.08-1.44-.36-.11-.1-.05-2.58-1.58-1.41-.23.17.71,2.05-1.25,1.5-.57-.16-.06-1.33-.25-1.5ZM104.52,91.52c-.24.26-5.96-.19-6.99,0v5.99c1.56-.23,3.79.31,5.22.03.6-.12-.05-1.45.55-1.56,1.16-.23,6.93.32,7.21.04.22-.22-.28-2.61.05-2.97s1.98.78,1.45-1.52c-.22-.23-3.41.19-4.22.03-.6-.12.05-1.45-.55-1.56-3.76-.71-2.46,1.25-2.72,1.53ZM87.06,103.49h-7.48c-.07,0,.17-1.26-.03-1.44-.36-.32-2,.11-2.69-.03-.56-.11-.09-1.27-.3-1.48-.36-.36-2.58.25-2.93-.11-.18-.18.12-1.21-.06-1.39-.36-.36-2.54.27-2.92-.13-.16-.17.13-1.03-.16-1.31-.91-.87-3.35-2.35-4.27-3.22-.31-.29.13-1.31-.39-1.42-.44-.09-4.07-.12-4.22.03-.2.21.2,2.14.04,2.73-.05.16-2.8.51-1.53,1.76.12.12,1.25-.18,1.44.03.31.33-.11,2.01.02,2.7.11.56,1.27.09,1.48.3.36.37-.27,2.54.13,2.92.17.16,1.04-.13,1.31.16,1.07,1.11,1.87,1.93,3,3,.31.29-.13,1.31.39,1.42.85.18,3.83-.34,4.18.02.18.18-.12,1.21.06,1.38.36.36,2.57-.25,2.93.11.21.21-.27,1.36.3,1.47.45.09,3.59.1,3.95,0,.65-.18-.05-1.39.52-1.53,2.26-.55.19,2.21,2.74,1.5-.96-4.86,2.14-2.22,2.95-3.07.16-.17-.12-1.06.14-1.33.54-.55,2.07.73,1.4-3.09ZM100.03,103.49v10.48c-2,.23.09-2.13-2.49-1.5-.3.29.29,4.77.03,5.72-.16.57-1.53.19-1.53.27v17.46h1.49c-.88-3.95,1.5-2.77,1.5-2.99v-14.47h1v15.96h11.97v-32.42c-1.28-.19-3.06.26-4.22.03-.6-.12.05-1.45-.55-1.57-.55-.11-3.39-.11-3.94,0-.6.12.05,1.45-.55,1.57-.94.18-4.97-.28-5.22-.04v5.99s1.5,0,1.5,0c.18-.17-.47-6.44,1-4.49ZM88.55,134.42c.77.02,2.2-.18,2.72-.03.72.21-.52,2.15,1.77,1.53v-23.45c-1.7.25-4.16-.34-5.71-.03-.6.12.05,1.45-.55,1.56-1.47.29-14.45.29-15.92,0-.6-.12.05-1.45-.55-1.56-1.1-.22-2.84.29-3.94.07-.6-.12.05-1.45-.55-1.56-.88-.17-3.84.33-4.19-.02-.18-.18.12-1.21-.06-1.38-.36-.36-2.58.25-2.93-.11-.18-.18.12-1.21-.06-1.39-.36-.36-2.58.25-2.93-.11-.18-.18.12-1.2-.06-1.38-.38-.39-4.04.28-4.43-.11-.21-.21.26-1.36-.3-1.47-.52-.1-3.45-.11-3.94,0s-.08,1.13-.39,1.42c-.74.7-.8.76-1.5,1.5-.29.31-1.31-.13-1.42.39-.12.55-.12,4.88,0,5.43.11.51,1.13.08,1.42.38.24.25-.02,1.03.22,1.28.27.28,1.14,0,1.31.15.41.38-.25,2.52.16,2.9.17.16,1.04-.13,1.31.16.66.69.81.84,1.5,1.5.28.27,0,1.14.16,1.31.39.41,2.52-.25,2.9.16.16.16-.13,1.04.16,1.31.14.13,2.63,1.59,2.77,1.72.28.27,0,1.14.16,1.31.38.4,2.55-.23,2.92.13.21.21-.27,1.36.3,1.47,2.04.41,4.32-1.26,4.49,1.5l17.42-.07c.2,2.73,2.29,1.09,4.4,1.55.1.02,1.65,1.04,1.72,1.12.25.3.03,1.02.26,1.24.7.68,1.17-.97,1.38,1.61-.67-.02-2.74.16-2.96-.06-.21-.2.27-1.36-.3-1.47-.88-.18-3.84.33-4.19-.02-.21-.21.26-1.36-.3-1.47-1.3-.26-14.68-.27-15.92,0-.51.11-.08,1.13-.39,1.42-.14.13-2.63,1.59-2.77,1.72-.28.27,0,1.14-.16,1.3-.36.38-2.73-.15-2.95.08-.19.19.17,2.1.04,2.72-.11.51-1.13.08-1.42.38-.24.25.02,1.03-.22,1.28-.27.28-1.14,0-1.31.16-.39.36.13,3.28-.04,4.17-.12.6-1.45-.05-1.57.55-.7,3.69,1.16,2.44,1.48,2.75s-.12,2.02.02,2.69c.11.52,1.14.08,1.44.36.11.1.29,2.71,1.58,1.41.12-.12-.18-1.25.03-1.44.39-.36,2.54.27,2.92-.13.16-.17-.13-1.03.16-1.31.14-.13,2.63-1.59,2.77-1.72.28-.27,0-1.14.16-1.31.39-.41,2.52.25,2.9-.16.16-.16-.13-1.04.16-1.31.14-.13,2.63-1.59,2.77-1.72.28-.27,0-1.14.16-1.3.14-.15,2.85-.18,2.95-.08,1.25,1.3-1.3,1.49-1.4,1.6-2.08,2.31-4.06,5.02-6.21,7.27-.29.31-1.31-.13-1.42.39-.31,1.44.37,3.96.07,5.44-.11.53-2.28-.7-1.57,2.99.11.57,1.26.1,1.47.3.36.36-.17,3.3.02,4.18.11.52,1.15.08,1.44.37.26.27-.02,1.16.14,1.33.38.4,2.55-.23,2.92.13.21.21-.27,1.36.3,1.48s3.4.11,3.94,0c.6-.12-.05-1.45.55-1.56,1.1-.22,2.87.3,3.94.07.51-.11.08-1.13.39-1.42,2.14-2.03,3.95-3.86,5.99-5.99.27-.28,1.14,0,1.31-.16.4-.38-.23-2.56.13-2.92.18-.18,1.21.12,1.39-.06.36-.36-.25-2.57.11-2.93.21-.21,1.36.27,1.48-.3.18-.91.19-9.06,0-9.93-.11-.51-1.13-.08-1.42-.39-.7-.74-.76-.8-1.5-1.5-.31-.29.13-1.31-.39-1.42-.8-.17-3.99.27-4.22.03v-1.49c1.67.26,4.22-.36,5.71-.04.51.11.08,1.13.38,1.42.25.24,1.03-.02,1.28.22.63.6-.72,1.72,3.11,1.67-.5,3.31.63,8.36.03,11.41-.11.57-1.27.1-1.48.3-.36.36.25,2.58-.11,2.93-.18.18-1.21-.12-1.39.06-.36.36.25,2.58-.11,2.93-.18.18-1.2-.12-1.38.06-.11.11-.16,2.86-.05,2.97,1.3,1.25,1.49-1.3,1.6-1.39,1.73-1.56,2.91-2.82,4.5-4.48.27-.28,1.14,0,1.31-.16.41-.39-.25-2.52.16-2.9.17-.16,1.04.13,1.31-.15.24-.25-.02-1.03.22-1.28.29-.3,1.32.13,1.42-.38.13-.62-.22-2.54-.04-2.72.21-.2,2.1.29,2.45-.08.16-.16-.13-1.04.15-1.31.25-.24,1.03.02,1.28-.22.3-.29-.13-1.31.38-1.42.64-.14,6.29-.14,6.93,0,.51.11.08,1.13.38,1.42.25.24,1.03-.02,1.28.22.28.27,0,1.14.15,1.31.38.41,2.52-.25,2.9.16.16.17-.13,1.04.16,1.31.69.66.84.81,1.5,1.5.27.28,1.14,0,1.31.16.41.38-.25,2.52.16,2.9.17.16,1.04-.13,1.31.15.24.25-.02,1.03.22,1.28.27.28,1.14,0,1.31.15.41.38-.25,2.52.16,2.9.17.16,1.04-.13,1.31.16,1.27,1.33,1.49,1.67,3,2.99.11.09.35,2.71,1.6,1.39.1-.11-.23-1.1.1-1.4.26-.23,1.04.03,1.3-.2.33-.29,0-1.29.1-1.4,1.25-1.32,1.49,1.3,1.6,1.39.26.23,1.04-.03,1.29.21.28.27,0,1.15.15,1.31.38.4,2.55-.23,2.92.13.21.21-.26,1.37.3,1.48.68.13,2.38-.29,2.69.02.18.18-.12,1.2.06,1.38.33.34,4.94-.13,5.96.06v1.49s-3,0-3,0v1.49h10.48c.07,0-.11,1.39,0,1.5.06.05,1.44.05,1.49,0,.12-.12-.18-1.25.03-1.44.38-.35,2.57.25,2.94-.11.42-.42-.94-2.14,3.03-1.44-.12-.85.18-1.96.03-2.72-.1-.54-2.27.72-1.57-2.99.11-.6,1.45.05,1.57-.55.15-.77.15-6.17,0-6.94-.11-.57-1.27-.1-1.48-.3-.36-.37.27-2.54-.13-2.92-.17-.16-1.04.13-1.31-.16-.66-.68-.81-.84-1.5-1.5-.28-.27,0-1.14-.16-1.31-.39-.41-2.52.25-2.9-.15-.16-.17.13-1.04-.15-1.31-.25-.24-1.03.02-1.28-.22-.3-.29.13-1.32-.38-1.42-.68-.14-2.35.31-2.68-.04-.16-.17.13-1.07-.13-1.34-.44-.47-1.9.69-1.41-1.58,1.27.18,3.07-.26,4.22-.04.57.11.1,1.27.3,1.47.37.36,2.54-.27,2.92.13.16.17-.13,1.04.15,1.31.25.24,1.03-.02,1.28.22.28.27,0,1.14.15,1.31.38.41,2.52-.25,2.9.16.16.16-.13,1.03.16,1.31.91.87,3.35,2.35,4.27,3.22.31.29-.13,1.31.39,1.42,3.7.77,2.5-1.31,2.72-1.53,1.27-1.29,1.8,1.33,1.53,2.72-.11.57-1.27.09-1.47.3-.11.11-.16,2.86-.06,2.97,1.32,1.27,1.48-1.31,1.58-1.41.3-.28,1.33.16,1.44-.36.17-.8.16-7.61,0-8.43-.11-.57-1.26-.09-1.47-.3-.35-.35.15-3.3-.02-4.18-.11-.57-1.27-.09-1.47-.3-.34-.34.16-2.75-.05-2.96s-2.59.3-2.95-.08c-.16-.17.12-1.04-.15-1.31-.25-.24-1.03.02-1.28-.22-.28-.27,0-1.14-.15-1.31-.38-.41-2.52.25-2.9-.15-.16-.17.13-1.04-.15-1.31-.25-.24-1.03.02-1.28-.22-.28-.27,0-1.14-.15-1.31-.34-.36-1.99.1-2.67-.04-.49-.1-.09-1.04-.4-1.4-.08-.09-1.97-1.15-2.09-1.16-1.87-.23-12.42-.31-13.91.05-.38.09-.31.89-.68.98-.74.17-2.35-.21-2.63.06-.17.17.12,1.21-.06,1.39-.36.36-2.58-.25-2.93.11-.18.18.12,1.21-.06,1.39-.36.36-2.54-.27-2.92.13-.16.17.13,1.04-.15,1.31-.25.24-1.03-.02-1.28.22-.28.27,0,1.14-.15,1.31-.38.4-2.56-.23-2.92.13-.18.18.12,1.2-.06,1.38-.39.4-4.01-.3-4.41.14-.16.17.12,1.04-.15,1.31-.4.39-1.59-.45-1.64,1.61-2.11.52-.97-1.57-1.21-2.73-.11-.52-1.15-.08-1.44-.37s.15-1.33-.37-1.44c-1.06-.22-11.31-.22-12.42,0-.6.12.05,1.45-.55,1.56-.84.16-7.63.17-8.43,0-.52-.11-.08-1.15-.37-1.44s-1.33.16-1.44-.37c-.15-.71.11-1.86.04-2.71ZM52.63,143.4h-1.5v11.97c0,.08,1.37-.3,1.53.27.21.78-.29,3.97-.04,4.22h3c-.16-.86.26-4.15-.06-4.46-.18-.18-1.21.12-1.38-.06-.36-.36.25-2.52-.12-2.93-.18-.2-1.44.04-1.44-.03v-8.98ZM108.96,150.96c-.2-.22-5.69-.22-5.89,0-.16.17.12,1.03-.16,1.3-2.19,2.11-3.54,3.95-5.49,5.99-.27.28-1.14,0-1.31.16-.41.39.25,2.51-.16,2.9-.17.16-1.04-.13-1.31.16-.13.14-1.59,2.63-1.72,2.77-.27.28-1.14,0-1.3.16-.38.36.15,2.72-.08,2.95s-2.63-.28-2.97.05c-.18.18.12,1.21-.06,1.38-.36.36-2.54-.27-2.92.13-.16.17.13,1.04-.15,1.31-.25.24-1.03-.02-1.28.22-.55.53.68,2.05-3.1,1.39-.53,2.3,1.11,1.16,1.45,1.52.36.39-.27,2.54.13,2.92.17.16,1.04-.13,1.31.16.63.66.84.87,1.5,1.5.28.27,0,1.13.16,1.3.69.74,17.66-.37,20.14.04.53.11-.7,2.28,2.99,1.56.57-.11.1-1.27.3-1.47.36-.36,2.57.25,2.93-.11.21-.21-.27-1.36.3-1.47,3.43-.68,9.58.79,12.92.07.51-.11.08-1.13.39-1.42.14-.13,2.63-1.59,2.77-1.72.56-.53-.67-2.05,3.11-1.39.49-2.27-.97-1.11-1.41-1.58-.25-.27.03-1.17-.13-1.34-.37-.39-2.56.23-2.92-.13-.18-.18.12-1.21-.06-1.39-.36-.36-2.57.25-2.93-.11-.21-.21.27-1.36-.3-1.47-.62-.12-2.54.22-2.72.04-.22-.22.3-2.59-.08-2.95-.17-.16-1.03.12-1.3-.16-.87-.9-2.35-3.37-3.22-4.27-.27-.28-1.14,0-1.31-.16-.41-.39.25-2.51-.16-2.9-.17-.16-1.04.13-1.31-.16-1.54-1.61-2.88-2.95-4.49-4.49-.28-.27,0-1.13-.16-1.3Z"/>
      <path class="cls-1" d="M125.47,143.39c-.18,1.28.26,3.06.04,4.22-.12.6-1.45-.05-1.57.55-.15.78-.15,6.15,0,6.94.12.6,1.45-.05,1.57.55.23,1.16-.22,2.94-.04,4.22-2.27.49-1.11-.97-1.58-1.41-.3-.28-1.33.16-1.44-.36-.23-1.08.29-2.84.07-3.94-.11-.53-2.28.7-1.57-2.99.11-.57,1.26-.1,1.47-.3.35-.35-.15-3.3.02-4.19.11-.57,1.27-.09,1.47-.3.3-.3-.08-2.28.06-2.97h1.49Z"/>
    </g>
  </g>
</svg>